<?xml version="1.0" encoding="UTF-8" standalone="no"?>
<svg
   xmlns:dc="http://purl.org/dc/elements/1.1/"
   xmlns:cc="http://creativecommons.org/ns#"
   xmlns:rdf="http://www.w3.org/1999/02/22-rdf-syntax-ns#"
   xmlns:svg="http://www.w3.org/2000/svg"
   xmlns="http://www.w3.org/2000/svg"
   xmlns:sodipodi="http://sodipodi.sourceforge.net/DTD/sodipodi-0.dtd"
   xmlns:inkscape="http://www.inkscape.org/namespaces/inkscape"
   width="210mm"
   height="297mm"
   viewBox="0 0 210 297"
   version="1.1"
   id="svg906"
   inkscape:version="1.0.2 (e86c870879, 2021-01-15)"
   sodipodi:docname="world-concept.svg">
  <defs
     id="defs900" />
  <sodipodi:namedview
     id="base"
     pagecolor="#ffffff"
     bordercolor="#666666"
     borderopacity="1.0"
     inkscape:pageopacity="0.0"
     inkscape:pageshadow="2"
     inkscape:zoom="1"
     inkscape:cx="371.84003"
     inkscape:cy="437.09879"
     inkscape:document-units="mm"
     inkscape:current-layer="layer1"
     inkscape:document-rotation="0"
     showgrid="false"
     inkscape:snap-intersection-paths="true"
     inkscape:object-paths="true"
     inkscape:snap-smooth-nodes="true"
     inkscape:snap-midpoints="false"
     inkscape:snap-grids="true"
     showguides="false"
     inkscape:snap-global="true"
     inkscape:snap-text-baseline="true"
     inkscape:window-width="1920"
     inkscape:window-height="1021"
     inkscape:window-x="0"
     inkscape:window-y="25"
     inkscape:window-maximized="1">
    <inkscape:grid
       type="axonomgrid"
       id="grid1469" />
  </sodipodi:namedview>
  <metadata
     id="metadata903">
    <rdf:RDF>
      <cc:Work
         rdf:about="">
        <dc:format>image/svg+xml</dc:format>
        <dc:type
           rdf:resource="http://purl.org/dc/dcmitype/StillImage" />
        <dc:title></dc:title>
      </cc:Work>
    </rdf:RDF>
  </metadata>
  <g
     inkscape:label="Layer 1"
     inkscape:groupmode="layer"
     id="layer1">
    <g
       id="g1502"
       transform="matrix(0.68421049,0,0,0.68421049,0.97310668,80.442118)"
       style="stroke-width:1.46154">
      <path
         id="path1480"
         style="font-variation-settings:normal;opacity:1;vector-effect:none;fill:#b7c8b7;fill-opacity:0.278737;stroke:#b7c6b7;stroke-width:0.773398;stroke-linecap:butt;stroke-linejoin:miter;stroke-miterlimit:4;stroke-dasharray:none;stroke-dashoffset:0;stroke-opacity:0.27843139;stop-color:#000000;stop-opacity:1"
         d="M 21.650636,157.5 103.92305,110 186.19547,157.5 103.92305,205 Z"
         sodipodi:nodetypes="ccccc" />
      <path
         id="path1478"
         style="color:#000000;font-style:normal;font-variant:normal;font-weight:normal;font-stretch:normal;font-size:medium;line-height:normal;font-family:sans-serif;font-variant-ligatures:normal;font-variant-position:normal;font-variant-caps:normal;font-variant-numeric:normal;font-variant-alternates:normal;font-variant-east-asian:normal;font-feature-settings:normal;font-variation-settings:normal;text-indent:0;text-align:start;text-decoration:none;text-decoration-line:none;text-decoration-style:solid;text-decoration-color:#000000;letter-spacing:normal;word-spacing:normal;text-transform:none;writing-mode:lr-tb;direction:ltr;text-orientation:mixed;dominant-baseline:auto;baseline-shift:baseline;text-anchor:start;white-space:normal;shape-padding:0;shape-margin:0;inline-size:0;clip-rule:nonzero;display:inline;overflow:visible;visibility:visible;opacity:1;isolation:auto;mix-blend-mode:normal;color-interpolation:sRGB;color-interpolation-filters:linearRGB;solid-color:#000000;solid-opacity:1;vector-effect:none;fill:#ffcc00;fill-opacity:1;fill-rule:nonzero;stroke:none;stroke-width:5.52393;stroke-linecap:butt;stroke-linejoin:miter;stroke-miterlimit:4;stroke-dasharray:none;stroke-dashoffset:0;stroke-opacity:1;color-rendering:auto;image-rendering:auto;shape-rendering:auto;text-rendering:auto;enable-background:accumulate;stop-color:#000000;stop-opacity:1"
         d="m 364.38867,564.83789 -8.92773,-4.63867 -2.53321,6.38281 -0.0801,0.38477 c -0.91998,4.09761 0.49098,8.31582 2.84179,10.90234 2.35081,2.58652 5.21485,4.03175 7.94336,5.21875 2.72851,1.187 5.41322,2.06841 7.36524,2.85742 1.95202,0.78902 2.93532,1.92433 2.32617,0.98047 0.5404,0.83736 0.42108,0.60532 0.28125,1.49219 -0.13982,0.88683 -0.87015,2.70723 -0.7832,5.5 0.0869,2.79281 1.51643,6.07283 4.21484,8.77734 2.69842,2.70452 6.60761,5.29705 12.69727,8.41407 l 75.43554,38.61523 c 8.3373,4.2675 12.7582,8.98853 14.15039,12.12891 1.39223,3.14041 1.05115,4.18658 -1.34375,5.93359 -2.3949,1.74701 -8.02644,3.30157 -16.48242,2.34766 -8.45601,-0.95392 -19.6113,-4.2584 -32.9082,-11.06446 l -33.5293,-17.16015 -8.95898,6.64843 37.92578,19.41407 c 14.13913,7.23719 26.33198,10.96972 36.34765,12.09961 10.01568,1.12985 17.9736,-0.1805 23.4961,-4.20899 5.52245,-4.02848 7.42648,-11.66829 4.59179,-18.0625 -2.83468,-6.3942 -9.11052,-12.0525 -18.73437,-16.97851 l -75.43555,-38.61524 c -5.58512,-2.85876 -8.71974,-5.12075 -10.17187,-6.57617 -1.45213,-1.45542 -1.2867,-1.634 -1.29883,-2.02344 -0.0121,-0.3894 0.32417,-1.47712 0.66406,-3.63281 0.33989,-2.15569 0.11597,-5.56911 -1.75781,-8.47266 -2.05769,-3.18841 -4.57128,-3.85353 -6.98242,-4.82812 -2.41114,-0.97455 -4.9542,-1.82077 -7.11719,-2.76172 -2.16299,-0.94099 -3.85635,-2.0164 -4.53906,-2.76758 -0.64446,-0.70904 -0.6901,-0.78963 -0.45703,-1.875 z"
         sodipodi:nodetypes="ccccssscsssccsssccccsssccssssssscc"
         transform="scale(0.26458333)" />
      <path
         style="color:#000000;font-style:normal;font-variant:normal;font-weight:normal;font-stretch:normal;font-size:medium;line-height:normal;font-family:sans-serif;font-variant-ligatures:normal;font-variant-position:normal;font-variant-caps:normal;font-variant-numeric:normal;font-variant-alternates:normal;font-variant-east-asian:normal;font-feature-settings:normal;font-variation-settings:normal;text-indent:0;text-align:start;text-decoration:none;text-decoration-line:none;text-decoration-style:solid;text-decoration-color:#000000;letter-spacing:normal;word-spacing:normal;text-transform:none;writing-mode:lr-tb;direction:ltr;text-orientation:mixed;dominant-baseline:auto;baseline-shift:baseline;text-anchor:start;white-space:normal;shape-padding:0;shape-margin:0;inline-size:0;clip-rule:nonzero;display:inline;overflow:visible;visibility:visible;opacity:1;isolation:auto;mix-blend-mode:normal;color-interpolation:sRGB;color-interpolation-filters:linearRGB;solid-color:#000000;solid-opacity:1;vector-effect:none;fill:#aa0000;fill-opacity:1;fill-rule:nonzero;stroke:none;stroke-width:5.52393;stroke-linecap:butt;stroke-linejoin:miter;stroke-miterlimit:4;stroke-dasharray:none;stroke-dashoffset:0;stroke-opacity:1;color-rendering:auto;image-rendering:auto;shape-rendering:auto;text-rendering:auto;enable-background:accumulate;stop-color:#000000;stop-opacity:1"
         d="m 302.61325,534.19143 c -6.86864,8.13146 -12.64455,15.27049 -16.40234,22.45507 -3.75779,7.18455 -5.41809,14.83851 -3.10742,22.44727 4.62132,15.21751 22.07587,28.04598 58.30078,46.58789 l 40.36897,20.66345 9.20137,-6.52432 -45.01566,-23.04147 c -35.61947,-18.23203 -50.4267,-31.16052 -53.28906,-40.58594 -1.43118,-4.71269 -0.64164,-9.09976 2.39844,-14.91211 3.04008,-5.81238 8.41695,-12.6256 15.18558,-20.63869"
         transform="scale(0.26458333)"
         id="path1493"
         sodipodi:nodetypes="csscccsssc" />
      <path
         style="color:#000000;font-style:normal;font-variant:normal;font-weight:normal;font-stretch:normal;font-size:medium;line-height:normal;font-family:sans-serif;font-variant-ligatures:normal;font-variant-position:normal;font-variant-caps:normal;font-variant-numeric:normal;font-variant-alternates:normal;font-variant-east-asian:normal;font-feature-settings:normal;font-variation-settings:normal;text-indent:0;text-align:start;text-decoration:none;text-decoration-line:none;text-decoration-style:solid;text-decoration-color:#000000;letter-spacing:normal;word-spacing:normal;text-transform:none;writing-mode:lr-tb;direction:ltr;text-orientation:mixed;dominant-baseline:auto;baseline-shift:baseline;text-anchor:start;white-space:normal;shape-padding:0;shape-margin:0;inline-size:0;clip-rule:nonzero;display:inline;overflow:visible;visibility:visible;opacity:1;isolation:auto;mix-blend-mode:normal;color-interpolation:sRGB;color-interpolation-filters:linearRGB;solid-color:#000000;solid-opacity:1;vector-effect:none;fill:#008033;fill-opacity:1;fill-rule:nonzero;stroke:none;stroke-width:5.52393;stroke-linecap:butt;stroke-linejoin:miter;stroke-miterlimit:4;stroke-dasharray:none;stroke-dashoffset:0;stroke-opacity:1;color-rendering:auto;image-rendering:auto;shape-rendering:auto;text-rendering:auto;enable-background:accumulate;stop-color:#000000;stop-opacity:1"
         d="m 310.25391,540.64258 c 4.9604,-5.87241 7.30473,-9.03752 7.96484,-13.0586 0.33006,-2.01052 -0.28949,-4.43223 -1.28516,-5.83984 -0.85647,-1.21081 -1.50002,-1.62448 -1.91211,-1.94922 0.36034,-1.30613 2.36908,-5.33149 7.76563,-12.27539 l 0.26562,-0.33984 8.63868,-16.29102 c 0.75875,-1.04379 1.09014,-1.03866 1.43945,-1.07812 0.33488,-0.0378 0.31652,-0.0374 0.31641,-0.0371 l 40.46093,18.41797 c 2.03567,1.03048 1.85674,1.2884 1.76368,1.09179 l -20.21094,50.91602 8.92773,4.63867 20.79883,-52.39453 -0.37695,0.74609 c 0,0 1.54074,-2.78804 0.8789,-5.86133 -0.66187,-3.07328 -3.21893,-6.04648 -7.39062,-8.11328 l -0.0723,-0.0371 -41.125,-18.72656 -0.17773,-0.0664 c 0,0 -2.24717,-0.81119 -4.91602,-0.50977 -2.66885,0.30138 -6.20417,1.92149 -8.59179,5.35156 l -0.16993,0.25 -8.70507,16.39844 c -5.43959,7.04747 -8.14821,11.43088 -9.21094,15.38086 -0.54592,2.02911 -0.59007,4.21071 0.11719,6.07617 0.64053,1.68949 1.6946,2.66134 2.42187,3.32227 -0.17007,0.29567 -1.0558,2.56484 -5.25586,7.53711"
         transform="scale(0.26458333)"
         id="path1488" />
      <path
         style="fill:#ff00ff;stroke:none;stroke-width:0.386698px;stroke-linecap:butt;stroke-linejoin:miter;stroke-opacity:1"
         d="m 101.01084,171.01214 1.14416,0.58565 2.37039,-1.75906 -1.08003,-0.55282 z"
         id="path1495" />
    </g>
    <g
       id="g1506"
       transform="matrix(0.68421049,0,0,0.68421049,0.97310668,76.231587)"
       style="stroke-width:1.46154">
      <path
         id="path1474"
         style="fill:#b7c8b7;fill-opacity:0.278737;stroke:#b7c6b7;stroke-width:0.773398;stroke-miterlimit:4;stroke-dasharray:none;stop-color:#000000;stroke-opacity:0.27843139"
         d="M 21.650636,112.5 103.92305,64.999999 186.19547,112.5 103.92305,160 Z"
         sodipodi:nodetypes="ccccc" />
      <path
         style="fill:none;stroke:#d4aa00;stroke-width:3.86698;stroke-linecap:butt;stroke-linejoin:miter;stroke-miterlimit:4;stroke-dasharray:none;stroke-opacity:1"
         d="m 90.932667,118.68978 c -24.9815,-9.84362 -16.121393,-17.88209 -9.856333,-22.176681 6.456814,-4.426039 -4.911384,0.580735 2.317702,-8.72115 l 2.808803,-5.29605 c 1.044662,-1.500779 2.485932,-0.972141 2.485932,-0.972141 l 10.815671,6.066531 c 1.759158,0.87153 1.179248,1.82729 1.179248,1.82729 l -6.886474,15.043961 c -3.381643,4.22412 5.323413,3.24555 6.089928,4.43328 2.770176,2.14364 -2.345325,2.77653 3.832546,5.93872 l 19.95925,10.21628 c 13.15308,5.71941 5.35718,13.14346 -10.88612,4.82922 z"
         id="path1569"
         sodipodi:nodetypes="cscccccccccsc" />
      <path
         style="fill:none;stroke:#1a1a1a;stroke-width:3.86698;stroke-linecap:butt;stroke-linejoin:miter;stroke-miterlimit:4;stroke-dasharray:none;stroke-opacity:1"
         d="M 90.932667,118.68978 C 71.923841,108.96 73.859949,105.05625 81.076334,96.513099 c 5.051471,-5.98021 -2.629071,-1.11442 3.282603,-8.72115 l 2.296933,-4.33091 c 0.854285,-1.22728 2.032901,-0.79498 2.032901,-0.79498 l 10.815671,4.92423 c 1.759158,0.87153 1.179248,1.82729 1.179248,1.82729 l -6.036289,15.204461 c -0.640687,2.85366 4.473228,3.08505 5.239743,4.27278 1.277516,1.97958 -2.345325,2.77653 3.832546,5.93872 l 19.95925,10.21628 c 9.50443,4.86489 3.63211,12.26046 -10.88612,4.82922 z"
         id="path1476"
         sodipodi:nodetypes="cscccccccccsc" />
      <rect
         style="font-variation-settings:normal;opacity:1;vector-effect:none;fill:#806600;fill-opacity:1;stroke:#554400;stroke-width:0.773398;stroke-linecap:butt;stroke-linejoin:miter;stroke-miterlimit:4;stroke-dasharray:none;stroke-dashoffset:0;stroke-opacity:1;stop-color:#000000;stop-opacity:1"
         id="rect1577"
         width="1.8985946"
         height="5.4807711"
         x="118.47894"
         y="113.23077" />
      <ellipse
         style="font-variation-settings:normal;opacity:1;vector-effect:none;fill:#2d5016;fill-opacity:1;stroke:#17280b;stroke-width:0.773398;stroke-linecap:butt;stroke-linejoin:miter;stroke-miterlimit:4;stroke-dasharray:none;stroke-dashoffset:0;stroke-opacity:1;stop-color:#000000;stop-opacity:1"
         id="path1571"
         cx="119.74467"
         cy="112.5"
         rx="3.1643231"
         ry="3.6538465" />
      <rect
         style="font-variation-settings:normal;opacity:1;vector-effect:none;fill:#806600;fill-opacity:1;stroke:#554400;stroke-width:0.7734;stroke-linecap:butt;stroke-linejoin:miter;stroke-miterlimit:4;stroke-dasharray:none;stroke-dashoffset:0;stroke-opacity:1;stop-color:#000000;stop-opacity:1"
         id="rect1575"
         width="1.2657311"
         height="6.211535"
         x="65.177765"
         y="106.24583" />
      <ellipse
         style="font-variation-settings:normal;opacity:1;vector-effect:none;fill:#2d5016;fill-opacity:1;stroke:#17280b;stroke-width:0.773398;stroke-linecap:butt;stroke-linejoin:miter;stroke-miterlimit:4;stroke-dasharray:none;stroke-dashoffset:0;stroke-opacity:1;stop-color:#000000;stop-opacity:1"
         id="ellipse1573"
         cx="65.951164"
         cy="105.19231"
         rx="3.1643231"
         ry="3.6538465" />
    </g>
    <g
       id="g1607"
       transform="matrix(0.68421049,0,0,0.68421049,0.97310668,40.231588)"
       style="stroke-width:1.46154">
      <path
         id="path1605"
         style="fill:#b7c8b7;fill-opacity:0.278737;stroke:#b7c6b7;stroke-width:0.773398;stroke-miterlimit:4;stroke-dasharray:none;stop-color:#000000;stroke-opacity:0.27843139"
         d="M 21.650636,112.5 103.92305,64.999999 186.19547,112.5 103.92305,160 Z"
         sodipodi:nodetypes="ccccc" />
    </g>
    <path
       id="rect1613"
       style="font-variation-settings:normal;opacity:1;vector-effect:none;fill:#aa0000;fill-opacity:1;stroke:#550000;stroke-width:0.529168;stroke-linecap:butt;stroke-linejoin:miter;stroke-miterlimit:4;stroke-dasharray:none;stroke-dashoffset:0;stroke-opacity:1;stop-color:#000000;stop-opacity:1"
       d="m 75.677525,119.86869 1.472804,-0.74042 c 0.475367,-0.23898 1.093261,-0.0437 1.554038,0.22229 l 3.397624,1.96162 c 0.460777,0.26603 0.584783,0.49912 0.109416,0.7381 l -1.472804,0.74043 c -0.475367,0.23898 -0.851148,0.61756 -1.311925,0.35153 l -3.644844,-2.10435 c -0.460777,-0.26603 -0.579676,-0.93021 -0.104309,-1.1692 z"
       sodipodi:nodetypes="sssssssss" />
    <g
       id="g1529"
       transform="matrix(0.68421049,0,0,0.68421049,0.97310668,7.2315884)"
       style="stroke-width:1.46154">
      <path
         id="path1525"
         style="fill:#b7c8b7;fill-opacity:0.278737;stroke:#b7c6b7;stroke-width:0.773398;stroke-miterlimit:4;stroke-dasharray:none;stop-color:#000000;stroke-opacity:0.27843139"
         d="M 21.650636,112.5 103.92305,64.999999 186.19547,112.5 103.92305,160 Z"
         sodipodi:nodetypes="ccccc" />
      <path
         id="path1537"
         style="fill:#1a1a1a;fill-opacity:1;stroke:#000000;stroke-width:0.773398;stroke-miterlimit:4;stroke-dasharray:none;stop-color:#000000"
         d="m 73.612157,97.499999 4.330129,-2.5 8.66027,5 L 82.272413,102.5 Z"
         sodipodi:nodetypes="ccccc" />
      <path
         id="path1539"
         style="fill:#1a1a1a;fill-opacity:1;stroke:#000000;stroke-width:0.773398;stroke-miterlimit:4;stroke-dasharray:none;stop-color:#000000"
         d="m 82.272412,117.5 8.660256,-5 4.330138,2.5 -8.660266,5 z"
         sodipodi:nodetypes="ccccc" />
      <path
         id="path1541"
         style="fill:#1a1a1a;fill-opacity:1;stroke:#000000;stroke-width:0.773398;stroke-miterlimit:4;stroke-dasharray:none;stop-color:#000000"
         d="m 90.932665,97.499999 4.330129,-2.5 8.660266,5 L 99.592921,102.5 Z"
         sodipodi:nodetypes="ccccc" />
    </g>
    <text
       xml:space="preserve"
       style="font-style:normal;font-variant:normal;font-weight:normal;font-stretch:normal;font-size:7.2412px;line-height:1.25;font-family:Rubik;-inkscape-font-specification:'Rubik, Normal';font-variant-ligatures:normal;font-variant-caps:normal;font-variant-numeric:normal;font-variant-east-asian:normal;fill:#000000;fill-opacity:1;stroke:none;stroke-width:0.264583"
       x="135.80554"
       y="188.20528"
       id="text1545"><tspan
         sodipodi:role="line"
         id="tspan1543"
         x="135.80554"
         y="188.20528"
         style="font-style:normal;font-variant:normal;font-weight:normal;font-stretch:normal;font-size:7.2412px;font-family:Rubik;-inkscape-font-specification:'Rubik, Normal';font-variant-ligatures:normal;font-variant-caps:normal;font-variant-numeric:normal;font-variant-east-asian:normal;stroke-width:0.264583">track, </tspan><tspan
         sodipodi:role="line"
         x="135.80554"
         y="197.25677"
         style="font-style:normal;font-variant:normal;font-weight:normal;font-stretch:normal;font-size:7.2412px;font-family:Rubik;-inkscape-font-specification:'Rubik, Normal';font-variant-ligatures:normal;font-variant-caps:normal;font-variant-numeric:normal;font-variant-east-asian:normal;stroke-width:0.264583"
         id="tspan1579">timing sectors</tspan></text>
    <text
       xml:space="preserve"
       style="font-style:normal;font-variant:normal;font-weight:normal;font-stretch:normal;font-size:7.2412px;line-height:1.25;font-family:Rubik;-inkscape-font-specification:'Rubik, Normal';font-variant-ligatures:normal;font-variant-caps:normal;font-variant-numeric:normal;font-variant-east-asian:normal;fill:#000000;fill-opacity:1;stroke:none;stroke-width:0.264583"
       x="135.80554"
       y="153.20528"
       id="text1549"><tspan
         sodipodi:role="line"
         id="tspan1547"
         x="135.80554"
         y="153.20528"
         style="font-style:normal;font-variant:normal;font-weight:normal;font-stretch:normal;font-size:7.2412px;font-family:Rubik;-inkscape-font-specification:'Rubik, Normal';font-variant-ligatures:normal;font-variant-caps:normal;font-variant-numeric:normal;font-variant-east-asian:normal;stroke-width:0.264583">artwork ground</tspan></text>
    <text
       xml:space="preserve"
       style="font-style:normal;font-variant:normal;font-weight:normal;font-stretch:normal;font-size:7.2412px;line-height:1.25;font-family:Rubik;-inkscape-font-specification:'Rubik, Normal';font-variant-ligatures:normal;font-variant-caps:normal;font-variant-numeric:normal;font-variant-east-asian:normal;fill:#000000;fill-opacity:1;stroke:none;stroke-width:0.264583"
       x="135.80554"
       y="117.20527"
       id="text1553"><tspan
         sodipodi:role="line"
         id="tspan1551"
         x="135.80554"
         y="117.20527"
         style="font-style:normal;font-variant:normal;font-weight:normal;font-stretch:normal;font-size:7.2412px;font-family:Rubik;-inkscape-font-specification:'Rubik, Normal';font-variant-ligatures:normal;font-variant-caps:normal;font-variant-numeric:normal;font-variant-east-asian:normal;stroke-width:0.264583">car (png)</tspan></text>
    <text
       xml:space="preserve"
       style="font-style:normal;font-variant:normal;font-weight:normal;font-stretch:normal;font-size:7.2412px;line-height:1.25;font-family:Rubik;-inkscape-font-specification:'Rubik, Normal';font-variant-ligatures:normal;font-variant-caps:normal;font-variant-numeric:normal;font-variant-east-asian:normal;fill:#000000;fill-opacity:1;stroke:none;stroke-width:0.264583"
       x="135.80554"
       y="84.205276"
       id="text1567"><tspan
         sodipodi:role="line"
         id="tspan1565"
         x="135.80554"
         y="84.205276"
         style="font-style:normal;font-variant:normal;font-weight:normal;font-stretch:normal;font-size:7.2412px;font-family:Rubik;-inkscape-font-specification:'Rubik, Normal';font-variant-ligatures:normal;font-variant-caps:normal;font-variant-numeric:normal;font-variant-east-asian:normal;stroke-width:0.264583">artwork air/sky</tspan></text>
    <g
       id="g1593"
       transform="matrix(0.68421049,0,0,0.68421049,0.97310668,-31.060077)"
       style="stroke-width:1.46154">
      <path
         id="path1591"
         style="fill:#b7c8b7;fill-opacity:0.278737;stroke:#b7c6b7;stroke-width:0.773398;stroke-miterlimit:4;stroke-dasharray:none;stop-color:#000000;stroke-opacity:0.27843139"
         d="M 21.650636,112.5 103.92305,64.999999 186.19547,112.5 103.92305,160 Z"
         sodipodi:nodetypes="ccccc" />
    </g>
    <text
       xml:space="preserve"
       style="font-style:normal;font-variant:normal;font-weight:normal;font-stretch:normal;font-size:7.2412px;line-height:1.25;font-family:Rubik;-inkscape-font-specification:'Rubik, Normal';font-variant-ligatures:normal;font-variant-caps:normal;font-variant-numeric:normal;font-variant-east-asian:normal;fill:#000000;fill-opacity:1;stroke:none;stroke-width:0.264583"
       x="135.80554"
       y="51.205269"
       id="text1611"><tspan
         sodipodi:role="line"
         id="tspan1609"
         x="135.80554"
         y="51.205269"
         style="font-style:normal;font-variant:normal;font-weight:normal;font-stretch:normal;font-size:7.2412px;font-family:Rubik;-inkscape-font-specification:'Rubik, Normal';font-variant-ligatures:normal;font-variant-caps:normal;font-variant-numeric:normal;font-variant-east-asian:normal;stroke-width:0.264583">artwork air/sky</tspan></text>
    <path
       id="path1616"
       style="opacity:0.37356567;vector-effect:none;fill:#ffffff;fill-opacity:0.60610467;stroke:#b7c6b7;stroke-width:2;stroke-linecap:butt;stroke-linejoin:miter;stroke-miterlimit:4;stroke-dasharray:none;stroke-dashoffset:0;stroke-opacity:0.278431;stop-color:#000000;stop-opacity:1"
       d="M 283.50586 74.751953 A 18.859685 30.238069 49.336625 0 0 280.68359 74.925781 A 18.859685 30.238069 49.336625 0 0 259.87305 84.84375 A 61.127699 37.778994 21.732778 0 0 215.4375 103.67383 A 61.127699 37.778994 21.732778 0 0 214.02539 116.69141 A 12.665154 20.289686 48.972069 0 0 205.9043 128.16602 A 12.665154 20.289686 48.972069 0 0 206.625 138.96875 A 18.859685 30.238069 84.079461 0 0 211.04297 162.84375 A 18.859685 30.238069 84.079461 0 0 243.07031 164.63477 A 18.859685 30.238069 84.079462 0 0 250.66992 171.44336 A 18.859685 30.238069 84.079462 0 0 293.2793 168.03906 A 61.127699 37.778994 21.732778 0 0 329.00195 148.94336 A 61.127699 37.778994 21.732778 0 0 329.63477 147.14844 A 30.238069 18.859685 20.900251 0 0 340.59766 147.16211 A 30.238069 18.859685 20.900251 0 0 351.61914 122.8418 A 30.238069 18.859685 20.900251 0 0 312.05859 106.65234 A 61.127699 37.778994 21.732778 0 0 296.82227 96.199219 A 18.859685 30.238069 49.336625 0 0 283.50586 74.751953 z "
       transform="scale(0.26458333)" />
    <path
       id="path1633"
       style="opacity:0.37356567;vector-effect:none;fill:#ffffff;fill-opacity:0.60610467;stroke:#b7c6b7;stroke-width:0.529166;stroke-linecap:butt;stroke-linejoin:miter;stroke-miterlimit:4;stroke-dasharray:none;stroke-dashoffset:0;stroke-opacity:0.278431;stop-color:#000000;stop-opacity:1"
       d="m 62.718594,52.524023 a 1.7607869,3.2764201 51.971735 0 0 -0.286518,0.01748 1.7607869,3.2764201 51.971735 0 0 -2.24469,0.997543 5.8553621,3.9898133 17.834603 0 0 -4.757087,1.893918 5.8553621,3.9898133 17.834603 0 0 -0.340981,1.3093 1.1822637,2.1988182 51.700561 0 0 -0.992185,1.154109 1.1822637,2.1988182 51.700561 0 0 -0.09261,1.086532 1.8556937,3.1088523 79.292948 0 0 0.07947,2.401333 1.8556937,3.1088523 79.292948 0 0 3.193917,0.180139 1.8556937,3.1088523 79.292948 0 0 0.660306,0.684804 1.8556937,3.1088523 79.292948 0 0 4.337655,-0.342402 5.8553621,3.9898133 17.834603 0 0 3.884807,-1.920634 5.8553621,3.9898133 17.834603 0 0 0.09108,-0.180532 2.9025059,1.9876196 16.638815 0 0 1.102428,0.0014 2.9025059,1.9876196 16.638815 0 0 1.480228,-2.446122 2.9025059,1.9876196 16.638815 0 0 -3.731546,-1.628326 5.8553621,3.9898133 17.834603 0 0 -1.372701,-1.051368 1.7607869,3.2764201 51.971735 0 0 -1.011571,-2.157153 z" />
  </g>
</svg>
