<?xml version="1.0" encoding="UTF-8" standalone="no"?>
<!-- Created with Inkscape (http://www.inkscape.org/) -->

<svg
   xmlns:dc="http://purl.org/dc/elements/1.1/"
   xmlns:cc="http://creativecommons.org/ns#"
   xmlns:rdf="http://www.w3.org/1999/02/22-rdf-syntax-ns#"
   xmlns:svg="http://www.w3.org/2000/svg"
   xmlns="http://www.w3.org/2000/svg"
   xmlns:sodipodi="http://sodipodi.sourceforge.net/DTD/sodipodi-0.dtd"
   xmlns:inkscape="http://www.inkscape.org/namespaces/inkscape"
   width="45.827816mm"
   height="10.045898mm"
   viewBox="0 0 45.827816 10.045898"
   version="1.1"
   id="svg8"
   inkscape:version="0.92.5 (2060ec1f9f, 2020-04-08)"
   sodipodi:docname="honkin.svg">
  <defs
     id="defs2" />
  <sodipodi:namedview
     id="base"
     pagecolor="#ffffff"
     bordercolor="#666666"
     borderopacity="1.0"
     inkscape:pageopacity="0.0"
     inkscape:pageshadow="2"
     inkscape:zoom="1.7254401"
     inkscape:cx="245.86275"
     inkscape:cy="0.56482114"
     inkscape:document-units="mm"
     inkscape:current-layer="g1455"
     showgrid="false"
     fit-margin-top="0"
     fit-margin-left="0"
     fit-margin-right="0"
     fit-margin-bottom="0"
     inkscape:showpageshadow="false"
     inkscape:object-paths="true"
     inkscape:snap-bbox="true"
     inkscape:bbox-paths="true"
     showguides="true"
     inkscape:guide-bbox="true"
     inkscape:snap-global="true"
     inkscape:snap-page="true"
     inkscape:window-width="1920"
     inkscape:window-height="1029"
     inkscape:window-x="0"
     inkscape:window-y="25"
     inkscape:window-maximized="1">
    <sodipodi:guide
       position="1.1664656,-25.679711"
       orientation="1,0"
       id="guide1496"
       inkscape:locked="false" />
    <sodipodi:guide
       position="18.642051,-9.875472"
       orientation="1,0"
       id="guide1502"
       inkscape:locked="false" />
    <sodipodi:guide
       position="23.920624,-12.280898"
       orientation="1,0"
       id="guide1504"
       inkscape:locked="false" />
    <sodipodi:guide
       position="24.28812,-13.082706"
       orientation="1,0"
       id="guide1506"
       inkscape:locked="false" />
    <sodipodi:guide
       position="27.061041,-15.855628"
       orientation="1,0"
       id="guide1508"
       inkscape:locked="false" />
    <sodipodi:guide
       position="27.428537,-16.022671"
       orientation="1,0"
       id="guide1510"
       inkscape:locked="false" />
    <sodipodi:guide
       position="5.5987736,-26.480077"
       orientation="0,1"
       id="guide1512"
       inkscape:locked="false" />
  </sodipodi:namedview>
  <metadata
     id="metadata5">
    <rdf:RDF>
      <cc:Work
         rdf:about="">
        <dc:format>image/svg+xml</dc:format>
        <dc:type
           rdf:resource="http://purl.org/dc/dcmitype/StillImage" />
        <dc:title></dc:title>
      </cc:Work>
    </rdf:RDF>
  </metadata>
  <g
     inkscape:label="Layer 1"
     inkscape:groupmode="layer"
     id="layer1"
     transform="translate(-48.217915,-223.80147)">
    <g
       transform="matrix(0.26458333,0,0,0.26458333,-47.558028,157.05647)"
       id="layer1-3">
      <path
         d="m 23.375,3.28125 4.375,13.3125 h 0.125 L 23.5,3.28125 Z m 19.09375,15.09375 -0.125,0.09375 -11.3125,8.25 4.3125,13.375 L 35.375,40.1875 35.46875,40.125 31.1875,26.75 42.5,18.46875 Z M 22.4375,33 11.09375,41.1875 11.1875,41.25 22.5,33.03125 Z"
         transform="translate(358.93922,438.08338)"
         id="path4051"
         style="color:#000000;font-style:normal;font-variant:normal;font-weight:normal;font-stretch:normal;font-size:medium;line-height:normal;font-family:'Andale Mono';-inkscape-font-specification:'Andale Mono';text-indent:0;text-align:start;text-decoration:none;text-decoration-line:none;letter-spacing:normal;word-spacing:normal;text-transform:none;writing-mode:lr-tb;direction:ltr;text-anchor:start;display:inline;overflow:visible;visibility:visible;fill:#000000;fill-opacity:1;stroke:none;stroke-width:2.38594294;marker:none;enable-background:accumulate"
         inkscape:connector-curvature="0" />
      <path
         d="m 445.99035,461.40189 c 0,1.285 -0.555,1.6675 -2.6375,2.395 -1.6675,0.62625 -2.95125,0.90375 -3.33375,0.90375 -0.695,0 -1.00625,-0.52125 -1.00625,-1.5975 0,-2.56875 0.7275,-5.69375 3.43625,-5.69375 2.5,0 3.54125,2.70875 3.54125,3.9925 m -27.08375,11.215 c 0,-0.20875 -0.0325,-0.34625 -0.13625,-0.45125 -0.27875,-0.27875 -1.32,-0.45125 -1.84125,-0.9725 -0.38,-0.3825 -0.625,-1.04125 -0.625,-2.56875 v -5.86875 c 0,-0.4525 0.105,-0.72875 0.55625,-0.72875 h 5.9725 c 0.45125,0 0.555,0.27625 0.555,0.72875 v 5.86875 c 0,1.5275 -0.2425,2.18625 -0.625,2.56875 -0.52125,0.52125 -1.5625,0.69375 -1.84,0.9725 -0.105,0.105 -0.13875,0.2425 -0.13875,0.45125 0,0.90125 0.13875,1.80625 0.2775,1.94375 0.13875,0.14 0.3475,0.17375 0.79875,0.17375 h 9.75625 c 0.45125,0 0.65875,-0.0337 0.79875,-0.17375 0.13875,-0.1375 0.27875,-1.0425 0.27875,-1.94375 0,-0.20875 -0.0362,-0.34625 -0.14,-0.45125 -0.2425,-0.2425 -1.32,-0.45125 -1.84125,-0.9725 -0.38,-0.3825 -0.58875,-1.11125 -0.58875,-2.2925 v -16.21375 c 0,-0.8325 0.20875,-1.39 0.52,-1.7 0.55625,-0.55625 1.6675,-0.66125 1.91,-0.905 0.10375,-0.10375 0.14,-0.31125 0.14,-0.485 0,-0.625 -0.14,-1.5625 -0.27875,-1.70125 -0.14,-0.13875 -0.2775,-0.175 -0.79875,-0.175 h -9.41 c -0.38125,0 -0.52,0.0362 -0.62375,0.14125 -0.10375,0.10375 -0.20875,0.8325 -0.20875,1.77 0,0.1725 0.035,0.38125 0.105,0.45 0.1725,0.175 1.04125,0.4525 1.38875,0.8 0.38125,0.3825 0.52,0.79875 0.52,1.97875 v 4.6175 c 0,0.17375 -0.17375,0.41625 -0.41625,0.41625 h -6.25 c -0.24375,0 -0.4175,-0.2425 -0.4175,-0.41625 v -4.6175 c 0,-1.18 0.13875,-1.59625 0.52125,-1.97875 0.3475,-0.3475 1.215,-0.625 1.38875,-0.8 0.07,-0.0688 0.105,-0.2775 0.105,-0.45 0,-0.9375 -0.105,-1.66625 -0.20875,-1.77 -0.10375,-0.105 -0.24375,-0.14125 -0.625,-0.14125 h -9.40875 c -0.52125,0 -0.66,0.0362 -0.8,0.175 -0.1375,0.13875 -0.2775,1.07625 -0.2775,1.70125 0,0.17375 0.035,0.38125 0.14,0.485 0.2425,0.24375 1.35375,0.34875 1.90875,0.905 0.3125,0.31 0.52125,0.8675 0.52125,1.7 v 16.21375 c 0,1.18125 -0.20875,1.91 -0.59,2.2925 -0.52125,0.52125 -1.5975,0.73 -1.84,0.9725 -0.105,0.105 -0.14,0.2425 -0.14,0.45125 0,0.90125 0.14,1.80625 0.2775,1.94375 0.14,0.14 0.27875,0.17375 0.8,0.17375 h 9.75625 c 0.45125,0 0.65875,-0.0337 0.79875,-0.17375 0.13875,-0.1375 0.275,-1.0425 0.275,-1.94375 m 32.2575,-0.48625 c 1.00625,-1.00625 1.25125,-1.5975 1.25125,-2.08375 0,-0.52125 -0.14,-0.9375 -0.55625,-1.35375 -0.4525,-0.45125 -0.8325,-0.52125 -1.18125,-0.52125 -0.48625,0 -0.695,0.13875 -1.00625,0.4525 -1.5275,1.5275 -3.4725,2.36 -5.83375,2.36 -2.395,0 -3.88875,-1.59625 -3.88875,-2.605 0,-0.27625 0.24375,-0.52 0.8675,-0.69375 6.6675,-2.08375 9.445,-3.47125 10.48625,-4.51375 0.59,-0.555 0.8325,-1.215 0.8325,-1.805 0,-2.63875 -3.8175,-7.325 -9.68625,-7.325 -2.43,0 -4.895,0.97 -6.735,2.81125 -1.84,1.84125 -2.98625,4.44375 -2.98625,7.98625 0,3.4025 1.07625,5.76375 2.95125,7.63875 1.875,1.875 4.5825,2.8125 7.535,2.8125 3.02,0 5.8675,-1.07625 7.95,-3.16 m 10.8675,-16.91 c 0,-0.45 -0.24375,-0.625 -0.625,-0.625 h -6.70125 c -0.3825,0 -0.52,0 -0.62625,0.14 -0.1375,0.13875 -0.275,1.07625 -0.275,1.7025 0,0.1725 0.0688,0.31 0.1375,0.415 0.24375,0.3125 0.76375,0.41625 1.21625,0.79875 0.31125,0.3125 0.45125,0.9725 0.45125,1.97875 v 9.27 c 0,1.18125 -0.14,1.945 -0.4875,2.2925 -0.52125,0.52125 -1.38875,0.76375 -1.63125,1.00625 -0.0688,0.0712 -0.10375,0.20875 -0.10375,0.4525 0,0.9025 0.13875,1.77125 0.2775,1.90875 0.105,0.10375 0.2775,0.17375 0.65875,0.17375 h 8.925 c 0.38125,0 0.555,-0.07 0.65875,-0.17375 0.13875,-0.1375 0.2425,-1.00625 0.2425,-1.90875 0,-0.24375 -0.0337,-0.38125 -0.10375,-0.4525 -0.2425,-0.2425 -1.04125,-0.485 -1.5625,-1.00625 -0.34625,-0.3475 -0.45125,-1.11125 -0.45125,-2.2925 z m -3.715,-8.74875 c -1.90875,0 -3.4725,1.49375 -3.4725,3.36875 0,1.90875 1.56375,3.4025 3.4725,3.4025 1.945,0 3.5075,-1.49375 3.5075,-3.4025 0,-1.875 -1.5625,-3.36875 -3.5075,-3.36875 m 26.90875,13.50625 c 0,-3.88875 -2.01375,-5.8675 -5.17375,-5.8675 -1.49375,0 -3.09,0.485 -4.6875,1.45875 -0.555,0.3475 -0.72875,0.45125 -0.8675,0.45125 -0.55625,0 -0.17375,-1.425 -1.18125,-1.425 h -6.11 c -0.3825,0 -0.48625,0 -0.625,0.14 -0.17375,0.17375 -0.3125,1.07625 -0.3125,1.7025 0,0.1725 0.035,0.31 0.13875,0.415 0.2775,0.27875 0.79875,0.3825 1.215,0.79875 0.31375,0.3125 0.45,0.9725 0.45,1.97875 v 9.27 c 0,1.18125 -0.10375,1.945 -0.45,2.2925 -0.48625,0.485 -1.31875,0.76375 -1.5625,1.00625 -0.0687,0.0712 -0.105,0.20875 -0.105,0.4525 0,0.9025 0.105,1.77125 0.245,1.90875 0.10375,0.10375 0.31125,0.17375 0.69375,0.17375 h 8.75 c 0.41625,0 0.55375,-0.07 0.6575,-0.17375 0.175,-0.17375 0.315,-1.00625 0.315,-1.90875 0,-0.24375 -0.0362,-0.38125 -0.10625,-0.4525 -0.27625,-0.27625 -1.075,-0.52125 -1.56125,-1.00625 -0.3475,-0.3475 -0.52,-1.11125 -0.52,-2.2925 v -6.83875 c 0,-2.8125 1.56,-3.68 2.7075,-3.68 1.18,0 1.84,0.8675 1.84,2.70625 v 9.62 c 0,2.56875 1.6325,4.26875 4.58375,4.26875 3.2625,0 4.65125,-2.36 4.65125,-2.84625 0,-0.41625 -0.65875,-1.25 -1.075,-1.25 -0.4875,0 -1.18125,0.625 -1.52875,0.625 -0.2425,0 -0.38125,-0.17375 -0.38125,-0.72875 z m 64.3375,12.1525 c 1.00625,-1.00625 1.24875,-1.5975 1.24875,-2.08375 0,-0.52125 -0.1375,-0.9375 -0.55375,-1.35375 -0.4525,-0.45125 -0.83625,-0.52125 -1.18125,-0.52125 -0.48625,0 -0.695,0.13875 -1.0075,0.4525 -1.5275,1.5275 -3.47125,2.36 -5.8325,2.36 -2.395,0 -3.88875,-1.59625 -3.88875,-2.605 0,-0.27625 0.2425,-0.52 0.8675,-0.69375 6.66625,-2.08375 9.44375,-3.47125 10.48625,-4.51375 0.59,-0.555 0.8325,-1.215 0.8325,-1.805 0,-2.63875 -3.81875,-7.325 -9.68625,-7.325 -2.4325,0 -4.89625,0.97 -6.7375,2.81125 -1.83875,1.84125 -2.985,4.44375 -2.985,7.98625 0,3.4025 1.07625,5.76375 2.95125,7.63875 1.875,1.875 4.58375,2.8125 7.53375,2.8125 3.02125,0 5.87,-1.07625 7.9525,-3.16 m -5.17375,-10.72875 c 0,1.285 -0.555,1.6675 -2.63875,2.395 -1.66625,0.62625 -2.95125,0.90375 -3.335,0.90375 -0.6925,0 -1.00625,-0.52125 -1.00625,-1.5975 0,-2.56875 0.73,-5.69375 3.43875,-5.69375 2.49875,0 3.54125,2.70875 3.54125,3.9925 m -37.49875,10.72875 c 1.00625,-1.00625 1.25125,-1.5975 1.25125,-2.08375 0,-0.52125 -0.14,-0.9375 -0.55625,-1.35375 -0.45125,-0.45125 -0.8325,-0.52125 -1.18,-0.52125 -0.48875,0 -0.695,0.13875 -1.0075,0.4525 -1.5275,1.5275 -3.4725,2.36 -5.83375,2.36 -2.395,0 -3.88875,-1.59625 -3.88875,-2.605 0,-0.27625 0.24375,-0.52 0.86875,-0.69375 6.66625,-2.08375 9.44375,-3.47125 10.485,-4.51375 0.59125,-0.555 0.83375,-1.215 0.83375,-1.805 0,-2.63875 -3.81875,-7.325 -9.6875,-7.325 -2.43,0 -4.895,0.97 -6.735,2.81125 -1.84,1.84125 -2.98625,4.44375 -2.98625,7.98625 0,3.4025 1.07625,5.76375 2.95,7.63875 1.87625,1.875 4.585,2.8125 7.53625,2.8125 3.02,0 5.8675,-1.07625 7.95,-3.16 m -5.1725,-10.72875 c 0,1.285 -0.55625,1.6675 -2.63875,2.395 -1.6675,0.62625 -2.95125,0.90375 -3.33375,0.90375 -0.695,0 -1.00625,-0.52125 -1.00625,-1.5975 0,-2.56875 0.72875,-5.69375 3.43625,-5.69375 2.5,0 3.5425,2.70875 3.5425,3.9925 m 69.50875,-1.42375 c 0,-3.88875 -2.0125,-5.8675 -5.17125,-5.8675 -1.49375,0 -3.09125,0.485 -4.6875,1.45875 -0.55625,0.3475 -0.73125,0.45125 -0.8675,0.45125 -0.55625,0 -0.175,-1.425 -1.18125,-1.425 h -6.11 c -0.3825,0 -0.4875,0 -0.62625,0.14 -0.17375,0.17375 -0.3125,1.07625 -0.3125,1.7025 0,0.1725 0.035,0.31 0.13875,0.415 0.27875,0.27875 0.8,0.3825 1.21625,0.79875 0.31125,0.3125 0.45125,0.9725 0.45125,1.97875 v 9.27 c 0,1.18125 -0.105,1.945 -0.45125,2.2925 -0.4875,0.485 -1.32,0.76375 -1.5625,1.00625 -0.07,0.0712 -0.105,0.20875 -0.105,0.4525 0,0.9025 0.105,1.77125 0.24125,1.90875 0.10625,0.10375 0.315,0.17375 0.69625,0.17375 h 8.74875 c 0.4175,0 0.55625,-0.07 0.66125,-0.17375 0.17375,-0.17375 0.31125,-1.00625 0.31125,-1.90875 0,-0.24375 -0.0337,-0.38125 -0.10375,-0.4525 -0.2775,-0.27625 -1.07625,-0.52125 -1.5625,-1.00625 -0.3475,-0.3475 -0.5225,-1.11125 -0.5225,-2.2925 v -6.83875 c 0,-2.8125 1.56375,-3.68 2.71,-3.68 1.18125,0 1.84,0.8675 1.84,2.70625 v 9.62 c 0,2.56875 1.6325,4.26875 4.58375,4.26875 3.26375,0 4.6525,-2.36 4.6525,-2.84625 0,-0.41625 -0.66,-1.25 -1.07625,-1.25 -0.48625,0 -1.18,0.625 -1.5275,0.625 -0.24375,0 -0.38375,-0.17375 -0.38375,-0.72875 z m -54.51125,-12.88125 h -6.665 c -0.4175,0 -0.59125,0 -0.69375,0.175 -0.14,0.1725 -0.245,1.04125 -0.245,1.63125 0,0.2075 0.0362,0.34625 0.105,0.485 0.2425,0.24375 1.18125,0.48625 1.5975,0.90375 0.34625,0.3475 0.52125,1.04125 0.52125,3.67875 v 13.88875 c 0,2.3275 -0.2425,3.05625 -0.52125,3.33375 -0.48625,0.485 -1.31875,0.76375 -1.5625,1.00625 -0.0687,0.0712 -0.10375,0.20875 -0.10375,0.4525 0,0.9025 0.10375,1.77125 0.2425,1.90875 0.105,0.10375 0.2425,0.17375 0.695,0.17375 h 8.715 c 0.45125,0 0.58875,-0.07 0.69375,-0.17375 0.13875,-0.1375 0.3125,-1.00625 0.3125,-1.90875 0,-0.24375 -0.0337,-0.38125 -0.13875,-0.4525 -0.2425,-0.2425 -1.07625,-0.52125 -1.52875,-1.00625 -0.38,-0.3475 -0.52,-1.11125 -0.52,-2.2925 v -0.7975 c 0,-0.45125 0.14,-0.59125 0.90375,-1.355 0.34625,-0.31125 0.6575,-0.55375 0.9025,-0.55375 0.3475,0 0.62375,0.2425 4.44375,7.95 0.2425,0.48625 0.34625,0.59 0.97125,0.59 h 5.65875 c 0.4175,0 0.5575,-0.07 0.66125,-0.17375 0.13875,-0.1375 0.2775,-1.00625 0.2775,-1.90875 0,-0.24375 -0.0337,-0.38125 -0.105,-0.4525 -0.2425,-0.2425 -1.7,-0.41625 -2.0125,-1.00625 -5.03375,-8.50625 -5.17375,-8.785 -5.17375,-9.305 0,-0.45125 2.2225,-2.6725 4.0625,-4.13125 1.18125,-0.9375 1.94375,-0.31375 1.94375,-1.42375 0,-1.285 -0.1725,-1.7375 -0.41625,-1.7375 h -8.40125 c -0.73,0 -0.79875,0.41625 -0.79875,1.98 0,0.52 1.4575,0.59 1.4575,1.31875 0,0.625 -3.54125,4.02875 -4.13125,4.02875 -0.20875,0 -0.24375,-0.13875 -0.24375,-0.73 v -13.12375 c 0,-0.55625 -0.3825,-0.9725 -0.90375,-0.9725"
         id="path50"
         style="fill:#00a650;fill-opacity:1;fill-rule:nonzero;stroke:none"
         inkscape:connector-curvature="0" />
      <path
         d="m 340.92648,441.67766 5.4986,16.7228 17.60348,0.0618 -14.20516,10.3971 5.38095,16.76102 -14.27787,-10.29703 -14.27787,10.29703 5.38096,-16.76102 -14.20517,-10.3971 17.60349,-0.0618 z"
         transform="matrix(0.83824299,0,0,0.83824299,95.573749,71.418308)"
         id="path3239"
         style="fill:#ff0000"
         inkscape:connector-curvature="0" />
      <path
         d="m 571.24464,446.36525 c 0.58365,10e-6 1.1436,0.14666 1.67986,0.43996 0.53624,0.29036 0.95695,0.7081 1.26212,1.25323 0.30811,0.54515 0.46217,1.11547 0.46218,1.71097 -1e-5,0.59255 -0.1511,1.15843 -0.4533,1.69764 -0.29924,0.53625 -0.71846,0.95547 -1.25767,1.25768 -0.53625,0.29923 -1.10065,0.44885 -1.69319,0.44885 -0.59255,0 -1.15843,-0.14962 -1.69764,-0.44885 -0.53625,-0.30221 -0.95547,-0.72143 -1.25768,-1.25768 -0.29923,-0.53921 -0.44885,-1.10509 -0.44885,-1.69764 0,-0.5955 0.15258,-1.16582 0.45774,-1.71097 0.30813,-0.54513 0.73031,-0.96287 1.26657,-1.25323 0.53625,-0.2933 1.0962,-0.43995 1.67986,-0.43996 m 0.005,0.66661 c -0.46812,0 -0.91697,0.11704 -1.34656,0.35108 -0.42959,0.23406 -0.76882,0.57033 -1.0177,1.00881 -0.24591,0.43849 -0.36886,0.8977 -0.36886,1.37766 0,0.477 0.11999,0.93178 0.35998,1.36434 0.24294,0.43255 0.58069,0.7703 1.01325,1.01324 0.43255,0.24295 0.88585,0.36441 1.35989,0.36441 0.47699,0 0.93029,-0.12146 1.35988,-0.36441 0.43256,-0.24294 0.77031,-0.58069 1.01325,-1.01324 0.24294,-0.43256 0.36441,-0.88734 0.36442,-1.36434 -1e-5,-0.47996 -0.12444,-0.93917 -0.3733,-1.37766 -0.24591,-0.43848 -0.58515,-0.77475 -1.0177,-1.00881 -0.4296,-0.23404 -0.87845,-0.35108 -1.34655,-0.35108 m -1.5421,4.55962 v -3.61303 h 0.73327 c 0.68735,0 1.0725,0.003 1.15546,0.009 0.24294,0.0208 0.43107,0.0697 0.56441,0.14665 0.13627,0.0741 0.24886,0.18962 0.33774,0.34665 0.0918,0.15406 0.13776,0.3259 0.13777,0.51551 -1e-5,0.26072 -0.0859,0.48441 -0.25776,0.67105 -0.16888,0.18369 -0.40738,0.29776 -0.7155,0.34219 0.10962,0.0415 0.19406,0.0874 0.25331,0.13777 0.0593,0.0474 0.14074,0.13925 0.24444,0.27554 0.0266,0.0355 0.11554,0.1822 0.26663,0.43996 l 0.42663,0.72883 h -0.90659 l -0.30219,-0.58662 c -0.20443,-0.39404 -0.37331,-0.64143 -0.50662,-0.74217 -0.13333,-0.10369 -0.30221,-0.15553 -0.50663,-0.15553 h -0.1911 v 1.48432 h -0.73327 m 0.73327,-2.05317 h 0.29776 c 0.42366,10e-6 0.68586,-0.0163 0.7866,-0.0489 0.10369,-0.0326 0.18516,-0.0889 0.24442,-0.16887 0.0592,-0.083 0.0889,-0.17628 0.0889,-0.27998 0,-0.10073 -0.0296,-0.18961 -0.0889,-0.26664 -0.0563,-0.08 -0.13777,-0.13629 -0.24442,-0.16888 -0.10666,-0.0355 -0.36886,-0.0534 -0.7866,-0.0534 h -0.29776 v 0.98657"
         id="path4083"
         style="font-style:normal;font-variant:normal;font-weight:bold;font-stretch:normal;font-size:40px;font-family:Arial;-inkscape-font-specification:'Andale Mono Bold';fill:#00a650;fill-opacity:1;stroke:none"
         inkscape:connector-curvature="0" />
    </g>
    <g
       id="g1455"
       transform="matrix(0.26458333,0,0,0.26458333,-47.558028,124.85049)">
      <path
         inkscape:connector-curvature="0"
         style="color:#000000;font-style:normal;font-variant:normal;font-weight:normal;font-stretch:normal;font-size:medium;line-height:normal;font-family:'Andale Mono';-inkscape-font-specification:'Andale Mono';text-indent:0;text-align:start;text-decoration:none;text-decoration-line:none;letter-spacing:normal;word-spacing:normal;text-transform:none;writing-mode:lr-tb;direction:ltr;text-anchor:start;display:inline;overflow:visible;visibility:visible;fill:#000000;fill-opacity:1;stroke:none;stroke-width:2.38594294;marker:none;enable-background:accumulate"
         id="path1447"
         transform="translate(358.93922,438.08338)"
         d="m 23.375,3.28125 4.375,13.3125 h 0.125 L 23.5,3.28125 Z m 19.09375,15.09375 -0.125,0.09375 -11.3125,8.25 4.3125,13.375 L 35.375,40.1875 35.46875,40.125 31.1875,26.75 42.5,18.46875 Z M 22.4375,33 11.09375,41.1875 11.1875,41.25 22.5,33.03125 Z" />
      <path
         style="fill:#00a650;fill-opacity:1;fill-rule:nonzero;stroke:none"
         d="m 80.460938,-109.04688 c -2.43,0 -4.894376,0.97126 -6.734376,2.8125 -1.839999,1.84125 -2.986328,4.44383 -2.986328,7.986333 0,3.4025 1.076172,5.763672 2.951172,7.638672 1.875,1.875 4.582657,2.8125 7.535156,2.8125 3.02,0 5.866719,-1.076406 7.949219,-3.160156 1.00625,-1.00625 1.251953,-1.597735 1.251953,-2.083985 0,-0.52125 -0.14039,-0.937265 -0.55664,-1.353515 -0.4525,-0.45125 -0.832891,-0.521485 -1.181641,-0.521485 -0.48625,0 -0.694609,0.139375 -1.005859,0.453125 -1.5275,1.5275 -3.472735,2.359375 -5.833985,2.359375 -2.395,0 -3.888671,-1.596718 -3.888671,-2.605468 0,-0.27625 0.243437,-0.51961 0.867187,-0.69336 6.6675,-2.08375 9.445078,-3.471172 10.486328,-4.513672 0.59,-0.555004 0.833985,-1.214684 0.833985,-1.804684 0,-2.63875 -3.818751,-7.32618 -9.6875,-7.32618 z m 0,3.36915 c 2.499999,0 3.541015,2.70843 3.541015,3.99218 0,1.285 -0.554219,1.66703 -2.636719,2.394534 -1.6675,0.62625 -2.951484,0.904297 -3.333984,0.904297 -0.695,0 -1.005859,-0.521406 -1.005859,-1.597656 0,-2.568745 0.726797,-5.693355 3.435547,-5.693355 z"
         transform="translate(361.98782,563.08801)"
         id="path1475"
         inkscape:connector-curvature="0" />
      <path
         style="fill:#00a650;fill-opacity:1;fill-rule:nonzero;stroke:none"
         d="m 418.9066,472.61689 c 0,-0.20875 -0.0325,-0.34625 -0.13625,-0.45125 -0.27875,-0.27875 -1.32,-0.45125 -1.84125,-0.9725 -0.38,-0.3825 -0.625,-1.04125 -0.625,-2.56875 v -5.86875 c 0,-0.4525 0.105,-0.72875 0.55625,-0.72875 h 5.9725 c 0.45125,0 0.555,0.27625 0.555,0.72875 v 5.86875 c 0,1.5275 -0.2425,2.18625 -0.625,2.56875 -0.52125,0.52125 -1.5625,0.69375 -1.84,0.9725 -0.105,0.105 -0.13875,0.2425 -0.13875,0.45125 0,0.90125 0.13875,1.80625 0.2775,1.94375 0.13875,0.14 0.3475,0.17375 0.79875,0.17375 h 9.75625 c 0.45125,0 0.65875,-0.0337 0.79875,-0.17375 0.13875,-0.1375 0.27875,-1.0425 0.27875,-1.94375 0,-0.20875 -0.0362,-0.34625 -0.14,-0.45125 -0.2425,-0.2425 -1.32,-0.45125 -1.84125,-0.9725 -0.38,-0.3825 -0.58875,-1.11125 -0.58875,-2.2925 v -16.21375 c 0,-0.8325 0.20875,-1.39 0.52,-1.7 0.55625,-0.55625 1.6675,-0.66125 1.91,-0.905 0.10375,-0.10375 0.14,-0.31125 0.14,-0.485 0,-0.625 -0.14,-1.5625 -0.27875,-1.70125 -0.14,-0.13875 -0.2775,-0.175 -0.79875,-0.175 h -9.41 c -0.38125,0 -0.52,0.0362 -0.62375,0.14125 -0.10375,0.10375 -0.20875,0.8325 -0.20875,1.77 0,0.1725 0.035,0.38125 0.105,0.45 0.1725,0.175 1.04125,0.4525 1.38875,0.8 0.38125,0.3825 0.52,0.79875 0.52,1.97875 v 4.6175 c 0,0.17375 -0.17375,0.41625 -0.41625,0.41625 h -6.25 c -0.24375,0 -0.4175,-0.2425 -0.4175,-0.41625 v -4.6175 c 0,-1.18 0.13875,-1.59625 0.52125,-1.97875 0.3475,-0.3475 1.215,-0.625 1.38875,-0.8 0.07,-0.0688 0.105,-0.2775 0.105,-0.45 0,-0.9375 -0.105,-1.66625 -0.20875,-1.77 -0.10375,-0.105 -0.24375,-0.14125 -0.625,-0.14125 h -9.40875 c -0.52125,0 -0.66,0.0362 -0.8,0.175 -0.1375,0.13875 -0.2775,1.07625 -0.2775,1.70125 0,0.17375 0.035,0.38125 0.14,0.485 0.2425,0.24375 1.35375,0.34875 1.90875,0.905 0.3125,0.31 0.52125,0.8675 0.52125,1.7 v 16.21375 c 0,1.18125 -0.20875,1.91 -0.59,2.2925 -0.52125,0.52125 -1.5975,0.73 -1.84,0.9725 -0.105,0.105 -0.14,0.2425 -0.14,0.45125 0,0.90125 0.14,1.80625 0.2775,1.94375 0.14,0.14 0.27875,0.17375 0.8,0.17375 h 9.75625 c 0.45125,0 0.65875,-0.0337 0.79875,-0.17375 0.13875,-0.1375 0.275,-1.0425 0.275,-1.94375"
         id="path1477"
         inkscape:connector-curvature="0" />
      <path
         style="fill:#00a650;fill-opacity:1;fill-rule:nonzero;stroke:none"
         d="m 462.0316,455.22064 c 0,-0.45 -0.24375,-0.625 -0.625,-0.625 h -6.70125 c -0.3825,0 -0.52,0 -0.62625,0.14 -0.1375,0.13875 -0.275,1.07625 -0.275,1.7025 0,0.1725 0.0688,0.31 0.1375,0.415 0.24375,0.3125 0.76375,0.41625 1.21625,0.79875 0.31125,0.3125 0.45125,0.9725 0.45125,1.97875 v 9.27 c 0,1.18125 -0.14,1.945 -0.4875,2.2925 -0.52125,0.52125 -1.38875,0.76375 -1.63125,1.00625 -0.0688,0.0712 -0.10375,0.20875 -0.10375,0.4525 0,0.9025 0.13875,1.77125 0.2775,1.90875 0.105,0.10375 0.2775,0.17375 0.65875,0.17375 h 8.925 c 0.38125,0 0.555,-0.07 0.65875,-0.17375 0.13875,-0.1375 0.2425,-1.00625 0.2425,-1.90875 0,-0.24375 -0.0337,-0.38125 -0.10375,-0.4525 -0.2425,-0.2425 -1.04125,-0.485 -1.5625,-1.00625 -0.34625,-0.3475 -0.45125,-1.11125 -0.45125,-2.2925 z"
         id="path1473"
         inkscape:connector-curvature="0" />
      <path
         style="fill:#00a650;fill-opacity:1;fill-rule:nonzero;stroke:none"
         d="m 458.3166,446.47189 c -1.90875,0 -3.4725,1.49375 -3.4725,3.36875 0,1.90875 1.56375,3.4025 3.4725,3.4025 1.945,0 3.5075,-1.49375 3.5075,-3.4025 0,-1.875 -1.5625,-3.36875 -3.5075,-3.36875"
         id="path1471"
         inkscape:connector-curvature="0" />
      <path
         style="fill:#00a650;fill-opacity:1;fill-rule:nonzero;stroke:none"
         d="m 485.22535,459.97814 c 0,-3.88875 -2.01375,-5.8675 -5.17375,-5.8675 -1.49375,0 -3.09,0.485 -4.6875,1.45875 -0.555,0.3475 -0.72875,0.45125 -0.8675,0.45125 -0.55625,0 -0.17375,-1.425 -1.18125,-1.425 h -6.11 c -0.3825,0 -0.48625,0 -0.625,0.14 -0.17375,0.17375 -0.3125,1.07625 -0.3125,1.7025 0,0.1725 0.035,0.31 0.13875,0.415 0.2775,0.27875 0.79875,0.3825 1.215,0.79875 0.31375,0.3125 0.45,0.9725 0.45,1.97875 v 9.27 c 0,1.18125 -0.10375,1.945 -0.45,2.2925 -0.48625,0.485 -1.31875,0.76375 -1.5625,1.00625 -0.0687,0.0712 -0.105,0.20875 -0.105,0.4525 0,0.9025 0.105,1.77125 0.245,1.90875 0.10375,0.10375 0.31125,0.17375 0.69375,0.17375 h 8.75 c 0.41625,0 0.55375,-0.07 0.6575,-0.17375 0.175,-0.17375 0.315,-1.00625 0.315,-1.90875 0,-0.24375 -0.0362,-0.38125 -0.10625,-0.4525 -0.27625,-0.27625 -1.075,-0.52125 -1.56125,-1.00625 -0.3475,-0.3475 -0.52,-1.11125 -0.52,-2.2925 v -6.83875 c 0,-2.8125 1.56,-3.68 2.7075,-3.68 1.18,0 1.84,0.8675 1.84,2.70625 v 9.62 c 0,2.56875 1.6325,4.26875 4.58375,4.26875 3.2625,0 4.65125,-2.36 4.65125,-2.84625 0,-0.41625 -0.65875,-1.25 -1.075,-1.25 -0.4875,0 -1.18125,0.625 -1.52875,0.625 -0.2425,0 -0.38125,-0.17375 -0.38125,-0.72875 z"
         id="path1469"
         inkscape:connector-curvature="0" />
      <path
         style="fill:#00a650;fill-opacity:1;fill-rule:nonzero;stroke:none"
         d="m 178.85938,-109.04688 c -2.4325,0 -4.89508,0.97126 -6.73633,2.8125 -1.83875,1.84125 -2.98633,4.44383 -2.98633,7.986333 0,3.4025 1.07617,5.763672 2.95117,7.638672 1.875,1.875 4.58516,2.8125 7.53516,2.8125 3.02125,0 5.86867,-1.076406 7.95117,-3.160156 1.00625,-1.00625 1.25,-1.597735 1.25,-2.083985 0,-0.52125 -0.13844,-0.937265 -0.55469,-1.353515 -0.4525,-0.45125 -0.83664,-0.521485 -1.18164,-0.521485 -0.48625,0 -0.69336,0.139375 -1.00586,0.453125 -1.5275,1.5275 -3.47273,2.359375 -5.83398,2.359375 -2.395,0 -3.88867,-1.596718 -3.88867,-2.605468 0,-0.27625 0.24218,-0.51961 0.86718,-0.69336 6.66625,-2.08375 9.44383,-3.471172 10.48633,-4.513672 0.59,-0.555004 0.83399,-1.214684 0.83399,-1.804684 0,-2.63875 -3.82001,-7.32618 -9.6875,-7.32618 z m 0,3.36915 c 2.49874,0 3.54101,2.70843 3.54101,3.99218 0,1.285 -0.55492,1.66703 -2.63867,2.394534 -1.66625,0.62625 -2.95024,0.904297 -3.33399,0.904297 -0.6925,0 -1.00585,-0.521406 -1.00585,-1.597656 0,-2.568745 0.72875,-5.693355 3.4375,-5.693355 z"
         transform="translate(361.98782,563.08801)"
         id="path1467"
         inkscape:connector-curvature="0" />
      <path
         style="fill:#00a650;fill-opacity:1;fill-rule:nonzero;stroke:none"
         d="m 136.1875,-109.04688 c -2.43,0 -4.89438,0.97126 -6.73438,2.8125 -1.83999,1.84125 -2.98632,4.44383 -2.98632,7.986333 0,3.4025 1.07547,5.763672 2.94922,7.638672 1.87625,1.875 4.58586,2.8125 7.5371,2.8125 3.02,0 5.86672,-1.076406 7.94922,-3.160156 1.00625,-1.00625 1.25196,-1.597735 1.25196,-2.083985 0,-0.52125 -0.14039,-0.937265 -0.55664,-1.353515 -0.45125,-0.45125 -0.83219,-0.521485 -1.17969,-0.521485 -0.48875,0 -0.69531,0.139375 -1.00781,0.453125 -1.5275,1.5275 -3.47274,2.359375 -5.83399,2.359375 -2.395,0 -3.88867,-1.596718 -3.88867,-2.605468 0,-0.27625 0.24414,-0.51961 0.86914,-0.69336 6.66625,-2.08375 9.44313,-3.471172 10.48438,-4.513672 0.59125,-0.555004 0.83398,-1.214684 0.83398,-1.804684 0,-2.63875 -3.81875,-7.32618 -9.6875,-7.32618 z m 0,3.36915 c 2.5,0 3.54297,2.70843 3.54297,3.99218 0,1.285 -0.55617,1.66703 -2.63867,2.394534 -1.6675,0.62625 -2.95149,0.904297 -3.33399,0.904297 -0.695,0 -1.00586,-0.521406 -1.00586,-1.597656 0,-2.568745 0.72805,-5.693355 3.43555,-5.693355 z"
         transform="translate(361.98782,563.08801)"
         id="path1463"
         inkscape:connector-curvature="0" />
      <path
         style="fill:#00a650;fill-opacity:1;fill-rule:nonzero;stroke:none"
         d="m 571.2266,459.97814 c 0,-3.88875 -2.0125,-5.8675 -5.17125,-5.8675 -1.49375,0 -3.09125,0.485 -4.6875,1.45875 -0.55625,0.3475 -0.73125,0.45125 -0.8675,0.45125 -0.55625,0 -0.175,-1.425 -1.18125,-1.425 h -6.11 c -0.3825,0 -0.4875,0 -0.62625,0.14 -0.17375,0.17375 -0.3125,1.07625 -0.3125,1.7025 0,0.1725 0.035,0.31 0.13875,0.415 0.27875,0.27875 0.8,0.3825 1.21625,0.79875 0.31125,0.3125 0.45125,0.9725 0.45125,1.97875 v 9.27 c 0,1.18125 -0.105,1.945 -0.45125,2.2925 -0.4875,0.485 -1.32,0.76375 -1.5625,1.00625 -0.07,0.0712 -0.105,0.20875 -0.105,0.4525 0,0.9025 0.105,1.77125 0.24125,1.90875 0.10625,0.10375 0.315,0.17375 0.69625,0.17375 h 8.74875 c 0.4175,0 0.55625,-0.07 0.66125,-0.17375 0.17375,-0.17375 0.31125,-1.00625 0.31125,-1.90875 0,-0.24375 -0.0337,-0.38125 -0.10375,-0.4525 -0.2775,-0.27625 -1.07625,-0.52125 -1.5625,-1.00625 -0.3475,-0.3475 -0.5225,-1.11125 -0.5225,-2.2925 v -6.83875 c 0,-2.8125 1.56375,-3.68 2.71,-3.68 1.18125,0 1.84,0.8675 1.84,2.70625 v 9.62 c 0,2.56875 1.6325,4.26875 4.58375,4.26875 3.26375,0 4.6525,-2.36 4.6525,-2.84625 0,-0.41625 -0.66,-1.25 -1.07625,-1.25 -0.48625,0 -1.18,0.625 -1.5275,0.625 -0.24375,0 -0.38375,-0.17375 -0.38375,-0.72875 z"
         id="path1459"
         inkscape:connector-curvature="0" />
      <path
         style="fill:#00a650;fill-opacity:1;fill-rule:nonzero;stroke:none"
         d="m 516.71535,447.09689 h -6.665 c -0.4175,0 -0.59125,0 -0.69375,0.175 -0.14,0.1725 -0.245,1.04125 -0.245,1.63125 0,0.2075 0.0362,0.34625 0.105,0.485 0.2425,0.24375 1.18125,0.48625 1.5975,0.90375 0.34625,0.3475 0.52125,1.04125 0.52125,3.67875 v 13.88875 c 0,2.3275 -0.2425,3.05625 -0.52125,3.33375 -0.48625,0.485 -1.31875,0.76375 -1.5625,1.00625 -0.0687,0.0712 -0.10375,0.20875 -0.10375,0.4525 0,0.9025 0.10375,1.77125 0.2425,1.90875 0.105,0.10375 0.2425,0.17375 0.695,0.17375 h 8.715 c 0.45125,0 0.58875,-0.07 0.69375,-0.17375 0.13875,-0.1375 0.3125,-1.00625 0.3125,-1.90875 0,-0.24375 -0.0337,-0.38125 -0.13875,-0.4525 -0.2425,-0.2425 -1.07625,-0.52125 -1.52875,-1.00625 -0.38,-0.3475 -0.52,-1.11125 -0.52,-2.2925 v -0.7975 c 0,-0.45125 0.14,-0.59125 0.90375,-1.355 0.34625,-0.31125 0.6575,-0.55375 0.9025,-0.55375 0.3475,0 0.62375,0.2425 4.44375,7.95 0.2425,0.48625 0.34625,0.59 0.97125,0.59 h 5.65875 c 0.4175,0 0.5575,-0.07 0.66125,-0.17375 0.13875,-0.1375 0.2775,-1.00625 0.2775,-1.90875 0,-0.24375 -0.0337,-0.38125 -0.105,-0.4525 -0.2425,-0.2425 -1.7,-0.41625 -2.0125,-1.00625 -5.03375,-8.50625 -5.17375,-8.785 -5.17375,-9.305 0,-0.45125 2.2225,-2.6725 4.0625,-4.13125 1.18125,-0.9375 1.94375,-0.31375 1.94375,-1.42375 0,-1.285 -0.1725,-1.7375 -0.41625,-1.7375 h -8.40125 c -0.73,0 -0.79875,0.41625 -0.79875,1.98 0,0.52 1.4575,0.59 1.4575,1.31875 0,0.625 -3.54125,4.02875 -4.13125,4.02875 -0.20875,0 -0.24375,-0.13875 -0.24375,-0.73 v -13.12375 c 0,-0.55625 -0.3825,-0.9725 -0.90375,-0.9725"
         id="path1449"
         inkscape:connector-curvature="0" />
      <path
         inkscape:connector-curvature="0"
         style="fill:#ff0000"
         id="path1451"
         transform="matrix(0.83824299,0,0,0.83824299,95.573749,71.418308)"
         d="m 340.92648,441.67766 5.4986,16.7228 17.60348,0.0618 -14.20516,10.3971 5.38095,16.76102 -14.27787,-10.29703 -14.27787,10.29703 5.38096,-16.76102 -14.20517,-10.3971 17.60349,-0.0618 z" />
      <path
         inkscape:connector-curvature="0"
         style="font-style:normal;font-variant:normal;font-weight:bold;font-stretch:normal;font-size:40px;font-family:Arial;-inkscape-font-specification:'Andale Mono Bold';fill:#00a650;fill-opacity:1;stroke:none"
         id="path1453"
         d="m 571.24464,446.36525 c 0.58365,10e-6 1.1436,0.14666 1.67986,0.43996 0.53624,0.29036 0.95695,0.7081 1.26212,1.25323 0.30811,0.54515 0.46217,1.11547 0.46218,1.71097 -1e-5,0.59255 -0.1511,1.15843 -0.4533,1.69764 -0.29924,0.53625 -0.71846,0.95547 -1.25767,1.25768 -0.53625,0.29923 -1.10065,0.44885 -1.69319,0.44885 -0.59255,0 -1.15843,-0.14962 -1.69764,-0.44885 -0.53625,-0.30221 -0.95547,-0.72143 -1.25768,-1.25768 -0.29923,-0.53921 -0.44885,-1.10509 -0.44885,-1.69764 0,-0.5955 0.15258,-1.16582 0.45774,-1.71097 0.30813,-0.54513 0.73031,-0.96287 1.26657,-1.25323 0.53625,-0.2933 1.0962,-0.43995 1.67986,-0.43996 m 0.005,0.66661 c -0.46812,0 -0.91697,0.11704 -1.34656,0.35108 -0.42959,0.23406 -0.76882,0.57033 -1.0177,1.00881 -0.24591,0.43849 -0.36886,0.8977 -0.36886,1.37766 0,0.477 0.11999,0.93178 0.35998,1.36434 0.24294,0.43255 0.58069,0.7703 1.01325,1.01324 0.43255,0.24295 0.88585,0.36441 1.35989,0.36441 0.47699,0 0.93029,-0.12146 1.35988,-0.36441 0.43256,-0.24294 0.77031,-0.58069 1.01325,-1.01324 0.24294,-0.43256 0.36441,-0.88734 0.36442,-1.36434 -1e-5,-0.47996 -0.12444,-0.93917 -0.3733,-1.37766 -0.24591,-0.43848 -0.58515,-0.77475 -1.0177,-1.00881 -0.4296,-0.23404 -0.87845,-0.35108 -1.34655,-0.35108 m -1.5421,4.55962 v -3.61303 h 0.73327 c 0.68735,0 1.0725,0.003 1.15546,0.009 0.24294,0.0208 0.43107,0.0697 0.56441,0.14665 0.13627,0.0741 0.24886,0.18962 0.33774,0.34665 0.0918,0.15406 0.13776,0.3259 0.13777,0.51551 -1e-5,0.26072 -0.0859,0.48441 -0.25776,0.67105 -0.16888,0.18369 -0.40738,0.29776 -0.7155,0.34219 0.10962,0.0415 0.19406,0.0874 0.25331,0.13777 0.0593,0.0474 0.14074,0.13925 0.24444,0.27554 0.0266,0.0355 0.11554,0.1822 0.26663,0.43996 l 0.42663,0.72883 h -0.90659 l -0.30219,-0.58662 c -0.20443,-0.39404 -0.37331,-0.64143 -0.50662,-0.74217 -0.13333,-0.10369 -0.30221,-0.15553 -0.50663,-0.15553 h -0.1911 v 1.48432 h -0.73327 m 0.73327,-2.05317 h 0.29776 c 0.42366,10e-6 0.68586,-0.0163 0.7866,-0.0489 0.10369,-0.0326 0.18516,-0.0889 0.24442,-0.16887 0.0592,-0.083 0.0889,-0.17628 0.0889,-0.27998 0,-0.10073 -0.0296,-0.18961 -0.0889,-0.26664 -0.0563,-0.08 -0.13777,-0.13629 -0.24442,-0.16888 -0.10666,-0.0355 -0.36886,-0.0534 -0.7866,-0.0534 h -0.29776 v 0.98657" />
      <path
         inkscape:connector-curvature="0"
         id="path1484"
         d="m 442.44876,495.20485 c -2.43,0 -4.89438,0.97126 -6.73438,2.8125 -1.84,1.84125 -2.98633,4.44383 -2.98633,7.98633 0,3.4025 1.07618,5.76367 2.95118,7.63867 1.875,1.875 4.58265,2.8125 7.53515,2.8125 3.02,0 5.46493,-1.3889 7.54743,-3.47265 1.00625,-1.00625 1.06019,-1.3683 1.25195,-2.08399 0.83302,-3.40414 0.81698,-6.22061 0.1225,-8.36718 0,-2.63875 -3.81875,-7.32618 -9.6875,-7.32618 z m 0,3.36915 c 2.5,0 3.54101,2.70843 3.54101,3.99218 0,1.285 0.4875,5.29727 -0.71112,7.6347 -2.34709,3.77427 -5.69783,-0.0111 -5.92249,-1.74735 -0.0892,-0.68926 -0.34295,-3.10993 -0.34295,-4.18618 0,-2.56874 0.7268,-5.69335 3.43555,-5.69335 z"
         style="fill:#00a650;fill-opacity:1;fill-rule:nonzero;stroke:none"
         sodipodi:nodetypes="scssscccssscsss" />
      <path
         style="opacity:0.73799995;fill:#82a650;fill-opacity:1;fill-rule:nonzero;stroke:none"
         d="m 442.69484,495.20485 c 2.43,0 4.89438,0.97126 6.73438,2.8125 1.84,1.84125 2.98633,4.44383 2.98633,7.98633 0,3.4025 -1.07618,5.76367 -2.95118,7.63867 -1.875,1.875 -4.58265,2.8125 -7.53515,2.8125 -3.02,0 -5.86672,-1.0764 -7.94922,-3.16015 -1.00625,-1.00625 -1.25195,-1.59774 -1.25195,-2.08399 0,-0.52125 0.14039,-0.93726 0.55664,-1.35351 0.4525,-0.45125 0.83289,-0.52149 1.18164,-0.52149 0.48625,0 0.69461,0.13938 1.00586,0.45313 1.5275,1.5275 3.47273,2.35937 5.83398,2.35937 2.395,0 3.88867,-1.59672 3.88867,-2.60547 0,-0.27625 -0.24343,-0.51961 -0.86718,-0.69336 -6.66751,-2.08375 -9.44508,-3.47117 -10.48633,-4.51367 -0.59,-0.555 -0.83399,-1.21468 -0.83399,-1.80468 0,-2.63875 3.81875,-7.32618 9.6875,-7.32618 z m 0,3.36915 c -2.5,0 -3.54101,2.70843 -3.54101,3.99218 0,1.285 0.55422,1.66703 2.63672,2.39453 1.6675,0.62625 2.95148,0.9043 3.33398,0.9043 0.695,0 1.00586,-0.52141 1.00586,-1.59766 0,-2.56874 -0.7268,-5.69335 -3.43555,-5.69335 z"
         id="path1486"
         inkscape:connector-curvature="0" />
      <path
         sodipodi:nodetypes="scsssccssscsss"
         style="fill:#00a650;fill-opacity:1;fill-rule:nonzero;stroke:none"
         d="m 417.32122,495.20485 c -2.43,0 -4.89438,0.97126 -6.73438,2.8125 -1.84,1.84125 -2.98633,4.44383 -2.98633,7.98633 0,3.4025 1.07618,5.76367 2.95118,7.63867 1.875,1.875 4.58265,2.8125 7.53515,2.8125 3.02,0 5.46493,-1.3889 7.54743,-3.47265 2.0958,-2.91389 1.91192,-6.81061 1.37445,-10.45117 -0.34724,-2.95442 -3.81875,-7.32618 -9.6875,-7.32618 z m 0,3.36915 c 2.5,0 3.54101,2.70843 3.54101,3.99218 0,1.285 0.4875,5.29727 -0.71112,7.6347 -2.34709,3.77427 -5.69783,-0.0111 -5.92249,-1.74735 -0.0892,-0.68926 -0.34295,-3.10993 -0.34295,-4.18618 0,-2.56874 0.7268,-5.69335 3.43555,-5.69335 z"
         id="path1488"
         inkscape:connector-curvature="0" />
      <path
         inkscape:connector-curvature="0"
         id="path1490"
         d="m 384.98988,495.20485 c 2.43,0 4.89438,0.97126 6.73438,2.8125 1.84,1.84125 2.98633,4.44383 2.98633,7.98633 0,3.4025 -1.07618,5.76367 -2.95118,7.63867 -1.875,1.875 -4.58265,2.8125 -7.53515,2.8125 -3.02,0 -5.86672,-1.0764 -7.94922,-3.16015 -1.00625,-1.00625 -1.25195,-1.59774 -1.25195,-2.08399 0,-0.52125 0.14039,-0.93726 0.55664,-1.35351 0.4525,-0.45125 0.83289,-0.52149 1.18164,-0.52149 0.48625,0 0.69461,0.13938 1.00586,0.45313 1.5275,1.5275 3.47273,2.35937 5.83398,2.35937 2.395,0 3.88867,-1.59672 3.88867,-2.60547 0,-0.27625 -0.24343,-0.51961 -0.86718,-0.69336 -6.66751,-2.08375 -9.44508,-3.47117 -10.48633,-4.51367 -0.59,-0.555 -0.83399,-1.21468 -0.83399,-1.80468 0,-2.63875 3.81875,-7.32618 9.6875,-7.32618 z m 0,3.36915 c -2.5,0 -3.54101,2.70843 -3.54101,3.99218 0,1.285 0.55422,1.66703 2.63672,2.39453 1.6675,0.62625 2.95148,0.9043 3.33398,0.9043 0.695,0 1.00586,-0.52141 1.00586,-1.59766 0,-2.56874 -0.7268,-5.69335 -3.43555,-5.69335 z"
         style="opacity:0.73799995;fill:#82a650;fill-opacity:1;fill-rule:nonzero;stroke:none" />
      <path
         d="m 382.31422,411.95672 4.375,-13.3125 h 0.125 l -4.375,13.3125 z m 19.09375,-15.09375 -0.125,-0.0937 -11.3125,-8.25 4.3125,-13.375 0.0312,-0.0937 0.0937,0.0625 -4.28125,13.375 11.3125,8.28125 z m -20.03125,-14.625 -11.34375,-8.1875 0.0937,-0.0625 11.3125,8.21875 z"
         id="path1514"
         style="color:#000000;font-style:normal;font-variant:normal;font-weight:normal;font-stretch:normal;font-size:medium;line-height:normal;font-family:'Andale Mono';-inkscape-font-specification:'Andale Mono';text-indent:0;text-align:start;text-decoration:none;text-decoration-line:none;letter-spacing:normal;word-spacing:normal;text-transform:none;writing-mode:lr-tb;direction:ltr;text-anchor:start;display:inline;overflow:visible;visibility:visible;fill:#000000;fill-opacity:1;stroke:none;stroke-width:2.38594294;marker:none;enable-background:accumulate"
         inkscape:connector-curvature="0" />
      <path
         inkscape:connector-curvature="0"
         id="path1518"
         d="m 418.9066,405.24023 c 0,-0.20875 -0.0325,-0.34625 -0.13625,-0.45125 -0.27875,-0.27875 -1.32,-0.45125 -1.84125,-0.9725 -0.38,-0.3825 -0.625,-1.04125 -0.625,-2.56875 v -5.86875 c 0,-0.4525 0.105,-0.72875 0.55625,-0.72875 h 5.9725 c 0.45125,0 0.555,0.27625 0.555,0.72875 v 5.86875 c 0,1.5275 -0.2425,2.18625 -0.625,2.56875 -0.52125,0.52125 -1.5625,0.69375 -1.84,0.9725 -0.105,0.105 -0.13875,0.2425 -0.13875,0.45125 0,0.90125 0.13875,1.80625 0.2775,1.94375 0.13875,0.14 0.3475,0.17375 0.79875,0.17375 h 9.75625 c 0.45125,0 0.65875,-0.0337 0.79875,-0.17375 0.13875,-0.1375 0.27875,-1.0425 0.27875,-1.94375 0,-0.20875 -0.0362,-0.34625 -0.14,-0.45125 -0.2425,-0.2425 -1.32,-0.45125 -1.84125,-0.9725 -0.38,-0.3825 -0.58875,-1.11125 -0.58875,-2.2925 v -16.21375 c 0,-0.8325 0.20875,-1.39 0.52,-1.7 0.55625,-0.55625 1.6675,-0.66125 1.91,-0.905 0.10375,-0.10375 0.14,-0.31125 0.14,-0.485 0,-0.625 -0.14,-1.5625 -0.27875,-1.70125 -0.14,-0.13875 -0.2775,-0.175 -0.79875,-0.175 h -9.41 c -0.38125,0 -0.52,0.0362 -0.62375,0.14125 -0.10375,0.10375 -0.20875,0.8325 -0.20875,1.77 0,0.1725 0.035,0.38125 0.105,0.45 0.1725,0.175 1.04125,0.4525 1.38875,0.8 0.38125,0.3825 0.52,0.79875 0.52,1.97875 v 4.6175 c 0,0.17375 -0.17375,0.41625 -0.41625,0.41625 h -6.25 c -0.24375,0 -0.4175,-0.2425 -0.4175,-0.41625 v -4.6175 c 0,-1.18 0.13875,-1.59625 0.52125,-1.97875 0.3475,-0.3475 1.215,-0.625 1.38875,-0.8 0.07,-0.0688 0.105,-0.2775 0.105,-0.45 0,-0.9375 -0.105,-1.66625 -0.20875,-1.77 -0.10375,-0.105 -0.24375,-0.14125 -0.625,-0.14125 h -9.40875 c -0.52125,0 -0.66,0.0362 -0.8,0.175 -0.1375,0.13875 -0.2775,1.07625 -0.2775,1.70125 0,0.17375 0.035,0.38125 0.14,0.485 0.2425,0.24375 1.35375,0.34875 1.90875,0.905 0.3125,0.31 0.52125,0.8675 0.52125,1.7 v 16.21375 c 0,1.18125 -0.20875,1.91 -0.59,2.2925 -0.52125,0.52125 -1.5975,0.73 -1.84,0.9725 -0.105,0.105 -0.14,0.2425 -0.14,0.45125 0,0.90125 0.14,1.80625 0.2775,1.94375 0.14,0.14 0.27875,0.17375 0.8,0.17375 h 9.75625 c 0.45125,0 0.65875,-0.0337 0.79875,-0.17375 0.13875,-0.1375 0.275,-1.0425 0.275,-1.94375"
         style="fill:#00a650;fill-opacity:1;fill-rule:nonzero;stroke:none" />
      <g
         id="g1540"
         transform="translate(46.209653,-23.182491)"
         style="fill:#00a650;fill-opacity:1">
        <path
           style="fill:#00a650;fill-opacity:1;fill-rule:nonzero;stroke:none"
           d="m 116.32812,-160.81055 c -1.90874,0 -3.47265,1.49414 -3.47265,3.36914 0,1.90875 1.56391,3.40235 3.47265,3.40235 1.945,0 3.50782,-1.4936 3.50782,-3.40235 0,-1.875 -1.56282,-3.36914 -3.50782,-3.36914 z m -3.61132,8.12305 c -0.3825,0 -0.51875,6.3e-4 -0.625,0.14062 -0.1375,0.13875 -0.27539,1.07688 -0.27539,1.70313 0,0.1725 0.068,0.30906 0.13671,0.41406 0.24375,0.3125 0.7643,0.41633 1.2168,0.79883 0.31125,0.3125 0.45117,0.97227 0.45117,1.97852 v 9.27148 c 0,1.18125 -0.14078,1.94352 -0.48828,2.29102 -0.52125,0.52125 -1.38836,0.76531 -1.63086,1.00781 -0.0688,0.0712 -0.10351,0.20742 -0.10351,0.45117 0,0.9025 0.13859,1.77266 0.27734,1.91016 0.105,0.10375 0.27891,0.17382 0.66016,0.17382 h 8.92383 c 0.38125,0 0.55445,-0.0701 0.6582,-0.17382 0.13875,-0.1375 0.24414,-1.00766 0.24414,-1.91016 0,-0.24375 -0.0354,-0.37992 -0.10547,-0.45117 -0.2425,-0.2425 -1.04125,-0.48656 -1.5625,-1.00781 -0.34625,-0.3475 -0.45117,-1.10977 -0.45117,-2.29102 v -13.68164 c 0,-0.45 -0.24375,-0.625 -0.625,-0.625 z"
           transform="translate(341.98782,563.08801)"
           id="path1520"
           inkscape:connector-curvature="0" />
      </g>
      <path
         inkscape:connector-curvature="0"
         id="path1524"
         d="m 471.86753,392.60148 c 0,-3.88875 -2.01375,-5.8675 -5.17375,-5.8675 -1.49375,0 -3.09,0.485 -4.6875,1.45875 -0.555,0.3475 -0.72875,0.45125 -0.8675,0.45125 -0.55625,0 -0.17375,-1.425 -1.18125,-1.425 h -6.11 c -0.3825,0 -0.48625,0 -0.625,0.14 -0.17375,0.17375 -0.3125,1.07625 -0.3125,1.7025 0,0.1725 0.035,0.31 0.13875,0.415 0.2775,0.27875 0.79875,0.3825 1.215,0.79875 0.31375,0.3125 0.45,0.9725 0.45,1.97875 v 9.27 c 0,1.18125 -0.10375,1.945 -0.45,2.2925 -0.48625,0.485 -1.31875,0.76375 -1.5625,1.00625 -0.0687,0.0712 -0.105,0.20875 -0.105,0.4525 0,0.9025 0.105,1.77125 0.245,1.90875 0.10375,0.10375 0.31125,0.17375 0.69375,0.17375 h 8.75 c 0.41625,0 0.55375,-0.07 0.6575,-0.17375 0.175,-0.17375 0.315,-1.00625 0.315,-1.90875 0,-0.24375 -0.0362,-0.38125 -0.10625,-0.4525 -0.27625,-0.27625 -1.075,-0.52125 -1.56125,-1.00625 -0.3475,-0.3475 -0.52,-1.11125 -0.52,-2.2925 v -6.83875 c 0,-2.8125 1.56,-3.68 2.7075,-3.68 1.18,0 1.84,0.8675 1.84,2.70625 v 9.62 c 0,2.56875 1.6325,4.26875 4.58375,4.26875 3.2625,0 4.65125,-2.36 4.65125,-2.84625 0,-0.41625 -0.65875,-1.25 -1.075,-1.25 -0.4875,0 -1.18125,0.625 -1.52875,0.625 -0.2425,0 -0.38125,-0.17375 -0.38125,-0.72875 z"
         style="fill:#00a650;fill-opacity:1;fill-rule:nonzero;stroke:none" />
      <path
         inkscape:connector-curvature="0"
         id="path1530"
         d="m 530.86008,392.60148 c 0,-3.88875 -2.0125,-5.8675 -5.17125,-5.8675 -1.49375,0 -3.09125,0.485 -4.6875,1.45875 -0.55625,0.3475 -0.73125,0.45125 -0.8675,0.45125 -0.55625,0 -0.175,-1.425 -1.18125,-1.425 h -6.11 c -0.3825,0 -0.4875,0 -0.62625,0.14 -0.17375,0.17375 -0.3125,1.07625 -0.3125,1.7025 0,0.1725 0.035,0.31 0.13875,0.415 0.27875,0.27875 0.8,0.3825 1.21625,0.79875 0.31125,0.3125 0.45125,0.9725 0.45125,1.97875 v 9.27 c 0,1.18125 -0.105,1.945 -0.45125,2.2925 -0.4875,0.485 -1.32,0.76375 -1.5625,1.00625 -0.07,0.0712 -0.105,0.20875 -0.105,0.4525 0,0.9025 0.105,1.77125 0.24125,1.90875 0.10625,0.10375 0.315,0.17375 0.69625,0.17375 h 8.74875 c 0.4175,0 0.55625,-0.07 0.66125,-0.17375 0.17375,-0.17375 0.31125,-1.00625 0.31125,-1.90875 0,-0.24375 -0.0337,-0.38125 -0.10375,-0.4525 -0.2775,-0.27625 -1.07625,-0.52125 -1.5625,-1.00625 -0.3475,-0.3475 -0.5225,-1.11125 -0.5225,-2.2925 v -6.83875 c 0,-2.8125 1.56375,-3.68 2.71,-3.68 1.18125,0 1.84,0.8675 1.84,2.70625 v 9.62 c 0,2.56875 1.6325,4.26875 4.58375,4.26875 3.26375,0 4.6525,-2.36 4.6525,-2.84625 0,-0.41625 -0.66,-1.25 -1.07625,-1.25 -0.48625,0 -1.18,0.625 -1.5275,0.625 -0.24375,0 -0.38375,-0.17375 -0.38375,-0.72875 z"
         style="fill:#00a650;fill-opacity:1;fill-rule:nonzero;stroke:none" />
      <path
         inkscape:connector-curvature="0"
         id="path1532"
         d="m 483.50658,379.72023 h -6.665 c -0.4175,0 -0.59125,0 -0.69375,0.175 -0.14,0.1725 -0.245,1.04125 -0.245,1.63125 0,0.2075 0.0362,0.34625 0.105,0.485 0.2425,0.24375 1.18125,0.48625 1.5975,0.90375 0.34625,0.3475 0.52125,1.04125 0.52125,3.67875 v 13.88875 c 0,2.3275 -0.2425,3.05625 -0.52125,3.33375 -0.48625,0.485 -1.31875,0.76375 -1.5625,1.00625 -0.0687,0.0712 -0.10375,0.20875 -0.10375,0.4525 0,0.9025 0.10375,1.77125 0.2425,1.90875 0.105,0.10375 0.2425,0.17375 0.695,0.17375 h 8.715 c 0.45125,0 0.58875,-0.07 0.69375,-0.17375 0.13875,-0.1375 0.3125,-1.00625 0.3125,-1.90875 0,-0.24375 -0.0337,-0.38125 -0.13875,-0.4525 -0.2425,-0.2425 -1.07625,-0.52125 -1.52875,-1.00625 -0.38,-0.3475 -0.52,-1.11125 -0.52,-2.2925 v -0.7975 c 0,-0.45125 0.14,-0.59125 0.90375,-1.355 0.34625,-0.31125 0.6575,-0.55375 0.9025,-0.55375 0.3475,0 0.62375,0.2425 4.44375,7.95 0.2425,0.48625 0.34625,0.59 0.97125,0.59 h 5.65875 c 0.4175,0 0.5575,-0.07 0.66125,-0.17375 0.13875,-0.1375 0.2775,-1.00625 0.2775,-1.90875 0,-0.24375 -0.0337,-0.38125 -0.105,-0.4525 -0.2425,-0.2425 -1.7,-0.41625 -2.0125,-1.00625 -5.03375,-8.50625 -5.17375,-8.785 -5.17375,-9.305 0,-0.45125 2.2225,-2.6725 4.0625,-4.13125 1.18125,-0.9375 1.94375,-0.31375 1.94375,-1.42375 0,-1.285 -0.1725,-1.7375 -0.41625,-1.7375 h -8.40125 c -0.73,0 -0.79875,0.41625 -0.79875,1.98 0,0.52 1.4575,0.59 1.4575,1.31875 0,0.625 -3.54125,4.02875 -4.13125,4.02875 -0.20875,0 -0.24375,-0.13875 -0.24375,-0.73 v -13.12375 c 0,-0.55625 -0.3825,-0.9725 -0.90375,-0.9725"
         style="fill:#00a650;fill-opacity:1;fill-rule:nonzero;stroke:none" />
      <path
         d="m 381.35298,411.66984 4.60916,-14.01777 14.756,-0.0518 -11.90738,-8.7153 4.51055,-14.0498 -11.96833,8.63141 -11.96832,-8.63141 4.51055,14.0498 -11.90739,8.7153 14.75601,0.0518 z"
         id="path1534"
         style="fill:#ff0000;stroke-width:0.83824301"
         inkscape:connector-curvature="0" />
      <path
         d="m 531.79115,378.98859 c 0.58365,1e-5 1.1436,0.14666 1.67986,0.43996 0.53624,0.29036 0.95695,0.7081 1.26212,1.25323 0.30811,0.54515 0.46217,1.11547 0.46218,1.71097 -10e-6,0.59255 -0.1511,1.15843 -0.4533,1.69764 -0.29924,0.53625 -0.71846,0.95547 -1.25767,1.25768 -0.53625,0.29923 -1.10065,0.44885 -1.69319,0.44885 -0.59255,0 -1.15843,-0.14962 -1.69764,-0.44885 -0.53625,-0.30221 -0.95547,-0.72143 -1.25768,-1.25768 -0.29923,-0.53921 -0.44885,-1.10509 -0.44885,-1.69764 0,-0.5955 0.15258,-1.16582 0.45774,-1.71097 0.30813,-0.54513 0.73031,-0.96287 1.26657,-1.25323 0.53625,-0.2933 1.0962,-0.43995 1.67986,-0.43996 m 0.005,0.66661 c -0.46812,0 -0.91697,0.11704 -1.34656,0.35108 -0.42959,0.23406 -0.76882,0.57033 -1.0177,1.00881 -0.24591,0.43849 -0.36886,0.8977 -0.36886,1.37766 0,0.477 0.11999,0.93178 0.35998,1.36434 0.24294,0.43255 0.58069,0.7703 1.01325,1.01324 0.43255,0.24295 0.88585,0.36441 1.35989,0.36441 0.47699,0 0.93029,-0.12146 1.35988,-0.36441 0.43256,-0.24294 0.77031,-0.58069 1.01325,-1.01324 0.24294,-0.43256 0.36441,-0.88734 0.36442,-1.36434 -10e-6,-0.47996 -0.12444,-0.93917 -0.3733,-1.37766 -0.24591,-0.43848 -0.58515,-0.77475 -1.0177,-1.00881 -0.4296,-0.23404 -0.87845,-0.35108 -1.34655,-0.35108 m -1.5421,4.55962 v -3.61303 h 0.73327 c 0.68735,0 1.0725,0.003 1.15546,0.009 0.24294,0.0208 0.43107,0.0697 0.56441,0.14665 0.13627,0.0741 0.24886,0.18962 0.33774,0.34665 0.0918,0.15406 0.13776,0.3259 0.13777,0.51551 -10e-6,0.26072 -0.0859,0.48441 -0.25776,0.67105 -0.16888,0.18369 -0.40738,0.29776 -0.7155,0.34219 0.10962,0.0415 0.19406,0.0874 0.25331,0.13777 0.0593,0.0474 0.14074,0.13925 0.24444,0.27554 0.0266,0.0355 0.11554,0.1822 0.26663,0.43996 l 0.42663,0.72883 h -0.90659 l -0.30219,-0.58662 c -0.20443,-0.39404 -0.37331,-0.64143 -0.50662,-0.74217 -0.13333,-0.10369 -0.30221,-0.15553 -0.50663,-0.15553 h -0.1911 v 1.48432 h -0.73327 m 0.73327,-2.05317 h 0.29776 c 0.42366,1e-5 0.68586,-0.0163 0.7866,-0.0489 0.10369,-0.0326 0.18516,-0.0889 0.24442,-0.16887 0.0592,-0.083 0.0889,-0.17628 0.0889,-0.27998 0,-0.10073 -0.0296,-0.18961 -0.0889,-0.26664 -0.0563,-0.08 -0.13777,-0.13629 -0.24442,-0.16888 -0.10666,-0.0355 -0.36886,-0.0534 -0.7866,-0.0534 h -0.29776 v 0.98657"
         id="path1536"
         style="font-style:normal;font-variant:normal;font-weight:bold;font-stretch:normal;font-size:40px;font-family:Arial;-inkscape-font-specification:'Andale Mono Bold';fill:#00a650;fill-opacity:1;stroke:none"
         inkscape:connector-curvature="0" />
      <path
         style="opacity:1;fill:#00a650;fill-opacity:1;fill-rule:nonzero;stroke:none"
         d="m 442.55521,386.66443 v 0.002 c -2.41924,0.009 -4.86955,0.97768 -6.70118,2.81054 -1.84,1.84125 -2.98632,4.44383 -2.98632,7.98633 0,3.4025 1.07617,5.76367 2.95117,7.63867 1.875,1.875 4.13511,2.8125 6.73047,2.8125 0.007,0 0.0143,-10e-4 0.0215,-0.002 0.008,5.8e-4 0.0155,0.002 0.0234,0.002 2.59536,0 4.85547,-0.9375 6.73047,-2.8125 1.875,-1.875 2.95117,-4.23617 2.95117,-7.63867 0,-3.5425 -1.14633,-6.14508 -2.98633,-7.98633 -1.83162,-1.83286 -4.28194,-2.80174 -6.70117,-2.81054 v -0.002 c -0.006,0 -0.0117,-2e-5 -0.0176,0 -0.005,-10e-6 -0.0104,0 -0.0156,0 z m 0.0156,3.37109 c 2.69527,0.0142 3.59849,4.781 3.59849,8.14648 -0.0487,4.07917 -1.73728,5.71876 -3.59874,5.73382 -1.86114,-0.0169 -3.54766,-1.65635 -3.59629,-5.73382 0,-3.36464 0.90293,-8.13051 3.59654,-8.14648 z"
         id="path1492"
         inkscape:connector-curvature="0"
         sodipodi:nodetypes="cccssscssscccccccccc" />
      <rect
         style="opacity:1;fill:#00a650;fill-opacity:1;stroke:none;stroke-width:3.77952766;stroke-linejoin:round;stroke-opacity:1;paint-order:markers fill stroke"
         id="rect1543"
         width="218.8398"
         height="54.505051"
         x="564.15387"
         y="365.68378" />
      <g
         id="g1575"
         transform="translate(219.65945,-0.08612997)">
        <path
           d="m 381.11272,411.95672 -4.375,-13.3125 h -0.125 l 4.375,13.3125 z m -19.09375,-15.09375 0.125,-0.0937 11.3125,-8.25 -4.3125,-13.375 -0.0312,-0.0937 -0.0937,0.0625 4.28125,13.375 -11.3125,8.28125 z m 20.03125,-14.625 11.34375,-8.1875 -0.0937,-0.0625 -11.3125,8.21875 z"
           id="path1545"
           style="color:#000000;font-style:normal;font-variant:normal;font-weight:normal;font-stretch:normal;font-size:medium;line-height:normal;font-family:'Andale Mono';-inkscape-font-specification:'Andale Mono';text-indent:0;text-align:start;text-decoration:none;text-decoration-line:none;letter-spacing:normal;word-spacing:normal;text-transform:none;writing-mode:lr-tb;direction:ltr;text-anchor:start;display:inline;overflow:visible;visibility:visible;fill:#ffffff;fill-opacity:1;stroke:none;stroke-width:2.38594294;marker:none;enable-background:accumulate"
           inkscape:connector-curvature="0" />
        <path
           inkscape:connector-curvature="0"
           id="path1547"
           d="m 418.9066,405.24023 c 0,-0.20875 -0.0325,-0.34625 -0.13625,-0.45125 -0.27875,-0.27875 -1.32,-0.45125 -1.84125,-0.9725 -0.38,-0.3825 -0.625,-1.04125 -0.625,-2.56875 v -5.86875 c 0,-0.4525 0.105,-0.72875 0.55625,-0.72875 h 5.9725 c 0.45125,0 0.555,0.27625 0.555,0.72875 v 5.86875 c 0,1.5275 -0.2425,2.18625 -0.625,2.56875 -0.52125,0.52125 -1.5625,0.69375 -1.84,0.9725 -0.105,0.105 -0.13875,0.2425 -0.13875,0.45125 0,0.90125 0.13875,1.80625 0.2775,1.94375 0.13875,0.14 0.3475,0.17375 0.79875,0.17375 h 9.75625 c 0.45125,0 0.65875,-0.0337 0.79875,-0.17375 0.13875,-0.1375 0.27875,-1.0425 0.27875,-1.94375 0,-0.20875 -0.0362,-0.34625 -0.14,-0.45125 -0.2425,-0.2425 -1.32,-0.45125 -1.84125,-0.9725 -0.38,-0.3825 -0.58875,-1.11125 -0.58875,-2.2925 v -16.21375 c 0,-0.8325 0.20875,-1.39 0.52,-1.7 0.55625,-0.55625 1.6675,-0.66125 1.91,-0.905 0.10375,-0.10375 0.14,-0.31125 0.14,-0.485 0,-0.625 -0.14,-1.5625 -0.27875,-1.70125 -0.14,-0.13875 -0.2775,-0.175 -0.79875,-0.175 h -9.41 c -0.38125,0 -0.52,0.0362 -0.62375,0.14125 -0.10375,0.10375 -0.20875,0.8325 -0.20875,1.77 0,0.1725 0.035,0.38125 0.105,0.45 0.1725,0.175 1.04125,0.4525 1.38875,0.8 0.38125,0.3825 0.52,0.79875 0.52,1.97875 v 4.6175 c 0,0.17375 -0.17375,0.41625 -0.41625,0.41625 h -6.25 c -0.24375,0 -0.4175,-0.2425 -0.4175,-0.41625 v -4.6175 c 0,-1.18 0.13875,-1.59625 0.52125,-1.97875 0.3475,-0.3475 1.215,-0.625 1.38875,-0.8 0.07,-0.0688 0.105,-0.2775 0.105,-0.45 0,-0.9375 -0.105,-1.66625 -0.20875,-1.77 -0.10375,-0.105 -0.24375,-0.14125 -0.625,-0.14125 h -9.40875 c -0.52125,0 -0.66,0.0362 -0.8,0.175 -0.1375,0.13875 -0.2775,1.07625 -0.2775,1.70125 0,0.17375 0.035,0.38125 0.14,0.485 0.2425,0.24375 1.35375,0.34875 1.90875,0.905 0.3125,0.31 0.52125,0.8675 0.52125,1.7 v 16.21375 c 0,1.18125 -0.20875,1.91 -0.59,2.2925 -0.52125,0.52125 -1.5975,0.73 -1.84,0.9725 -0.105,0.105 -0.14,0.2425 -0.14,0.45125 0,0.90125 0.14,1.80625 0.2775,1.94375 0.14,0.14 0.27875,0.17375 0.8,0.17375 h 9.75625 c 0.45125,0 0.65875,-0.0337 0.79875,-0.17375 0.13875,-0.1375 0.275,-1.0425 0.275,-1.94375"
           style="fill:#ffffff;fill-opacity:1;fill-rule:nonzero;stroke:none" />
        <g
           id="g1551"
           transform="translate(46.209653,-23.182491)"
           style="fill:#ffffff;fill-opacity:1">
          <path
             style="fill:#ffffff;fill-opacity:1;fill-rule:nonzero;stroke:none"
             d="m 116.32812,-160.81055 c -1.90874,0 -3.47265,1.49414 -3.47265,3.36914 0,1.90875 1.56391,3.40235 3.47265,3.40235 1.945,0 3.50782,-1.4936 3.50782,-3.40235 0,-1.875 -1.56282,-3.36914 -3.50782,-3.36914 z m -3.61132,8.12305 c -0.3825,0 -0.51875,6.3e-4 -0.625,0.14062 -0.1375,0.13875 -0.27539,1.07688 -0.27539,1.70313 0,0.1725 0.068,0.30906 0.13671,0.41406 0.24375,0.3125 0.7643,0.41633 1.2168,0.79883 0.31125,0.3125 0.45117,0.97227 0.45117,1.97852 v 9.27148 c 0,1.18125 -0.14078,1.94352 -0.48828,2.29102 -0.52125,0.52125 -1.38836,0.76531 -1.63086,1.00781 -0.0688,0.0712 -0.10351,0.20742 -0.10351,0.45117 0,0.9025 0.13859,1.77266 0.27734,1.91016 0.105,0.10375 0.27891,0.17382 0.66016,0.17382 h 8.92383 c 0.38125,0 0.55445,-0.0701 0.6582,-0.17382 0.13875,-0.1375 0.24414,-1.00766 0.24414,-1.91016 0,-0.24375 -0.0354,-0.37992 -0.10547,-0.45117 -0.2425,-0.2425 -1.04125,-0.48656 -1.5625,-1.00781 -0.34625,-0.3475 -0.45117,-1.10977 -0.45117,-2.29102 v -13.68164 c 0,-0.45 -0.24375,-0.625 -0.625,-0.625 z"
             transform="translate(341.98782,563.08801)"
             id="path1549"
             inkscape:connector-curvature="0" />
        </g>
        <path
           inkscape:connector-curvature="0"
           id="path1553"
           d="m 471.86753,392.60148 c 0,-3.88875 -2.01375,-5.8675 -5.17375,-5.8675 -1.49375,0 -3.09,0.485 -4.6875,1.45875 -0.555,0.3475 -0.72875,0.45125 -0.8675,0.45125 -0.55625,0 -0.17375,-1.425 -1.18125,-1.425 h -6.11 c -0.3825,0 -0.48625,0 -0.625,0.14 -0.17375,0.17375 -0.3125,1.07625 -0.3125,1.7025 0,0.1725 0.035,0.31 0.13875,0.415 0.2775,0.27875 0.79875,0.3825 1.215,0.79875 0.31375,0.3125 0.45,0.9725 0.45,1.97875 v 9.27 c 0,1.18125 -0.10375,1.945 -0.45,2.2925 -0.48625,0.485 -1.31875,0.76375 -1.5625,1.00625 -0.0687,0.0712 -0.105,0.20875 -0.105,0.4525 0,0.9025 0.105,1.77125 0.245,1.90875 0.10375,0.10375 0.31125,0.17375 0.69375,0.17375 h 8.75 c 0.41625,0 0.55375,-0.07 0.6575,-0.17375 0.175,-0.17375 0.315,-1.00625 0.315,-1.90875 0,-0.24375 -0.0362,-0.38125 -0.10625,-0.4525 -0.27625,-0.27625 -1.075,-0.52125 -1.56125,-1.00625 -0.3475,-0.3475 -0.52,-1.11125 -0.52,-2.2925 v -6.83875 c 0,-2.8125 1.56,-3.68 2.7075,-3.68 1.18,0 1.84,0.8675 1.84,2.70625 v 9.62 c 0,2.56875 1.6325,4.26875 4.58375,4.26875 3.2625,0 4.65125,-2.36 4.65125,-2.84625 0,-0.41625 -0.65875,-1.25 -1.075,-1.25 -0.4875,0 -1.18125,0.625 -1.52875,0.625 -0.2425,0 -0.38125,-0.17375 -0.38125,-0.72875 z"
           style="fill:#ffffff;fill-opacity:1;fill-rule:nonzero;stroke:none" />
        <path
           inkscape:connector-curvature="0"
           id="path1555"
           d="m 530.86008,392.60148 c 0,-3.88875 -2.0125,-5.8675 -5.17125,-5.8675 -1.49375,0 -3.09125,0.485 -4.6875,1.45875 -0.55625,0.3475 -0.73125,0.45125 -0.8675,0.45125 -0.55625,0 -0.175,-1.425 -1.18125,-1.425 h -6.11 c -0.3825,0 -0.4875,0 -0.62625,0.14 -0.17375,0.17375 -0.3125,1.07625 -0.3125,1.7025 0,0.1725 0.035,0.31 0.13875,0.415 0.27875,0.27875 0.8,0.3825 1.21625,0.79875 0.31125,0.3125 0.45125,0.9725 0.45125,1.97875 v 9.27 c 0,1.18125 -0.105,1.945 -0.45125,2.2925 -0.4875,0.485 -1.32,0.76375 -1.5625,1.00625 -0.07,0.0712 -0.105,0.20875 -0.105,0.4525 0,0.9025 0.105,1.77125 0.24125,1.90875 0.10625,0.10375 0.315,0.17375 0.69625,0.17375 h 8.74875 c 0.4175,0 0.55625,-0.07 0.66125,-0.17375 0.17375,-0.17375 0.31125,-1.00625 0.31125,-1.90875 0,-0.24375 -0.0337,-0.38125 -0.10375,-0.4525 -0.2775,-0.27625 -1.07625,-0.52125 -1.5625,-1.00625 -0.3475,-0.3475 -0.5225,-1.11125 -0.5225,-2.2925 v -6.83875 c 0,-2.8125 1.56375,-3.68 2.71,-3.68 1.18125,0 1.84,0.8675 1.84,2.70625 v 9.62 c 0,2.56875 1.6325,4.26875 4.58375,4.26875 3.26375,0 4.6525,-2.36 4.6525,-2.84625 0,-0.41625 -0.66,-1.25 -1.07625,-1.25 -0.48625,0 -1.18,0.625 -1.5275,0.625 -0.24375,0 -0.38375,-0.17375 -0.38375,-0.72875 z"
           style="fill:#ffffff;fill-opacity:1;fill-rule:nonzero;stroke:none" />
        <path
           inkscape:connector-curvature="0"
           id="path1557"
           d="m 483.50658,379.72023 h -6.665 c -0.4175,0 -0.59125,0 -0.69375,0.175 -0.14,0.1725 -0.245,1.04125 -0.245,1.63125 0,0.2075 0.0362,0.34625 0.105,0.485 0.2425,0.24375 1.18125,0.48625 1.5975,0.90375 0.34625,0.3475 0.52125,1.04125 0.52125,3.67875 v 13.88875 c 0,2.3275 -0.2425,3.05625 -0.52125,3.33375 -0.48625,0.485 -1.31875,0.76375 -1.5625,1.00625 -0.0687,0.0712 -0.10375,0.20875 -0.10375,0.4525 0,0.9025 0.10375,1.77125 0.2425,1.90875 0.105,0.10375 0.2425,0.17375 0.695,0.17375 h 8.715 c 0.45125,0 0.58875,-0.07 0.69375,-0.17375 0.13875,-0.1375 0.3125,-1.00625 0.3125,-1.90875 0,-0.24375 -0.0337,-0.38125 -0.13875,-0.4525 -0.2425,-0.2425 -1.07625,-0.52125 -1.52875,-1.00625 -0.38,-0.3475 -0.52,-1.11125 -0.52,-2.2925 v -0.7975 c 0,-0.45125 0.14,-0.59125 0.90375,-1.355 0.34625,-0.31125 0.6575,-0.55375 0.9025,-0.55375 0.3475,0 0.62375,0.2425 4.44375,7.95 0.2425,0.48625 0.34625,0.59 0.97125,0.59 h 5.65875 c 0.4175,0 0.5575,-0.07 0.66125,-0.17375 0.13875,-0.1375 0.2775,-1.00625 0.2775,-1.90875 0,-0.24375 -0.0337,-0.38125 -0.105,-0.4525 -0.2425,-0.2425 -1.7,-0.41625 -2.0125,-1.00625 -5.03375,-8.50625 -5.17375,-8.785 -5.17375,-9.305 0,-0.45125 2.2225,-2.6725 4.0625,-4.13125 1.18125,-0.9375 1.94375,-0.31375 1.94375,-1.42375 0,-1.285 -0.1725,-1.7375 -0.41625,-1.7375 h -8.40125 c -0.73,0 -0.79875,0.41625 -0.79875,1.98 0,0.52 1.4575,0.59 1.4575,1.31875 0,0.625 -3.54125,4.02875 -4.13125,4.02875 -0.20875,0 -0.24375,-0.13875 -0.24375,-0.73 v -13.12375 c 0,-0.55625 -0.3825,-0.9725 -0.90375,-0.9725"
           style="fill:#ffffff;fill-opacity:1;fill-rule:nonzero;stroke:none" />
        <path
           d="m 382.07396,411.66984 4.60916,-14.01777 14.756,-0.0518 -11.90738,-8.7153 4.51055,-14.0498 -11.96833,8.63141 -11.96832,-8.63141 4.51055,14.0498 -11.90739,8.7153 14.75601,0.0518 z"
           id="path1559"
           style="fill:#ff0000;stroke-width:0.83824301"
           inkscape:connector-curvature="0" />
        <path
           d="m 531.79115,378.98859 c 0.58365,1e-5 1.1436,0.14666 1.67986,0.43996 0.53624,0.29036 0.95695,0.7081 1.26212,1.25323 0.30811,0.54515 0.46217,1.11547 0.46218,1.71097 -10e-6,0.59255 -0.1511,1.15843 -0.4533,1.69764 -0.29924,0.53625 -0.71846,0.95547 -1.25767,1.25768 -0.53625,0.29923 -1.10065,0.44885 -1.69319,0.44885 -0.59255,0 -1.15843,-0.14962 -1.69764,-0.44885 -0.53625,-0.30221 -0.95547,-0.72143 -1.25768,-1.25768 -0.29923,-0.53921 -0.44885,-1.10509 -0.44885,-1.69764 0,-0.5955 0.15258,-1.16582 0.45774,-1.71097 0.30813,-0.54513 0.73031,-0.96287 1.26657,-1.25323 0.53625,-0.2933 1.0962,-0.43995 1.67986,-0.43996 m 0.005,0.66661 c -0.46812,0 -0.91697,0.11704 -1.34656,0.35108 -0.42959,0.23406 -0.76882,0.57033 -1.0177,1.00881 -0.24591,0.43849 -0.36886,0.8977 -0.36886,1.37766 0,0.477 0.11999,0.93178 0.35998,1.36434 0.24294,0.43255 0.58069,0.7703 1.01325,1.01324 0.43255,0.24295 0.88585,0.36441 1.35989,0.36441 0.47699,0 0.93029,-0.12146 1.35988,-0.36441 0.43256,-0.24294 0.77031,-0.58069 1.01325,-1.01324 0.24294,-0.43256 0.36441,-0.88734 0.36442,-1.36434 -10e-6,-0.47996 -0.12444,-0.93917 -0.3733,-1.37766 -0.24591,-0.43848 -0.58515,-0.77475 -1.0177,-1.00881 -0.4296,-0.23404 -0.87845,-0.35108 -1.34655,-0.35108 m -1.5421,4.55962 v -3.61303 h 0.73327 c 0.68735,0 1.0725,0.003 1.15546,0.009 0.24294,0.0208 0.43107,0.0697 0.56441,0.14665 0.13627,0.0741 0.24886,0.18962 0.33774,0.34665 0.0918,0.15406 0.13776,0.3259 0.13777,0.51551 -10e-6,0.26072 -0.0859,0.48441 -0.25776,0.67105 -0.16888,0.18369 -0.40738,0.29776 -0.7155,0.34219 0.10962,0.0415 0.19406,0.0874 0.25331,0.13777 0.0593,0.0474 0.14074,0.13925 0.24444,0.27554 0.0266,0.0355 0.11554,0.1822 0.26663,0.43996 l 0.42663,0.72883 h -0.90659 l -0.30219,-0.58662 c -0.20443,-0.39404 -0.37331,-0.64143 -0.50662,-0.74217 -0.13333,-0.10369 -0.30221,-0.15553 -0.50663,-0.15553 h -0.1911 v 1.48432 h -0.73327 m 0.73327,-2.05317 h 0.29776 c 0.42366,1e-5 0.68586,-0.0163 0.7866,-0.0489 0.10369,-0.0326 0.18516,-0.0889 0.24442,-0.16887 0.0592,-0.083 0.0889,-0.17628 0.0889,-0.27998 0,-0.10073 -0.0296,-0.18961 -0.0889,-0.26664 -0.0563,-0.08 -0.13777,-0.13629 -0.24442,-0.16888 -0.10666,-0.0355 -0.36886,-0.0534 -0.7866,-0.0534 h -0.29776 v 0.98657"
           id="path1561"
           style="font-style:normal;font-variant:normal;font-weight:bold;font-stretch:normal;font-size:40px;font-family:Arial;-inkscape-font-specification:'Andale Mono Bold';fill:#ffffff;fill-opacity:1;stroke:none"
           inkscape:connector-curvature="0" />
        <path
           style="opacity:1;fill:#ffffff;fill-opacity:1;fill-rule:nonzero;stroke:none"
           d="m 442.55521,386.66443 v 0.002 c -2.41924,0.009 -4.86955,0.97768 -6.70118,2.81054 -1.84,1.84125 -2.98632,4.44383 -2.98632,7.98633 0,3.4025 1.07617,5.76367 2.95117,7.63867 1.875,1.875 4.13511,2.8125 6.73047,2.8125 0.007,0 0.0143,-10e-4 0.0215,-0.002 0.008,5.8e-4 0.0155,0.002 0.0234,0.002 2.59536,0 4.85547,-0.9375 6.73047,-2.8125 1.875,-1.875 2.95117,-4.23617 2.95117,-7.63867 0,-3.5425 -1.14633,-6.14508 -2.98633,-7.98633 -1.83162,-1.83286 -4.28194,-2.80174 -6.70117,-2.81054 v -0.002 c -0.006,0 -0.0117,-2e-5 -0.0176,0 -0.005,-10e-6 -0.0104,0 -0.0156,0 z m 0.0156,3.37109 c 2.69527,0.0142 3.59849,4.781 3.59849,8.14648 -0.0487,4.07917 -1.73728,5.71876 -3.59874,5.73382 -1.86114,-0.0169 -3.54766,-1.65635 -3.59629,-5.73382 0,-3.36464 0.90293,-8.13051 3.59654,-8.14648 z"
           id="path1563"
           inkscape:connector-curvature="0"
           sodipodi:nodetypes="cccssscssscccccccccc" />
      </g>
    </g>
  </g>
</svg>
