<?xml version="1.0" encoding="UTF-8" standalone="no"?>
<!-- Created with Inkscape (http://www.inkscape.org/) -->

<svg
   xmlns:dc="http://purl.org/dc/elements/1.1/"
   xmlns:cc="http://creativecommons.org/ns#"
   xmlns:rdf="http://www.w3.org/1999/02/22-rdf-syntax-ns#"
   xmlns:svg="http://www.w3.org/2000/svg"
   xmlns="http://www.w3.org/2000/svg"
   xmlns:sodipodi="http://sodipodi.sourceforge.net/DTD/sodipodi-0.dtd"
   xmlns:inkscape="http://www.inkscape.org/namespaces/inkscape"
   version="1.0"
   width="800.00031"
   height="208.59799"
   id="svg6297"
   sodipodi:docname="Pfrrt.svg"
   inkscape:version="0.92.5 (2060ec1f9f, 2020-04-08)">
  <metadata
     id="metadata19">
    <rdf:RDF>
      <cc:Work
         rdf:about="">
        <dc:format>image/svg+xml</dc:format>
        <dc:type
           rdf:resource="http://purl.org/dc/dcmitype/StillImage" />
        <dc:title></dc:title>
      </cc:Work>
    </rdf:RDF>
  </metadata>
  <sodipodi:namedview
     pagecolor="#ffffff"
     bordercolor="#666666"
     borderopacity="1"
     objecttolerance="10"
     gridtolerance="10"
     guidetolerance="10"
     inkscape:pageopacity="0"
     inkscape:pageshadow="2"
     inkscape:window-width="1920"
     inkscape:window-height="1029"
     id="namedview17"
     showgrid="false"
     inkscape:zoom="0.62225373"
     inkscape:cx="-2.3545421"
     inkscape:cy="267.27267"
     inkscape:window-x="0"
     inkscape:window-y="25"
     inkscape:window-maximized="1"
     inkscape:current-layer="svg6297" />
  <defs
     id="defs6299" />
  <path
     d="M 0.06250239,208.53549 H 799.93782 V 0.0625 H 0.06250239 Z"
     id="path3502"
     style="fill:#fee102;fill-opacity:1;fill-rule:nonzero;stroke:none;stroke-width:0.99878806"
     inkscape:connector-curvature="0" />
  <path
     d="M 0.06250239,208.53549 H 799.93782 V 0.0625 H 0.06250239 Z"
     id="path3504"
     style="fill:none;stroke:#fee102;stroke-width:0.11249997;stroke-linecap:butt;stroke-linejoin:miter;stroke-miterlimit:4;stroke-dasharray:none;stroke-opacity:1"
     inkscape:connector-curvature="0" />
  <path
     style="fill:#ed1c24;fill-opacity:1;fill-rule:nonzero;stroke:none;stroke-width:0.99878806"
     d="m 372.20312,100.46484 c -0.47987,-0.002 -0.96646,0.007 -1.46093,0.0254 h -82.85352 v 75.11329 h 41.42578 v -23.01758 h 10.16602 l 12.69531,23.01758 h 49.48242 l -18.31054,-24.92188 c 20.42571,-9.85553 19.08783,-50.10019 -11.14454,-50.2168 z m -42.88867,19.08985 h 16.02344 c 14.90721,0 15.14972,13.96289 0.25,13.96289 h -16.27344 z"
     id="path3506"
     inkscape:connector-curvature="0" />
  <path
     d="M 81.863935,175.60401 H 153.72417 V 88.89993 h 551.19692 c 36.0502,-3.81436 28.23552,-52.81631 0,-51.85002 -1.46089,0 -623.057155,0 -623.057155,0 v 138.5541"
     id="path3508"
     style="fill:#ed1c24;fill-opacity:1;fill-rule:nonzero;stroke:none;stroke-width:0.99878806"
     inkscape:connector-curvature="0" />
  <path
     d="M 153.72417,56.48825 V 69.35996 H 627.1076 c 6.82164,-2.38741 6.33967,-11.20235 0,-12.87171 -0.96395,-0.23407 -473.38343,0 -473.38343,0"
     id="path3510"
     style="fill:#fee102;fill-opacity:1;fill-rule:nonzero;stroke:none;stroke-width:0.99878806"
     inkscape:connector-curvature="0" />
  <path
     inkscape:connector-curvature="0"
     style="fill:#ed1c24;fill-opacity:1;fill-rule:nonzero;stroke:none;stroke-width:0.99878806"
     id="path849"
     d="m 178.30083,100.49046 v 75.11355 h 42.15302 v -18.97685 0 -10.00115 h 42.90257 v -18.49787 h -42.63915 v -8.57336 h 44.34851 v -19.06432 h -86.76495"
     sodipodi:nodetypes="ccccccccccccc" />
  <path
     d="m 579.28304,175.60401 v -75.11355 h 81.11503 v 19.19677 h -38.72433 v 55.91678 h -42.3907"
     id="path3520"
     style="fill:#ed1c24;fill-opacity:1;fill-rule:nonzero;stroke:none;stroke-width:0.99878806"
     inkscape:connector-curvature="0" />
  <path
     d="M 672.60953,175.60401 H 713.7878 V 100.48963 H 672.60953 Z"
     id="path3522"
     style="fill:#ed1c24;fill-opacity:1;fill-rule:nonzero;stroke:none;stroke-width:0.99878806"
     inkscape:connector-curvature="0" />
  <path
     inkscape:connector-curvature="0"
     id="path852"
     d="m 505.86403,100.46532 c -0.47987,-0.002 -0.96646,0.007 -1.46093,0.0254 h -82.85352 v 75.11329 h 41.42578 v -23.01758 h 10.16602 l 12.69531,23.01758 h 49.48242 l -18.31054,-24.92188 c 20.42571,-9.85553 19.08783,-50.10019 -11.14454,-50.2168 z m -42.88867,19.08985 h 16.02344 c 14.90721,0 15.14972,13.96289 0.25,13.96289 h -16.27344 z"
     style="fill:#ed1c24;fill-opacity:1;fill-rule:nonzero;stroke:none;stroke-width:0.99878806" />
  <path
     inkscape:connector-curvature="0"
     style="fill:#ed1c24;fill-opacity:1;fill-rule:nonzero;stroke:none;stroke-width:0.99878806"
     id="path854"
     d="m 622.39807,175.60401 v -75.11355 h -81.11503 v 19.19677 h 38.72433 v 55.91678 h 42.3907" />
  <rect
     style="fill:#fee102;fill-opacity:1;stroke:none;stroke-width:3.77952766;stroke-linejoin:round;stroke-opacity:1;paint-order:markers fill stroke"
     id="rect856"
     width="81.250031"
     height="14.204551"
     x="653.97754"
     y="143.25706" />
</svg>
