<?xml version="1.0" encoding="UTF-8" standalone="no"?>
<svg
   xmlns:dc="http://purl.org/dc/elements/1.1/"
   xmlns:cc="http://creativecommons.org/ns#"
   xmlns:rdf="http://www.w3.org/1999/02/22-rdf-syntax-ns#"
   xmlns:svg="http://www.w3.org/2000/svg"
   xmlns="http://www.w3.org/2000/svg"
   xmlns:sodipodi="http://sodipodi.sourceforge.net/DTD/sodipodi-0.dtd"
   xmlns:inkscape="http://www.inkscape.org/namespaces/inkscape"
   viewBox="0 0 90 60"
   version="1.1"
   id="svg4"
   sodipodi:docname="primates.svg"
   inkscape:version="0.92.5 (2060ec1f9f, 2020-04-08)">
  <metadata
     id="metadata10">
    <rdf:RDF>
      <cc:Work
         rdf:about="">
        <dc:format>image/svg+xml</dc:format>
        <dc:type
           rdf:resource="http://purl.org/dc/dcmitype/StillImage" />
        <dc:title></dc:title>
      </cc:Work>
    </rdf:RDF>
  </metadata>
  <defs
     id="defs8" />
  <sodipodi:namedview
     pagecolor="#ffffff"
     bordercolor="#666666"
     borderopacity="1"
     objecttolerance="10"
     gridtolerance="10"
     guidetolerance="10"
     inkscape:pageopacity="0"
     inkscape:pageshadow="2"
     inkscape:window-width="1920"
     inkscape:window-height="1029"
     id="namedview6"
     showgrid="false"
     inkscape:pagecheckerboard="true"
     inkscape:zoom="3.9111111"
     inkscape:cx="-3.9324841"
     inkscape:cy="-36.358781"
     inkscape:window-x="0"
     inkscape:window-y="25"
     inkscape:window-maximized="1"
     inkscape:current-layer="svg4" />
  <g
     id="g929"
     style="fill:#ffffff;fill-opacity:1"
     transform="translate(0,-91.99459)">
    <path
       inkscape:connector-curvature="0"
       id="path905"
       d="m 36.2,118.49459 -2.2,2.2 c 1.5,1.5 2,2.2 2.1,2.9 0.1,-0.1 2.1,-1.8 2.1,-2.4 0,-0.9 -0.6,-1.2 -2,-2.7"
       style="fill:#ffffff;fill-opacity:1" />
    <path
       inkscape:connector-curvature="0"
       id="path903"
       d="m 6.5,131.99378 c 0,0 1.3007813,1.10039 1.3007812,3.40039 v 9 c 0,2.3 0.8984376,2.30078 0.8984376,2.30078 h 3.5605472 c 0,0 -1.161132,-0.90266 -1.359375,-2.56445 v -4.96875 h 2.5 c 0.8,0 3.805113,-0.82614 4.445312,-2.69531 L 14,131.99378 Z m 4.099609,1.5 h 2.300782 c 2,0 2.892187,0.60866 3.085937,1.99219 l -0.25,1.10742 C 15.320845,137.07279 15,137.66175 12.5,137.66175 h -1.599609 v -2.36719 c 0,0 -7.82e-4,-1.40078 -0.300782,-1.80078 z"
       style="fill:#ffffff;fill-opacity:1" />
    <path
       inkscape:connector-curvature="0"
       id="path899"
       d="M 17.845455,136.46562 C 18.201137,135.13152 17.8,131.99459 14,131.99459"
       style="fill:#ffffff;fill-opacity:1" />
    <path
       inkscape:connector-curvature="0"
       id="path897"
       d="m 38.831534,134.89459 c -2.4,0 -3,2.3 -3,2.3 0,0 -0.1,-2.2 -2,-2.2 h -1.9 c 0,0 1.1,0.4 1.1,2.3 v 7 c 0,2.3 0.9,2.4 0.9,2.4 h 3.1 c -0.1,0 -1.2,-0.9 -1.2,-2.4 v -6.2 c 0,-0.3 0.5,-1.2 1.8,-1.2 0.8,0 1.6,0.8 1.6,1.7 v 5.8 c 0,2.4 0.9,2.4 0.9,2.4 h 3.1 c 0,0 -1.2,-0.8 -1.2,-2.4 v -6.2 c 0.1,-0.3 0.5,-1.2 1.7,-1.2 0.9,0 1.7,0.8 1.7,1.7 v 5.8 c 0,2.3 0.9,2.3 0.9,2.3 h 3.1 c 0,0 -1.2,-0.8 -1.2,-2.4 v -6.3 c 0,-2.5 -2,-3.1 -3.5,-3.1 -2,0 -2.6,1.7 -2.8,2.2 -0.3,-1.6 -1.8,-2.3 -3.1,-2.3"
       style="fill:#ffffff;fill-opacity:1" />
    <path
       inkscape:connector-curvature="0"
       id="path895"
       d="m 29.203693,134.99459 h -1.9 c 0,0 1.1,0.5 1.1,2.3 v 7 c 0,2.3 0.9,2.3 0.9,2.3 h 3.1 c 0,0 -1.2,-0.8 -1.2,-2.4 v -6.7 c 0,-2.5 -1.4,-2.5 -2,-2.5"
       style="fill:#ffffff;fill-opacity:1" />
    <path
       inkscape:connector-curvature="0"
       id="path893"
       d="m 20.6,134.99459 h -1.9 c 0,0 1.1,0.4 1.1,2.3 v 7 c 0,2.3 0.9,2.4 0.9,2.4 h 3.1 c -0.1,0 -1.2,-0.9 -1.2,-2.4 v -5.8 c 0.1,-0.5 0.4,-0.9 0.8,-1.2 0.4,-0.3 0.9,-0.4 1.4,-0.4 0.7,0 1.4,0.3 1.9,0.9 v -2 c 0,0 -0.3,-0.8 -1.6,-0.8 -1.9,0 -2.4,2.3 -2.4,2.3 -0.2,-1.8 -0.7,-2.3 -2.1,-2.3"
       style="fill:#ffffff;fill-opacity:1" />
    <path
       inkscape:connector-curvature="0"
       id="path891"
       d="m 63.8,132.29459 c 0,0 -0.7,1.2 -2.1,2.3 -0.9,0.7 -2.7,1.6 -2.7,1.6 h 2 v 8.2 c 0,2.3 0.9,2.3 0.9,2.3 H 65 c 0,0 -1.2,-0.8 -1.2,-2.3 v -8.1 h 0.8 c 1,0 1.8,0.5 1.8,0.5 v -1.8 h -2.6 v -2.7"
       style="fill:#ffffff;fill-opacity:1" />
    <path
       inkscape:connector-curvature="0"
       id="path889"
       d="m 71.5,134.99378 c -3.2,0 -4.900391,3.00117 -4.900391,6.20117 0,3.2 2.09961,5.59961 5.09961,5.59961 2.5,0 3.300781,-0.90039 3.300781,-0.90039 v -1.90039 c -0.7,1.2 -1.600391,1.5 -2.400391,1.5 -0.450358,-10e-4 -0.893506,-0.10252 -1.298828,-0.29883 -1.4,-0.6 -1.601562,-2.40039 -1.601562,-2.40039 1.1,-1.3 2.501172,-1.00039 4.201172,-2.90039 2.4,-2.4 0.699609,-4.90039 -2.400391,-4.90039 z m -0.300781,0.90039 h 0.101562 c 1.6,0 1.199219,2.30117 0.699219,3.20117 -0.7,1.5 -1.700391,1.59844 -2.400391,2.39844 0,0 -0.40039,-5.39961 1.59961,-5.59961 z"
       style="fill:#ffffff;fill-opacity:1" />
    <path
       inkscape:connector-curvature="0"
       id="path885"
       d="m 29.803693,131.19459 c -0.8,0 -1.4,0.6 -1.4,1.4 0,0.8 0.6,1.4 1.4,1.4 0.8,0 1.4,-0.6 1.4,-1.4 0,-0.8 -0.6,-1.4 -1.4,-1.4"
       style="fill:#ffffff;fill-opacity:1" />
    <path
       inkscape:connector-curvature="0"
       id="path883"
       d="m 54.400391,134.99378 c -1.8,0 -2.900391,0.90039 -2.900391,0.90039 v 2 c 0,0 0.600781,-1.59961 2.300781,-1.59961 1.6,0 1.699219,0.79922 1.699219,1.19922 0,0 0.200781,0.50117 -0.199219,1.20117 -0.7,1.3 -6.3,1.50039 -5.5,5.90039 0.3,1.7 1.498438,2.19922 2.898438,2.19922 1.4,0 2.201562,-0.70039 2.601562,-1.40039 0.2,1.3 0.898438,1.40039 0.898438,1.40039 h 3.101562 c 0,0 -1.201172,-0.80078 -1.201172,-2.30078 v -6.59961 c -0.1,-1.7 -1.799218,-2.90039 -3.699218,-2.90039 z m 0.798828,4.80078 v 4.90039 c -0.3,0.3 -0.598828,0.69922 -1.798828,0.69922 -0.7,0 -1.201172,-0.7 -1.201172,-1.5 0,-2.9 2.4,-3.29961 3,-4.09961 z"
       style="fill:#ffffff;fill-opacity:1" />
    <path
       inkscape:connector-curvature="0"
       id="path879"
       d="m 79.8,134.89459 c -1.9,0 -3.5,1.2 -3.5,2.8 0,1.4 0.6,2.3 1.7,3.1 l 1.6,1 c 0.9,0.5 1.2,1.1 1.2,1.7 0,0.8 -0.7,1.9 -2.3,1.9 -1.6,0 -2.3,-1.7 -2.3,-1.7 v 2.1 c 0,0 1.2,0.8 2.9,0.8 2.1,0 4.3,-1.6 4.2,-3.8 0,-0.8 -0.3,-1.5 -0.7,-2 -0.7,-1 -2,-1.6 -3,-2.3 -0.6,-0.4 -0.9,-1 -0.9,-1.2 0,-0.4 0.2,-1.2 1.8,-1.2 1.5,0 2.2,1.6 2.2,1.6 v -2 c 0,0.2 -1.1,-0.8 -2.9,-0.8"
       style="fill:#ffffff;fill-opacity:1" />
    <path
       inkscape:connector-curvature="0"
       id="path877"
       d="M 31.2,114.59459 H 30 c 0,0 1.2,0.7 1.2,2.3 v 5.4 c 0,3.5 2.9,6.8 6.4,6.8 h 2.9 c 1.8,0 2.4,-0.4 3.4,-1.4 l 1.1,-1.1 c 0.6,-0.7 1.3,-1.2 1.3,-3.1 v -1.8 c 0,-1.5 -0.9,-2.2 -1.3,-2.6 l -1,-1 v 3.6 c 0,0 0.7,0.8 1.1,1 1.5,1.2 0.3,3.3 -1.1,3.3 h -6.4 -0.1 c -3,-0.1 -5.4,-2.6 -5.5,-5.6 v -2.9 c 0,-2.9 -0.8,-2.9 -0.8,-2.9"
       style="fill:#ffffff;fill-opacity:1" />
    <path
       inkscape:connector-curvature="0"
       id="path875"
       d="m 40.6,118.49459 -2.2,2.2 c 1.5,1.5 2,2.2 2.1,2.9 0.1,-0.1 2.1,-1.8 2.1,-2.4 0,-0.9 -0.6,-1.3 -2,-2.7"
       style="fill:#ffffff;fill-opacity:1" />
    <path
       inkscape:connector-curvature="0"
       id="path873"
       d="m 45.099609,93.794567 -1.5,1.5 c -0.6,0.6 -0.399218,1.8 0.800782,3 v 3.000003 c 0,0.3 -0.300782,0.59961 -0.300782,0.59961 0,0 -1.80039,-1.59961 -3.40039,-1.59961 h -2.398438 c -1.5,0 -2.70039,1.4 -2.90039,1.5 -0.8,0.8 -0.801172,2.3 -0.201172,3 l 1.701172,1.69922 c 0,0 -0.4,-2.7 0,-4.5 0.1,-0.4 0.599609,-0.89844 1.099609,-0.89844 l 3.900391,3 -4.5,4.69922 c -0.2,0.2 -0.800391,0.59961 -1.400391,0.59961 -0.7,0 -1.000781,-0.39883 -1.300781,-0.79883 v 2.19922 c 0,0.7 1.00039,1.5 1.90039,1.5 h 6 c 0.4,0 0.900782,-0.1 1.300782,-0.5 l 2,-2 c 0.3,-0.3 0.40039,-0.69922 0.40039,-1.19922 v -2.30078 c 0,-2.2 -1.701172,-3.90039 -1.701172,-3.90039 0,0 0.400391,-0.29922 0.400391,-1.19922 v -2.300784 c 0,0 0.700781,0.700001 0.800781,1 l 1.298828,-1.298828 c 0.6,-0.6 -0.398828,-1.701172 -0.798828,-2.201172 -1.2,-1.299999 -1.201172,-2.599609 -1.201172,-2.599609 z m -2.5,10.699223 c 0,0 2.100782,2.20039 2.800782,3.40039 0.3,0.6 0.70039,1.70117 -1.09961,1.70117 h -6.701172 c 0.6,-0.3 0.701172,-0.50156 1.201172,-1.10156 z"
       style="fill:#ffffff;fill-opacity:1" />
    <path
       inkscape:connector-curvature="0"
       id="path869"
       d="m 32.5,104.99459 h -1.1 c 0.7,0.4 1.2,1.6 1.2,2.3 v 4.4 c 0,1.2 0.9,5.5 4.8,5.5 h 11.3 v 7.2 c 0,1.2 -0.4,1.9 -0.7,2.2 l -1.7,1.6 h 0.8 l 3.1,-2.8 c 0.6,-0.7 1.3,-1.4 1.3,-3.6 v -4.6 l 1.3,-1.3 2.2,-2.1 c 0,1.8 0.9,2.6 1.7,2.6 0.444518,-0.0284 0.866838,-0.20435 1.2,-0.5 l 2,-1.9 c 0.9,-0.9 1.4,-3.7 -0.8,-3.7 -1.4,0 -3,2 -3.1,2.2 -0.5,-0.3 -0.9,-1 -0.9,-1 v 1.7 c -0.2,0.3 -1.1,1 -1.8,1 h -1.8 v -1.7 c 0,-0.8 0.3,-1.7 0.7,-2.1 l 1.7,-1.6 h -0.8 l -3.4,3.1 c -0.6,0.7 -1,2 -1,2.3 H 35.9 c -1.6,0 -2.6,-1.6 -2.6,-2.9 v -3.3 c 0,-2.7 -0.7,-3 -0.8,-3"
       style="fill:#ffffff;fill-opacity:1" />
    <path
       inkscape:connector-curvature="0"
       id="path867"
       d="m 58.4,114.59459 c -0.3,0 -0.6,-0.1 -1,-0.4 -0.4,-0.3 -1.1,-1.3 -1.1,-1.3 0.2,-0.2 0.8,-0.4 1.3,-0.4 0.4,0 0.8,0.1 0.9,0.3 0.7,0.9 0.6,1.8 -0.1,1.8"
       style="fill:#ffffff;fill-opacity:1" />
    <path
       inkscape:connector-curvature="0"
       id="path865"
       d="m 53.1,93.794595 -3.4,3.1 c -0.2,0.2 -1,1.4 -1,2.8 v 8.899995 c 0,0.6 -0.4,1.5 -0.7,1.8 l -1.7,1.6 h 0.8 l 3.2,-2.9 c 0.4,-0.4 1.2,-1.4 1.2,-3.1 v -8.499995 c 0,-1.3 0.6,-2 0.9,-2.3 l 1.5,-1.4 h -0.8"
       style="fill:#ffffff;fill-opacity:1" />
    <path
       inkscape:connector-curvature="0"
       id="path817"
       d="m 53.6,116.59459 v 3.5 l 1.2,1.3 c 1,1 0.9,2.9 -2.1,5.8 -1.066835,1.14344 -2.537949,1.82518 -4.1,1.9 h -5.4 l 3.2,2.8 h 2.2 c 2.2,0 4.2,-0.9 5.5,-2.3 1.2,-1.3 1.9,-3 1.8,-4.8 v -4.6 c 0,-1.6 -1,-2.5 -1.2,-2.7 -0.2,0 -1.1,-0.9 -1.1,-0.9"
       style="fill:#ffffff;fill-opacity:1" />
  </g>
</svg>
