<?xml version="1.0" encoding="UTF-8" standalone="no"?>
<!-- Created with Inkscape (http://www.inkscape.org/) -->

<svg
   xmlns:dc="http://purl.org/dc/elements/1.1/"
   xmlns:cc="http://creativecommons.org/ns#"
   xmlns:rdf="http://www.w3.org/1999/02/22-rdf-syntax-ns#"
   xmlns:svg="http://www.w3.org/2000/svg"
   xmlns="http://www.w3.org/2000/svg"
   xmlns:sodipodi="http://sodipodi.sourceforge.net/DTD/sodipodi-0.dtd"
   xmlns:inkscape="http://www.inkscape.org/namespaces/inkscape"
   id="svg2"
   version="1.1"
   inkscape:version="0.92.5 (2060ec1f9f, 2020-04-08)"
   width="400"
   height="220"
   xml:space="preserve"
   sodipodi:docname="ROFLX.svg"><metadata
     id="metadata8"><rdf:RDF><cc:Work
         rdf:about=""><dc:format>image/svg+xml</dc:format><dc:type
           rdf:resource="http://purl.org/dc/dcmitype/StillImage" /><dc:title></dc:title></cc:Work></rdf:RDF></metadata><defs
     id="defs6"><clipPath
       clipPathUnits="userSpaceOnUse"
       id="clipPath162"><path
         d="m 0,841.89 595.276,0 L 595.276,0 0,0 0,841.89 z"
         id="path164"
         inkscape:connector-curvature="0" /></clipPath><clipPath
       clipPathUnits="userSpaceOnUse"
       id="clipPath184"><path
         d="m 0,841.89 595.276,0 L 595.276,0 0,0 0,841.89 z"
         id="path186"
         inkscape:connector-curvature="0" /></clipPath><clipPath
       clipPathUnits="userSpaceOnUse"
       id="clipPath246"><path
         d="m 222.778,717.758 149.701,0 0,80.195 -149.701,0 0,-80.195 z"
         id="path248"
         inkscape:connector-curvature="0" /></clipPath><clipPath
       clipPathUnits="userSpaceOnUse"
       id="clipPath262"><path
         d="m 219.402,600.945 156.472,0 0,198.425 -156.472,0 0,-198.425 z"
         id="path264"
         inkscape:connector-curvature="0" /></clipPath></defs><sodipodi:namedview
     pagecolor="#ffffff"
     bordercolor="#666666"
     borderopacity="1"
     objecttolerance="10"
     gridtolerance="10"
     guidetolerance="10"
     inkscape:pageopacity="0"
     inkscape:pageshadow="2"
     inkscape:window-width="1920"
     inkscape:window-height="1029"
     id="namedview4"
     showgrid="false"
     fit-margin-top="0"
     fit-margin-left="0"
     fit-margin-right="0"
     fit-margin-bottom="0"
     inkscape:zoom="0.77604969"
     inkscape:cx="200.11541"
     inkscape:cy="213.30147"
     inkscape:window-x="0"
     inkscape:window-y="25"
     inkscape:window-maximized="1"
     inkscape:current-layer="g188"
     inkscape:snap-page="true" /><g
     id="g10"
     inkscape:groupmode="layer"
     inkscape:label="RAE_pressrelease_DE_201014"
     transform="matrix(1.25,0,0,-1.25,-278.47262,1117.1975)"><g
       id="g178"
       transform="matrix(2.0590621,0,0,2.0590621,-230.05715,-754.71271)"><g
         id="g188"><g
           id="g190"
           clip-path="none"><rect
             style="opacity:1;fill:#005b31;fill-opacity:1;stroke:none;stroke-width:1.46844637;stroke-linejoin:round;stroke-opacity:1;paint-order:markers fill stroke"
             id="rect4261"
             width="155.41057"
             height="85.475807"
             x="219.92307"
             y="-800.59302"
             transform="scale(1,-1)" /><g
             id="g196"
             transform="matrix(1.2424385,0,0,1.2424385,286.61415,779.09865)"
             style="fill:#c59530;fill-opacity:1"><path
               d="m 0,0 c 0.114,0 0.224,0.018 0.328,0.045 l 3.775,-12.829 h 0.003 c 0.42,-1.433 2.505,-2.519 5.012,-2.519 2.51,0 4.593,1.086 5.015,2.519 h 0.001 L 17.907,0.035 C 17.998,0.015 18.094,0 18.193,0 c 0.734,0 1.329,0.594 1.329,1.327 0,0.733 -0.595,1.328 -1.329,1.328 -0.73,0 -1.326,-0.595 -1.326,-1.328 0,-0.527 0.309,-0.981 0.753,-1.193 L 13.249,-9.238 13.952,3.39 h 0.03 c 0.731,0 1.325,0.593 1.325,1.325 0,0.733 -0.594,1.326 -1.325,1.326 -0.733,0 -1.328,-0.593 -1.328,-1.326 0,-0.606 0.408,-1.114 0.958,-1.273 L 10.702,-8.902 9.3,4.7 c 0.644,0.094 1.137,0.645 1.137,1.315 0,0.73 -0.593,1.324 -1.326,1.324 C 8.376,7.339 7.784,6.745 7.784,6.015 7.784,5.345 8.283,4.79 8.928,4.7 L 7.528,-8.878 4.625,3.439 c 0.558,0.159 0.97,0.667 0.97,1.276 0,0.733 -0.594,1.326 -1.329,1.326 -0.731,0 -1.327,-0.593 -1.327,-1.326 0,-0.732 0.596,-1.325 1.327,-1.325 h 0.02 L 4.989,-9.233 0.609,0.151 C 1.036,0.371 1.328,0.815 1.328,1.327 1.328,2.06 0.733,2.655 0,2.655 -0.733,2.655 -1.325,2.06 -1.325,1.327 -1.325,0.594 -0.733,0 0,0 m 9.097,-11.706 c 2.295,0 4.158,-0.586 4.158,-1.307 0,-0.723 -1.863,-1.306 -4.158,-1.306 -2.297,0 -4.157,0.583 -4.157,1.306 0,0.721 1.86,1.307 4.157,1.307"
               style="fill:#c59530;fill-opacity:1;fill-rule:nonzero;stroke:none"
               id="path198"
               inkscape:connector-curvature="0" /></g><g
             id="g4240"
             transform="translate(0,48.681459)"
             style="fill:#ffffff"><g
               id="g4208"
               transform="matrix(1.2424385,0,0,1.2424385,279.70682,696.93801)"
               style="fill:#ffffff"><path
                 d="m 0,0 c -3.807,0 -6.89,-3.09 -6.89,-6.798 0,-3.711 3.083,-6.797 6.89,-6.797 3.803,0 6.887,3.086 6.887,6.797 C 6.887,-3.09 3.803,0 0,0 M 2.863,-10.724 C 2.649,-11.045 2.382,-11.329 2.069,-11.562 1.562,-11.964 0.98,-12.201 0.363,-12.226 0.244,-12.238 0.121,-12.245 0,-12.245 c -0.125,0 -0.249,0.007 -0.368,0.019 -0.615,0.025 -1.196,0.262 -1.706,0.664 -0.312,0.233 -0.58,0.517 -0.793,0.838 -0.715,0.986 -1.162,2.375 -1.162,3.914 0,1.444 0.395,2.757 1.036,3.727 0.355,0.639 0.919,1.149 1.607,1.445 0.004,0.002 0.011,0.004 0.016,0.007 0.032,0.014 0.064,0.028 0.098,0.039 0.091,0.037 0.185,0.072 0.28,0.098 0.312,0.091 0.647,0.14 0.992,0.14 0.343,0 0.677,-0.049 0.989,-0.14 0.095,-0.026 0.189,-0.061 0.278,-0.097 0.034,-0.012 0.066,-0.026 0.1,-0.04 0.007,-0.003 0.01,-0.005 0.017,-0.007 0.684,-0.296 1.251,-0.806 1.606,-1.445 0.641,-0.971 1.036,-2.284 1.036,-3.727 0,-1.539 -0.448,-2.928 -1.163,-3.914"
                 style="fill:#ffffff;fill-opacity:1;fill-rule:nonzero;stroke:none"
                 id="path4206"
                 inkscape:connector-curvature="0" /></g><g
               style="fill:#ffffff;fill-opacity:1"
               id="g4216"
               transform="matrix(1.2424385,0,0,1.2424385,305.98737,696.33629)"><path
                 sodipodi:nodetypes="cccccccccccccccccccccsscsccccccccccccccscccccccccccccccc"
                 d="m 0,0 h -0.012 -0.063 -2.955 -9.512 v -0.958 h 1.812 v -10.768 h -1.812 v -0.96 -0.002 h 6.093 l 0.012,0.96 h -0.012 v -0.003 0 0.003 h -1.284 -0.036 v 5.174 0.171 h 0.96 c 0.008,0 0.017,-0.002 0.026,-0.002 h 0.534 c 0.86,-0.008 1.552,-0.704 1.552,-1.566 v -0.033 -0.497 -0.204 h 0.876 v 0.129 2.173 0.007 0.777 0.006 2.172 0.045 h -0.873 v -0.615 h -0.003 c 0,-0.012 0.003,-0.024 0.003,-0.035 0,-0.86 -0.692,-1.474 -1.555,-1.482 h -0.56 -0.595 -0.365 v 4.55 h 0.036 2.734 0.046 1.947 c 1.157,-0.005 2.095,-0.943 2.112,-2.098 V -4.359 H 0.068 V -3.131 -0.006 0 Z"
                 style="fill:#ffffff;fill-opacity:1;fill-rule:nonzero;stroke:none"
                 id="path4214"
                 inkscape:connector-curvature="0" /></g><g
               id="g4220"
               transform="matrix(1.2424385,0,0,1.2424385,343.74545,681.71875)"
               style="fill:#ffffff"><path
                 d="m 0,0 c -0.923,0.024 -1.137,0.31 -1.848,1.124 l -4.2,5.227 2.776,3.318 V 9.666 c 0.748,0.853 0.952,1.144 1.91,1.163 h 0.592 0.13 v 0.926 H -0.77 -3.498 -3.626 -5.63 -5.756 v -0.926 h 0.126 1.002 v -0.003 h 0.002 c 0.243,0 0.437,-0.195 0.437,-0.434 0,-0.094 -0.03,-0.181 -0.083,-0.253 L -6.731,7.202 -8.666,9.609 -9.071,10.12 c -0.059,0.075 -0.102,0.169 -0.102,0.271 0,0.24 0.196,0.435 0.437,0.438 h 1.1 v 0.926 h -1.956 -2.86 -1.586 v -0.926 h 0.302 c 0.818,-0.039 1.052,-0.319 1.695,-1.054 L -8.323,5.151 -11.67,1.155 -11.671,1.162 C -12.418,0.31 -12.622,0.017 -13.585,0 h -0.581 -0.2 v -0.926 h 0.2 3.165 0.199 1.713 0.198 V 0 h -0.198 -1.147 v 0.002 c -10e-4,0 -10e-4,-0.001 -0.003,-0.001 -0.242,0 -0.438,0.195 -0.438,0.438 0,0.103 0.039,0.196 0.099,0.27 l 2.972,3.548 2.469,-3.076 0.378,-0.471 c 0.056,-0.075 0.095,-0.166 0.095,-0.27 0,-0.242 -0.194,-0.438 -0.435,-0.438 0,0 0,0.001 -0.003,0.001 V 0.001 H -6.286 V -0.925 H -6.28 V -0.926 H 0.616 V 0 Z"
                 style="fill:#ffffff;fill-opacity:1;fill-rule:nonzero;stroke:none"
                 id="path4218"
                 inkscape:connector-curvature="0" /></g><g
               id="g4224"
               transform="matrix(1.2424385,0,0,1.2424385,268.44423,681.7943)"
               style="fill:#ffffff"><path
                 d="M 0,0 -0.839,2.437 C -1.23,3.521 -1.511,4.008 -2.124,4.57 -2.527,4.931 -3.09,5.106 -3.507,5.226 c 1.558,0.247 2.749,1.602 2.749,3.23 0,1.803 -1.463,3.27 -3.272,3.27 -0.018,0 -0.037,-0.002 -0.06,-0.002 v 0.002 h -4.921 -2.962 -1.783 v -0.953 h 1.783 V -0.006 h -1.817 v -0.958 h 4.754 1.85 v 0.958 h -1.825 v 5.177 h 1.417 c 0.046,0 0.086,-0.002 0.131,-0.004 h 0.288 c 0.451,-0.016 0.842,-0.083 1.196,-0.184 0.327,-0.082 0.673,-0.198 0.904,-0.346 0.314,-0.201 0.646,-0.483 0.939,-0.986 0.078,-0.132 0.144,-0.266 0.207,-0.401 0.541,-1.015 0.865,-2.42 1.225,-4.208 h 2.179 V -0.961 H 1.442 V 0 Z m -5.916,6.136 h -3.087 v 4.639 h 3.087 c 1.328,-0.051 2.391,-0.974 2.391,-2.317 0,-1.345 -1.062,-2.265 -2.391,-2.322"
                 style="fill:#ffffff;fill-opacity:1;fill-rule:nonzero;stroke:none"
                 id="path4222"
                 inkscape:connector-curvature="0" /></g><g
               transform="matrix(1.2424385,0,0,1.2424385,323.38313,686.73187)"
               id="g4228"
               style="fill:#ffffff"><path
                 inkscape:connector-curvature="0"
                 id="path4226"
                 style="fill:#ffffff;fill-opacity:1;fill-rule:nonzero;stroke:none"
                 d="m 0,0 h -0.958 v -1.916 c -0.026,-1.147 -0.965,-2.071 -2.119,-2.071 -0.003,0 -0.009,0.002 -0.012,0.002 v -0.004 h -2.92 -1.108 V 6.775 h 1.846 v 0.961 h -1.846 -0.205 -4.605 V 6.775 h 1.847 V -3.989 h -1.847 V -4.948 H -0.958 -0.146 -0.068 0 v 0.003 h 0.004 v 3.133 H 0 Z" /></g></g></g></g></g></g></svg>