<?xml version="1.0" encoding="UTF-8" standalone="no"?>
<!-- Created with Inkscape (http://www.inkscape.org/) -->

<svg
   xmlns:dc="http://purl.org/dc/elements/1.1/"
   xmlns:cc="http://creativecommons.org/ns#"
   xmlns:rdf="http://www.w3.org/1999/02/22-rdf-syntax-ns#"
   xmlns:svg="http://www.w3.org/2000/svg"
   xmlns="http://www.w3.org/2000/svg"
   xmlns:sodipodi="http://sodipodi.sourceforge.net/DTD/sodipodi-0.dtd"
   xmlns:inkscape="http://www.inkscape.org/namespaces/inkscape"
   version="1.1"
   id="svg2"
   xml:space="preserve"
   width="257.33334"
   height="257.33334"
   viewBox="0 0 257.33334 257.33334"
   sodipodi:docname="uliq-Moly.svg"
   inkscape:version="0.92.5 (2060ec1f9f, 2020-04-08)"><metadata
     id="metadata8"><rdf:RDF><cc:Work
         rdf:about=""><dc:format>image/svg+xml</dc:format><dc:type
           rdf:resource="http://purl.org/dc/dcmitype/StillImage" /><dc:title></dc:title></cc:Work></rdf:RDF></metadata><defs
     id="defs6" /><sodipodi:namedview
     pagecolor="#ffffff"
     bordercolor="#666666"
     borderopacity="1"
     objecttolerance="10"
     gridtolerance="10"
     guidetolerance="10"
     inkscape:pageopacity="0"
     inkscape:pageshadow="2"
     inkscape:window-width="1920"
     inkscape:window-height="1029"
     id="namedview4"
     showgrid="false"
     inkscape:pagecheckerboard="true"
     inkscape:zoom="0.6484865"
     inkscape:cx="28.91639"
     inkscape:cy="-73.071361"
     inkscape:window-x="0"
     inkscape:window-y="25"
     inkscape:window-maximized="1"
     inkscape:current-layer="g10" /><g
     id="g10"
     inkscape:groupmode="layer"
     inkscape:label="ink_ext_XXXXXX"
     transform="matrix(1.3333333,0,0,-1.3333333,0,257.33333)"><path
       inkscape:connector-curvature="0"
       id="path14"
       style="fill:#ffffff;fill-opacity:1;fill-rule:evenodd;stroke:none;stroke-width:0.1"
       d="M 0,192.756 H 192.756 V 0 H 0 v 192.756" /><g
       id="g911"
       transform="translate(354.10601)"><path
         inkscape:connector-curvature="0"
         id="path864"
         style="fill:#ffffff;fill-opacity:1;fill-rule:evenodd;stroke:none;stroke-width:0.1"
         d="m -339.39576,153.405 h 163.3358 c 3.427,0 6.206,-2.778 6.206,-6.206 V 45.5574 c 0,-3.4277 -2.779,-6.2062 -6.206,-6.2062 h -163.3358 c -3.4282,0 -6.20629,2.7785 -6.20629,6.2062 V 147.199 c 0,3.428 2.77809,6.206 6.20629,6.206" /><path
         inkscape:connector-curvature="0"
         id="path866"
         style="fill:#ed1c24;fill-opacity:1;fill-rule:evenodd;stroke:none;stroke-width:0.1"
         d="M -344.68057,96.4488 V 46.0391 c 0,-2.9555 2.42541,-5.5383 5.38011,-5.5383 l 163.0015,-0.0043 c 2.965,0 5.401,2.7055 5.401,5.659 l 0.001,50.289 -173.78361,0.0043" /><path
         inkscape:connector-curvature="0"
         id="path868"
         style="fill:#ffffff;fill-opacity:1;fill-rule:evenodd;stroke:none;stroke-width:0.1"
         d="m -236.11296,90.5965 h 12.404 V 57.1547 h 14.836 V 46.575 h -27.24 v 44.0215" /><path
         inkscape:connector-curvature="0"
         id="path870"
         style="fill:#ffffff;fill-opacity:1;fill-rule:evenodd;stroke:none;stroke-width:0.1"
         d="m -217.26396,90.5965 h 14.35 l 7.539,-13.0121 7.297,13.0121 h 14.35 l -15.81,-23.4699 V 46.575 h -11.795 v 20.5516 l -15.931,23.4699" /><path
         inkscape:connector-curvature="0"
         id="path872"
         style="fill:#ffffff;fill-opacity:1;fill-rule:evenodd;stroke:none;stroke-width:0.1"
         d="m -334.97896,90.5965 h 10.823 l 11.6742,-16.6606 11.4313,16.6606 h 10.9441 V 46.575 h -10.9441 v 28.0914 l -10.4586,-13.9848 h -1.9453 l -10.7016,13.9848 V 46.575 h -10.823 v 44.0215" /><path
         inkscape:connector-curvature="0"
         id="path874"
         style="fill:#ffffff;fill-opacity:1;fill-rule:evenodd;stroke:none;stroke-width:0.1"
         d="m -287.60476,68.5855 c 0,12.9625 10.9429,23.4704 24.4426,23.4704 13.5002,0 24.4432,-10.5079 24.4432,-23.4704 0,-12.9621 -10.943,-23.4699 -24.4432,-23.4699 -13.4997,0 -24.4426,10.5078 -24.4426,23.4699" /><path
         inkscape:connector-curvature="0"
         id="path876"
         style="fill:#ed1c24;fill-opacity:1;fill-rule:evenodd;stroke:none;stroke-width:0.1"
         d="m -274.71496,68.5855 c 0,7.0524 5.1723,12.7688 11.5528,12.7688 6.38,0 11.5522,-5.7164 11.5522,-12.7688 0,-7.0519 -5.1722,-12.7683 -11.5522,-12.7683 -6.3805,0 -11.5528,5.7164 -11.5528,12.7683" /><path
         inkscape:connector-curvature="0"
         id="path878"
         style="fill:#2056ae;fill-opacity:1;fill-rule:evenodd;stroke:none;stroke-width:0.1"
         d="m -339.08646,152.323 c -3.0894,0 -5.59411,-2.505 -5.59411,-5.594 V 96.4488 l 173.78361,-0.0043 -0.001,50.2795 c 0,3.089 -2.545,5.608 -5.646,5.608 l -162.5425,-0.009" /><path
         inkscape:connector-curvature="0"
         id="path886"
         style="fill:#ffffff;fill-opacity:1;fill-rule:evenodd;stroke:none;stroke-width:0.1"
         d="m -334.97896,146.293 h 12.281 v -27.727 c 0,-4.164 3.594,-7.54 8.026,-7.54 4.434,0 8.027,3.376 8.027,7.54 v 27.727 h 12.16 l 0.039,-31.74 c 0,0 -0.039,-13.62 -20.226,-13.62 -20.186,0 -20.307,13.62 -20.307,13.62 v 31.74" /><g
         transform="translate(67.127511)"
         id="g896"><path
           d="m -305.99546,146.293 h 12.404 v -44.022 h -12.404 v 44.022"
           style="fill:#ffffff;fill-opacity:1;fill-rule:evenodd;stroke:none;stroke-width:0.1"
           id="path880"
           inkscape:connector-curvature="0" /><path
           d="m -334.97896,146.293 h 11.2293 v -33.564 h 14.7144 v -10.458 h -25.9437 v 44.022"
           style="fill:#ffffff;fill-opacity:1;fill-rule:evenodd;stroke:none;stroke-width:0.1"
           id="path884"
           inkscape:connector-curvature="0" /><path
           style="fill:#ffffff;fill-opacity:1;fill-rule:evenodd;stroke:none;stroke-width:0.13333333"
           d="m -354.19141,60.316406 c -17.99946,0 -32.59179,14.010923 -32.59179,31.294922 0,17.282662 14.59233,31.294922 32.59179,31.294922 5.2516,0 10.21227,-1.19383 14.60547,-3.3125 l 6.60938,7.21484 11.83594,-5.83593 -8.4004,-8.89063 c 4.94667,-5.488 7.93946,-12.644035 7.93946,-20.470702 0,-17.283999 -14.58998,-31.294922 -32.58985,-31.294922 z m 0,14.269532 c 8.50734,-10e-7 15.4043,7.622724 15.4043,17.02539 0,3.077333 -0.84303,5.953313 -2.13477,8.445312 l -4.94531,-5.027343 -10.7832,5.513673 6.67383,7.375 c -1.34054,0.44667 -2.73405,0.71875 -4.21485,0.71875 -8.50773,0 -15.40429,-7.62273 -15.40429,-17.025392 0,-9.402666 6.89656,-17.02539 15.40429,-17.02539 z"
           transform="matrix(0.75000002,0,0,-0.75000002,0,193)"
           id="path888"
           inkscape:connector-curvature="0" /></g></g></g></svg>