<!-- Created with Inkscape (http://www.inkscape.org/) -->
<svg width="3200" height="3200" version="1.1" viewBox="0 0 846.67 846.67" xmlns="http://www.w3.org/2000/svg">
 <defs>
  <style>svg &gt; g{ opacity: 0}
    svg &gt; g:target {opacity: 1;}</style>
 </defs>
 <g id="world">
  <path d="m700.31 177.04 0.15736 4.5007 0.39524 4.4201 1.2623 7.7314 2.6053 0.23787 0.87095 5.9242 0.78659 3.3918 2.682 6.3079 2.7625 3.5568 2.6858 2.6858 6.3117 5.1261 6.4767 4.8115 4.5736 2.6052 10.893 4.5007 14.914 5.5251 7.8925 1.8954 11.76 1.2623 10.34 0.39138 6.1582-0.39138 5.9971-0.23403 5.4484-1.4235 4.8919-2.3712 4.4163-3.2307 3.3957-3.7103 2.2906-3.4762 1.7343-3.8637 1.1855-4.3396 0.15736-5.1337-1.0283-12.151-8.3644-83.583-0.78657-9.3889-1.976-8.8402-1.3429-6.634-3.4724-13.256-5.2835-11.526-5.4484-8.9937-5.6825-9.3121-7.106-7.8158-8.3606-8.5294-1.3468 0.87097-7.4934-7.0215-4.8153-3.7141-4.5007-2.4403-5.1299-2.8431-4.5775-2.0489-11.683 1.0244-2.7588 2.6053-17.285 13.567 2.1295-0.78657 4.0249-1.2623 3.8676-1.1818 2.9199 0.39137 4.8153 1.105 4.3395 1.8992 37.648 30.146 20.282 25.101 2.9237 5.2105 1.2623 3.8638 0.55252 4.2589 8.2838 71.036 1.0322 9.6268-1.0322 8.1304-1.7342 6.6263-3.4724 7.739-5.2872 6.8642-4.658 4.5007-5.3639 3.3918-5.9971 2.4518-5.3716 1.6499-6.8642 0.87096-5.2872-0.15356-5.763-0.79041-9.2315-3.5568-9.788-3.7832-6.6301-4.0287-5.0532-3.6297-5.2067-6.3884-2.8393-4.0288 2.0489-10.816-0.94777-5.0493-0.39518-3.154 0.0767-3.0043 0.16116-4.1822 1.3429-4.8115 1.5808-4.1016 3.5491-6.4728 8.445-13.026 3.3918-5.7592 1.7381-4.4163 0.79035-3.1578-0.0805-4.1861-0.70983-2.7664-1.5808-3.3112-1.4196-2.0528-1.1818-1.105-2.1295-0.94388-2.0565-0.31846-1.8916 0.6331-2.9199 2.6052-3.9443 5.6824-8.7635 15.071-5.0494 9.3927-7.5011 15.229 1.0283 2.847-1.105 2.7933-0.90935 3.0196z" style="fill-rule:evenodd;fill:#f5e8c5"/>
  <path d="m16.951 712.7 2.2714 0.0144 0.41054 9.9682-0.97072 10.149 1.3314 8.8978 3.3496 10.92 4.2398 8.092 4.3932 6.7031 5.3026 6.3539 7.5472 5.6556 6.0892 4.1055 8.1189 5.6479 9.3582 6.6493 12.121 6.8258 7.4436 2.7703 11.691 2.2062 8.115-0.32996 5.1376-0.63314 7.5126-3.6795 3.6757-3.0388 4.9496-8.5793 3.622-13.122-4.4469-3.1309-4.0671 4.6733-5.8244 4.2896-5.3256 2.2983-4.5928 1.2317-5.364 0.87476-6.9946-0.24937-5.3486-1.1127-7.574-2.939-26.67-17.723-7.1213-7.8541-5.9357-8.9016-4.1323-8.6369-2.0335-6.4652-1.3813-7.5242-0.45659-7.6929-2.6436-0.0498 0.08047-5.7477 0.56403-5.4599 1.3966-5.859 3.2268-9.385 3.2153-7.1021 24.414-37.555-12.589-8.1304-0.87864 0.69833-11.841 18.878-9.8378 14.219-4.6273 7.5088-4.2091 8.9821-1.5885 7.2019-2.1487 12.186z" style="fill-rule:evenodd;fill:#f5e8c5"/>
  <path d="m381 488 5.0532 10.893 15.47-8.679 7.8925-6.162 7.1021-6.941 3.3151-2.6858 2.0528 1.4158 33.147-26.828 10.091-6.8642-2.6513-46.745-22.592-13.797-8.0498-5.8359-0.9477 10.889 0.15736 14.998-0.63313 14.047-1.8954 12.946-4.4162 13.256-5.2067 11.841-5.2143 8.2109-9.6268 10.732-11.208 9.3121z" style="fill-rule:evenodd;fill:#f5e8c5"/>
  <path d="m679.87 152.82 2.5285-0.85563 2.3942-0.0575 3.4609 0.20718 1.7343 0.56403 2.9544-6.8565 2.9007-5.8052 4.2397-7.5894 4.7462-8.2033 12.888-17.581 4.4661 4.0211 1.1127-2.3444 1.3429-0.94772 2.0105-1.0091 3.5146-0.89016 3.906 0.16876 3.7409 0.38754 3.457 1.1741 3.0158 2.118 2.3443 2.5669 2.5669 3.9098 1.5616 4.4662 1.2278 4.5736 0.61391 4.9649-0.55635 5.8091-0.76348 3.6412-1.1818 2.6551-1.3199 2.4211 25.811 4.3395 2.1755-17.746 0.16875-4.5237-0.28012-4.4086-0.61393-3.457-0.7788-3.6834-1.2278-3.1846-1.8992-3.457-3.6375-5.6786-3.4493-4.0901 1.7841-1.2278-4.7999-5.3563-5.1338-4.1285-3.3495-2.0681-5.1914-2.4556-3.902-1.5616-5.1914-1.0053-5.8627-0.32998-4.1285 0.21487-3.8484 1.2892-7.8695 4.5199-1.0628-2.2906-7.0292 4.6887-4.8 4.351-4.0172 4.1323-3.7985 4.4086-2.8432 4.9649-3.1271 6.2004-1.8992 5.3563-1.4465 5.1913-2.9045-0.44895-1.8418 8.6484-1.953 18.866z" style="fill-rule:evenodd;fill:#f5e8c5"/>
  <path d="m384.28 555.55 5.8244 3.012 5.8398 4.7385 5.5251 5.6057 3.3151 4.1822 2.9199 4.8153 2.4441-45.625 0.70983-8.5217 1.3429-5.8398 2.2101-5.9971 1.5002-3.3957 3.2383-4.7348 2.6014-3.787 3.1578-3.9444 3.9444-4.2628 4.1093-3.7103 6.5458-4.0287 5.8436-3.7871 5.9165-3.9443 3.269-1.8456-1.5962-14.626-5.9318 5.341-8.7635 6.8681-10.256 8.2876-2.2906 1.7343-3.2384 3.0043-2.9966 3.3112-6.2349 5.9971-1.9722-0.706-9.5501 7.7314-4.9726 4.5812-2.2906 3.3113-1.8839 2.6359-3.7333 9.3159-3.6259 0.23404z" style="fill-rule:evenodd;fill:#f5e8c5"/>
  <path d="m320.34 661.05 1.7803 10.352 5.3755 1.6114 9.3275 5.3564 6.7798 0.54099 15.75 1.293 27.403-0.36065 24.395 1.7956 7.6738-49.177-6.8527-0.28388-2.471 7.4205-2.3981 6.492-4.1707 5.2949-5.1031 4.9304-3.6642 2.0451-5.2258 3.2844-4.6081 1.5923-5.0455 1.1511-7.129 1.1434-13.161-1.0092-20.067-1.5769z" style="fill-rule:evenodd;fill:#f5e8c5"/>
  <path d="m104.61 714.83 16.656 26.574 16.295-82.205-0.0422-4.4432-10.479-1.5041-8.2416 2.2485-4.9458 8.1304-2.2638 5.8704-1.7726 7.1289-4.8959 26.996z" style="fill-rule:evenodd;fill:#f5e8c5"/>
  <path d="m377.57 559.44 2.7281 46.181 0.37214 0.14959 0.76355 0.59087 0.47194 2.4288 0.43742 6.1352-0.16496 4.1093-0.51794 4.754-0.48342 6.2694 20.55 0.83261 3.3726 0.23023 1.692-13.491 0.95152-11.553 0.19953-6.8259-0.92849-6.2771-0.56401-3.0887-1.7842-5.3563-2.7356-5.0801-2.9008-4.4047-3.1846-3.741-4.7961-4.5199-6.5764-4.7155-2.5745-1.6921-3.6297-1.7957-0.54868-0.39518z" style="fill-rule:evenodd;fill:#f5e8c5"/>
  <path d="m121.24 565.3 0.72133 1.0858 71.903-33.473-3.0312-8.399-33.96 11.357-0.26476 2.751-8.1572 1.7419-6.5074 2.045-17.703 7.8043z" style="fill-rule:evenodd;fill:#f5e8c5"/>
  <path d="m419.38 271.37 0.71749 4.8536-0.17273 0.91319 5.5827 1.8954 2.2293-3.6297 2.0105-2.1179 1.8992-1.3391 2.5093-1.1166 3.2959-0.6714 4.516 0.0536 3.741-0.60627 2.0642-0.89782 2.2906-1.6729 2.3444-1.8456 1.9491-1.8379 1.6767-2.0642 6.8642-15.236-3.104-3.9443-2.2522-2.8662-2.5132 1.0628-2.7318 1.7266-3.0695 1.5693-3.906 1.669-3.4071 0.11129-2.2868 0.50647-14.511 11.94-2.5669 2.3981-1.976 4.3203z" style="fill-rule:evenodd;fill:#f5e8c5"/>
  <path d="m263.34 333.89 115.76 67.664 0.23782-7.2594 7.5548-130.35 0.46047-1.6959 0.90169-16.51 2.8048-46.756 0.24939-3.2307 0.81344-2.6283 12.681-20.29 106.86-165.63 5.0034-8.2186 0.89396-2.824 0.17654-2.2906-0.10737-4.6081-0.42205-1.7343-1.1664-2.8393-5.4369-6.5534-8.2301-9.9567-1.0399-2.1218-0.53331-2.2753 0.17654-1.9069 0.51418-2.0451 0.72513-1.5923 1.6921-2.3866 61.962-47.389 52.903-39.804 9.7112-7.3093 2.0834-2.1525 2.3635-4.2014 1.2355-3.4992 0.56791-3.388-0.56791-3.7064-1.5155-3.9904-25.957-47.785-11.123-21.222-2.2945-5.6134 0.14199-1.1012 0.56018-0.38369 0.74052 0.16115 1.953-2.0949-0.34146-4.5506 0.0843-3.6527 0.43743-2.9122 0.52175-1.9914-1.1664-1.7458-40.299 29.325-3.4609 3.388-22.223 33.887-16.126 27.422-11.726 19.349-2.1908 4.9419-2.751 7.0637-19.346 72.402-11.983 43.863-14.914 61.628-3.9827 8.0767-10.452 14.465z" style="fill-rule:evenodd;fill:#ccebb0"/>
  <path d="m583.72 855.67 76.569-6.7222 0.73671 9.4349 30.718-0.45664 9.857 0.39908 8.069 1.1434 8.3068 2.6781 5.011 2.1065 6.5112 2.4057 3.8139 1.1051 5.8743-0.42977 6.6531-1.1856 5.1414-1.9376 6.4269-3.7409 5.6632-2.9852 18.713-20.332 21.989-25.615 3.6988-2.1832 5.3525 1.1127 8.5449 2.8393 5.2949-2.2216 3.0541-10.778 3.5875-10.191 0.0728-8.4412-4.8766-4.8575-61.552-26.797-17.565-5.176-42.102-2.045-9.293-0.45657-0.41822 16.092-102.39 9.6191z" style="fill-rule:evenodd;fill:#ccebb0"/>
  <path d="m131.78 505.15 2.5784-0.56785 3.388-0.42592 0.62158-0.54098 1.27-0.49881 1.7842-0.36831 4.7309-0.0344 2.5093 0.0691 3.4264-0.28013 2.1525-0.56783 2.118-0.84414 73.288-31.815 2.1487-0.4221 145.11-66.896 1.201-1.0552 0.42204-0.99371 0.57558-17.496-115.76-67.664-61.974 93.636-57.5 87.124-5.1683 4.8729z" style="fill-rule:evenodd;fill:#ccebb0"/>
  <path d="m379.25 927.62 38.622 2.7279 4.5467-0.95147 4.8651-2.8048 20.792-19.158 10.302-8.3376 11.277-7.808 8.069-3.9674 7.3707-1.7534 14.995-2.0643 14.477-3.7333 47.447-17.159 7.8925-3.6796 6.7107-0.95543 6.7184-58.067-188.16 7.0138z" style="fill-rule:evenodd;fill:#ccebb0"/>
  <path d="m879.67 628.59 0.36065 5.575 44.807-5.3256 17.692-1.976 6.3731-0.61774 5.5136 0.68678 15.532 10.091 27.369-5.0417 81.553-64.809-10.413-134.91-27.488 36.93-55.804 66.739-70.729 74.647-9.5539 8.4949-13.798 2.118-8.9169 0.85174-1.9875 3.5645-0.33001 0.78658z" style="fill-rule:evenodd;fill:#ccebb0"/>
  <path d="m841.59 24.213 1.6882 22.131 3.177 20.934 6.0508 18.455 11.215 21.433 1.4504 2.3328-1.9108 16.414-1.5424 13.962 0.57167 0.50265 67.614 14.818 9.032-23.221-2.778-5.7553-21.137-4.2666 0.39913-29.866 4.5274 0.69064 0.20725-10.172-10.168 1.623-1.2739-5.364 24.291-4.3894 6.6915-0.75204 4.8076 1.3199 10.041-12.455 10.425-0.14199 6.446-3.8714 2.0066-5.222v-6.8335l-3.6335-4.1554-4.4201-3.2153-7.2095-1.0628-6.4268 1.6115-3.6144 5.6172-0.42202 5.4829-9.22 10.183-10.041-21.69-8.4374-25.304-1.5923-15.186 4.4047-9.6997 3.9175-4.2436 4.2129-1.976 4.1669-2.352-0.92857-1.1511-8.5832-9.9951-1.2009-1.623-0.21107-0.94771 1.0245-0.92085 0.60617-0.01088 1.1626-1.8302-1.2777-2.0834-2.989-5.1721-0.19565-0.42206-1.9759-5.4446-1.2164-4.2705-0.95147-4.3203-0.67913-4.3779-0.41444-4.4239-0.0687-0.8096-0.45669-0.65227-7.1865 0.54868-12.804 4.9611-11.507 6.8488-10.571 9.8225-9.7726 10.916-7.8887 11.361-7.5931 13.748-4.8115 16.514z" style="fill-rule:evenodd;fill:#ccebb0"/>
  <path d="m644.34 404.69 55.6 97.641 55.984-45.793 43.752-27.994-55.343-93.716-1.6806-2.2407z" style="fill-rule:evenodd;fill:#ccebb0"/>
  <path d="m570.85 951.35 8.092 2.4556 9.7994 4.2014 13.28 7.2939 14.269 8.8479 12.286 6.5457 8.7904 3.9444 11.307 4.2281 11.342 1.719 10.195-0.15339 10.824-0.59855 10.133-1.7957 12.04-2.5669 11.334-3.2729-3.6028-27.108-2.6858-6.1122-5.4369-7.9807-2.7127-4.8575-0.93623-4.5507-2.7242-3.361-19.376-38.073-3.6335-6.8298-3.9788-4.6004-4.2053-5.1644-2.7165-4.5774-1.0781-7.1712-26.436 1.0437-29.843 0.78267-22.281-1.435z" style="fill-rule:evenodd;fill:#ccebb0"/>
  <path d="m769.18 964.19 0.34924 9.3275 1.0398 7.482 2.448 6.3232 3.2844 6.5765 3.4648 5.5367 4.1822 5.0186 5.0493 3.3996 5.3295 2.5591 6.9755 1.4733 7.267 0.1189 18.597-0.752 5.2029-7.4743 27.829-58.712-0.53715-7.9346-24.986-56.475-3.7294-7.4628-6.4806-7.3553-0.83647-3.4379 0.0687-4.3242 1.0858-4.8037 1.4965-3.1502-14.507-6.8642-6.1083-1.5271-3.2536-2.8815-0.36066-6.0239-9e-3 -0.12283 1.504-6.1237-1.4235-6.7223-15.62 20.117-16.994 17.554 4.9956 11.595 1.201 4.4892 0.7904 6.68 0.89398 16 0.18032 4.7502-0.68678 7.9462-5.0301 28.754-1.976 13.548z" style="fill-rule:evenodd;fill:#ccebb0"/>
  <path d="m763.05 600.75 8.5562 16.652 6.8987 14.089 3.929 7.3017 4.0173 3.1386 4.8537 0.57166 35.227-3.3764 39.915-3.1999 8.2839-0.71372 1.2431-0.70211 0.6561-1.013-0.31841-4.9342 0.52178-6.3884 3.6028-6.0777 1.435-2.0758 2.045-2.9735 5.249-9.1548 1.4388-3.1616 1.8302-8.5909 1.247-8.6291-0.26863-10.386-7.432-39.447-0.85179-6.7875 0.11887-6.9217 0.42969-11.58-1.2968-5.7553-4.5276-9.2277-9.9452-16.51-3.1078-5.5482-13.694 4.4048 18.041 34.233-65.262 56.905z" style="fill-rule:evenodd;fill:#ccebb0"/>
  <path d="m887.45 611.63 0.92468 1.8992 2.9353 1.5808 8.5256-0.75206 4.7116-1.8148 4.8154-4.4585 67.74-72.701 56.107-68.074 33.55-41.35 3.6259-4.7539 3.0157-6.0853 1.5809-7.3323 0.2109-8.5678-26.064 19.442-22.883 24.153-2.7203 0.60237-2.7933-0.46038-9.6037-4.516-4.2014-0.49879-4.1324 1.2009-63.286 44.078-25.143 30.223-24.698 19.691 7.0868 37.625 0.28772 10.943-1.3007 9.0205-1.9337 9.0589-1.6615 3.6374zm12.508-4.0364 1.2008-1.976 18.647-18.644 1.5539-2.7549 2.893-3.2498 5.6518-4.1707 7.7697-9.7419 6.7107-8.3376 11.02-12.075 9.8877-11.373 10.874-12.996 11.656-13.276-0.14199-2.1947-1.7689-0.91319-0.7751-1.1319 1.4849-1.0628 1.6231 1.0628 2.1217 0.91318 1.4082-0.34528 1.8378-1.554 16.107-17.377 11.154-12.785 10.878-14.408 22.603-25.849 2.5439-2.9736 4.5889-3.81 2.6859-2.893 0.564-2.0528 0.2455-0.70217 0.6025-0.49879 1.0627 0.0384 0.7405 0.8825-0.4949 2.187-11.514 13.878-14.584 16.318-4.5582 5.5788-12.217 15.501-12.75 14.906-16.28 17.73-19.284 22.177-11.192 13.207-13.702 14.833-8.0537 10.129-6.2848 8.6906-5.3333 5.8282-3.9175 2.8968-3.0389 2.0144-9.8186 10.981-7.9808 8.8248-1.2008 1.7727-3.6719 0.28005-1.201-0.42586z" style="fill-rule:evenodd;fill:#ccebb0"/>
  <path d="m427.81 932.47 1.224 2.5323 59.549 26.701 6.0354 0.85563 9.339-0.8633 9.8455-1.3429 11.138-3.1041 6.8335-2.1946 10.122-3.6105 5.5788-1.1665 16.272 0.67531 11.649-88.893-3.2192 0.16098-7.9462 3.4686-48.099 17.815-15.478 3.5108-6.5458 0.63317-7.8656 1.1932-8.1074 2.1219-5.8973 3.1116-11.035 7.0714-10.582 8.5525-22.016 20.512z" style="fill-rule:evenodd;fill:#ccebb0"/>
  <path d="m595.18 768.06 102.39-9.6191 0.41822-16.092 2.1487-58.467 0.29162-7.3246 0.24936-6.2465-92.703 7.5855-1.8378 0.1496z" style="fill-rule:evenodd;fill:#ccebb0"/>
  <path d="m661.46 861.81 1.0781 7.1712 2.7165 4.5774 4.2053 5.1644 3.9788 4.6004 3.6335 6.8298 19.376 38.073 2.7242 3.361 0.93623 4.5507 2.7127 4.8575 5.4369 7.9807 2.6858 6.1122 3.6028 27.108 3.012-0.85946 10.92-2.1678 13.045-2.3367 9.1816-1.1472 10.21-1.0091 2.3175-0.81341 1.9492-2.6206-0.26475-7.0906 0.72519-13.287 2.0028-13.794 5.0417-28.823 0.78269-5.8858 0.21874-5.5097-0.60624-18.302-0.81721-5.107-3.2-7.2403-2.1257-2.9659-2.0259-1.6384-1.1549 0.99386-5.4062 3.269-7.198 3.2-8.4565 2.4095-6.3923 0.6638-5.3524-0.57166-8.0306-3.0236-8.7865-3.4186-6.2925-1.8839-8.3337-0.89404-13.13-0.98223-12.144 0.33769z" style="fill-rule:evenodd;fill:#ccebb0"/>
  <path d="m840.61 262.15 0.76746 3.5069 2.8008 7.3208 2.4748 5.8167 2.2984 5.9932 2.8853 6.6264 2.6935 5.763 3.0733 6.327 2.774 5.5827 2.9506 5.4484 3.3765 5.8512 3.411 5.4753 3.7985 5.8474 3.7102 5.9932 3.5875 5.1952 3.6834 5.0148 4.309 5.4752 3.6335 4.6119 2.2408 1.059 1.5194 0.14199 1.8955-0.54481 8.5409-10.256 7.0714-8.0498 7.3861-5.8666 7.7197-5.3908 6.9985-3.8407 10.049-5.433 8.8748-4.4354 7.2594-4.117 11-6.0661 9.3889-5.786 6.0776-4.7846 1.0437-1.93-0.2303-1.0628-1.0589-0.73287-11.603-2.5477-7.6814-1.9377-7.317-2.0719-7.8043-2.2867-7.7121-2.4978-7.1327-2.4748-6.1545-2.2753-7.0982-2.7894-6.8795-2.7664-6.6724-2.9352-6.2848-2.8086-4.8039-1.4427-2.444-0.54098-9.2354-1.2662-7.9808-1.3045-8.0766-1.4695-8.4066-1.5846-14.5-3.3995-4.6003 1.8532-4.0249 3.8945z" style="fill-rule:evenodd;fill:#ccebb0"/>
  <path d="m262.83 826.21 2.2101 4.823 7.2325 2.0067 5.0225 1.4043 3.4149 6.4268 6.0239 10.041 7.8311 4.823 7.6354 2.8125 7.8311 2.0066 13.456 8.6407 2.0067 3.2114 1.2048 6.2273 4.6197 3.411 5.4215 0.1996 5.2259 1.0052 7.4321 9.0359 6.0239 2.8163 4.823-1.2049 1.0014-5.8243 1.0052-3.4187 4.8192-2.6092 6.4268-17.872 8.1496-1.4848 1.4466-10.682-9.4963-0.89014-11.952-2.9122-3.411-0.80189-3.5146-2.0068-0.90545-1.1088 0.30309-1.9069 2.0067-0.0998 7.033 1.7036 4.2168 0.80961 2.6129-0.70607 2.0067-3.1117-0.2033-4.9227-2.21-4.4162-3.0081-2.916-0.10358-11.246 0.80196-5.8244 1.8072-6.5266 2.8124-3.4148-0.90169-4.9228-28.22-17.07-0.0997-2.8125 1.5041-1.105 2.3098 0.29926 26.413 15.566h2.3098l1.9108-3.2114 1.4004-3.718-0.29927-4.4163-1.8072-4.6196-4.0172-1.2048-8.7328-1.1051-9.2431-0.8019-17.27 1.2048-13.456 4.4201-3.4148 1.4043-10.045 5.2182-0.19954 2.2139 1.6077 5.0187 4.8191 3.4148 1.0053 5.0187-3.8177 4.4201-9.0397 2.6091-4.6158-2.6091-4.4201-0.39906-1.2047 5.0225 0.19946 2.8086-4.8191 3.6182-5.8244 0.99762-8.8364 0.40666-6.2273 0.4029-5.222 4.4201z" style="fill-rule:evenodd;fill:#ccebb0"/>
  <path d="m449.78 676.32 0.82876 1.2355 1.2355-0.13819 2.6129-1.3774 4.3088-2.7933 52.32-34.989 1.554-0.91703 0.88249 0.0422 0.23788 0.3798 3.9635-2.6973-0.26086-0.41822 0.0691-0.84414 37.786-24.829 0.63305 0.11128 2.7242-1.8494-15.183-23.7-0.80191-0.39519-0.65608 0.31084-76.404 49.872-1.2239-1.8686 76.454-49.907 0.47961-0.66376-0.0883-0.84797-13.659-21.322-1.3506-0.77121-1.4235 0.30309-42.908 28.355-1.2278-1.8647 45.598-30.131 9.6959-6.2503 0.16876-0.14958-1.5539-2.6283-0.81728 0.18415-13.065-24.226-0.38758-0.67147-0.56402-0.39135-0.61004-0.0729-0.60624 0.14958-55.278 86.622-2.8584 4.9803-1.5923 5.8052-1.4427 7.9347z" style="fill-rule:evenodd;fill:#ccebb0"/>
  <path d="m835.33 858.62 1.6959 4.8038 6.8488 10.598 0.63703 1.55 2.398 4.5505 102.15-4.4853-5.5559-30.78-3.8791-36.362-0.9285 0.47193-0.59861-0.73668-0.0687-1.201 0.49491-0.95537 0.9017-0.0344 0.32614-3.8331-1.0168-0.15337 4.0403-35.56 0.31081-2.0757 0.61386-4.1208 0.68677-5.9894 1.3584-4.8115-4.9996-2.0834-7.6085 55.965-64.962 3.6412-0.564 7.175-1.6959 6.5035-4.305 5.859-8.9707 8.8977-9.3237 8.9054-5.9357 8.7558z" style="fill-rule:evenodd;fill:#ccebb0"/>
  <path d="m119.77 812.73 5.1069 5.7208 1.4964 0.90935 3.7256-1.9837 9.3927-8.326 3.0503-3.4916 7.3784-11.683 3.8791-8.3645 3.9059-10.145 17.005-65.968 2.352-4.4662 1.8187-3.1271 4.4968-2.4556 4.5237-0.86712 80.859-1.9146 29.747-1.8264 27.595-2.1141 24.399-2.6782 22.91-3.2384 2.4326 0.0498 4.2973 0.4336 6.3539 1.7957 4.562 1.1204 1.0359-0.86335 0.21874-1.3736-1.1396-4.2781-55.65-0.26476-12.884-8.4795-145-0.11508-7.6393 0.94772-6.2963 2.5438-6.2657 7.3937-24.176 107.48-7.6047 12.297-3.4532 3.7602z" style="fill-rule:evenodd;fill:#ccebb0"/>
  <path d="m548.15 557.88 10.068 19.123 127.52-79.197 1.8417-1.0206-30.826-57.88-2.1909-2.3021-1.7726-1.5079-1.4427-0.53715-1.907-0.42204-3.1078 0.84025-1.6959 1.1358-0.49497 1.976 2.8278 6.0737-0.18422 10.237-0.20718 1.3851-0.45657 1.976-1.4849 2.9275-2.1832 1.976-3.3228 2.9966-13.421 12.125-1.5923 1.3506-9.0359 7.6738-0.60237 0.5103-8.9016 8.2608-1.059 1.2738-0.0691 2.3328-0.0691 4.094-0.14199 2.6168-1.1318 2.5438-53.605 47.531z" style="fill-rule:evenodd;fill:#ccebb0"/>
  <path d="m-0.58729 715.31 0.30695 6.6954 1.4695 11.676 2.4863 15.344 1.7842 8.3146 2.7472 7.152 3.081 5.5251 3.1079 4.8038 7.2709 9.4656 8.9553 8.0306 7.574 5.1453 24.422 15.915 12.562 7.386 9.2584 3.4954 12.658 2.6512 4.5275 0.35682 3.5645 0.0807 7.6546-1.013 7.5434-2.7127 2.5132-1.4196-0.21103-2.164-1.8187-2.1563-2.1755-2.5592-1.93-0.90931-15.854 0.1075-5.2834-0.40672-5.3103-1.316-6.7453-2.9506-7.2824-3.6681-30.2-19.046-14.338-10.429-3.411-4.1131-3.8906-5.2719-4.0172-8.6138-2.2638-6.9026-3.0887-13.164-1.9031-11.438-0.4681-11.672 0.97074-9.1165 1.2048-7.2364 4.117-12.347 3.7602-9.3236 32.284-49.872 42.421-33.274 17.945-27.887 1.1165-9.0128 2.9007-9.7687 25.872-10.897 11.396-4.7731 17.68-7.198 15.102-6.3117 44.661-18.279 10.083-3.5683-0.92086-1.4542-94.154 38.668-30.262 12.201-6.9601 4.6849-3.6911 3.4378-4.1937 4.8537-8.8018 13.057-5.6441 8.6407-3.5108 4.8153-5.2642 4.6886-34.098 28.853-2.7511 2.6475-3.6527 4.8997-26.087 39.601-3.081 5.2182-2.2753 4.4508-3.3842 7.01-2.5247 8.234-1.389 7.056-1.5309 8.2532z" style="fill-rule:evenodd;fill:#ccebb0"/>
  <path d="m700.14 683.88 63.696-1.435 25.224 1.3813 20.708 4.7962 7.739 3.2114 2.7165 9.2815 2.2561 11.104 3.7793 8.3108 9.2162 13.932 5.2643 13.54 4.0133 14.542 0.14199 11.488-6.8143 17.715-3.8599 16.679-0.65226 4.9918 1.151 4.2513 1.6038 3.2384 9.6421 7.01 1.5847 0.83259 1.8532-0.0691 8.8095-7.9002 2.1103-2.7702 0.89788-1.4849 0.49115-1.7726 2.893-121.76 0.23789-9.8225 0.36838-3.5261 0.77114-3.1578 4.47-7.7467 4.8498-8.6445 0.99755-2.9468 0.56798-2.966 0.46032-6.2004-0.39128-3.2997-0.68693-1.4196-2.962-1.1856-9.5193 0.60242-77.367 6.868-6.6493-1.293-7.8887-12.305-7.7006-13.997-6.0892-11.553-3.6182-6.327-2.3596-2.3597-2.4594-1.554-5.6287-2.8776-1.0437-0.66765-1.7688 2.8968 9.0627 3.1808 1.9798 2.7165 19.637 35.879 6.5726 11.058 0.14579 0.31464 78.748-6.7299 4.5313 0.13042 3.7448-0.4297 7.5971-0.87484-0.30309 11.138-3.6949 7.8465-5.2757 10.099-1.8379 4.4623-0.64072 5.5252-0.89787 8.9208 0.56013 18.417-6.0853 3.7256-6.0738 7.6968-1.9069 5.4407-1.343 5.1491-2.1179 2.4748-2.6858-0.70982-6.9218-9.7419-7.0599-15.401-2.6858-10.452-1.0321-5.1452-4.7578-23.674-0.98605-4.3242-117.04 10.348z" style="fill-rule:evenodd;fill:#ccebb0"/>
  <path d="m756.28 269.24 0.046 0.9899 2.7396 6.1697 2.728 5.9817 2.8355 6.1467 3.0081 5.5558 3.1118 5.7438 3.4877 5.0302 4.3241 4.5928 4.4393 4.4508 4.7923 5.0762 4.3356 4.5927 4.2629 4.5812 4.4431 4.7731 4.4431 5.4522 3.7486 5.2719 3.2921 5.7553 3.012 6.3501 2.9505 6.1045 2.8815 6.3194 1.742 0.57939 1.6805-0.3223 35.771-27.791 0.83252-0.8326 0.37987-0.92092 0.0197-1.1166-0.28402-1.2201-0.59854-1.2853-0.54104-0.87484-3.4685-5.3908-3.4724-6.0853-3.1885-5.7169-2.8854-5.905-1.573-2.9583-0.0884-0.16875-0.41042-0.29155-0.66765 0.0192-1.155 0.54096-0.13801 0.13043-10.824 9.8071-3.5107 3.0503-2.7433 1.3736-3.0351-0.31466-1.5117-0.80189-1.8187-1.2508-1.224-2.0988-3.2844-5.5328-3.2958-5.5443-2.6168-4.3012-1.0781-1.8455-1.2125-2.8547v-3.8484l1.1166-2.9774 0.98604-1.0973 2.2676-1.8839 17.504-14.695 0.93234-1.2624 0.0998-1.2738-1.0782-3.2-1.1664-1.3122-1.5231-1.3237-0.83648-0.38368-1.3736-0.29928-1.082 0.0691-1.4963 0.35299-3.7065 1.5232-4.3242 1.5654-2.5323 0.70217-3.553 0.9477-5.763 0.54482-5.4293 0.307-10.141-0.18034-9.4579-0.9017-8.9361-1.3813-6.6495-1.2431-1.4311-0.21103-1.2509 0.24939-0.69828 0.3338-0.34533 0.38754-0.6369 0.77502z" style="fill-rule:evenodd;fill:#ccebb0"/>
  <path d="m789.29 402.55 21.544 36.52 7.459 11.004 26.428-10.363 0.42212 1.6307 7.2785-2.6551-0.92084-0.66381 0.35299-1.3429 10.172-3.8177 11.653-6.7108 6.2119-3.7448 4.9457-3.7409 30.277-25.07 0.20718-0.28771 0.0648-0.36455-0.1382-0.53714-8.115-8.0038-9.4695-9.6843-1.3428-1.5041-1.9607-1.9722-17.876 21.836-4.8152 4.4623-1.9223 1.5194-4.259 2.9391-4.209 1.5769-6.1736 1.5309-6.7337 0.32231-4.0748-0.92468-3.8944-1.3928-5.5674-3.5875-5.4561-5.3755-4.5774-7.3361-3.9175-8.0307-1.4005-0.73279-1.7036 0.39135-24.337 21.372z" style="fill-rule:evenodd;fill:#ccebb0"/>
  <path d="m45.904 719.66 0.58321 6.6416 1.2547 6.1276 1.8993 5.7937 3.718 7.033 4.3779 6.1467 5.2566 5.2105 10.432 7.597 14.342 9.6843 5.318 2.425 5.08 1.3352 5.2834 0.0805 1.4427-0.26091 3.0772-6.538 0.90935-3.4187-2.3098-13.56-1.105 0.0498-1.3045 1.5117-2.0105 1.7572-2.0566 1.1012-4.1669 0.40283-3.0657-1.0552-3.8139-2.0604-6.5764-4.9688-10.997-8.3836-2.6628-3.0158-3.0158-5.3678-2.3559-6.0776-1.0053-4.0978-0.80576-4.1132-0.17654-3.5683 0.50646-4.6426 1.0053-4.3434 1.1242-3.2882 25.711-40.468 25.911-40.521 7.0292-9.646 5.5712-6.6724 5.8282-6.4767 4.3664-3.5184 9.1356-4.9228 2.8662-1.8072 5.763-19.802-13.755 6.4076-16.633 7.528-3.6758 2.4211-3.6873 3.6067-5.7323 7.693-18.962 28.923-33.515 52.535-7.9731 12.132-3.3842 7.835-1.4043 7.7888-1.5386 6.0585z" style="fill-rule:evenodd;fill:#ccebb0"/>
  <path d="m900.7 365.64 0.52178 1.6537 3.9251 3.8024 4.7961 4.589 4.5851 4.8153 4.4815 4.493 1.5616 1.5233 4.5314-3.741 34.593-29.057 13.18-11.027 14.231-11.633 16.43-13.744 11.004-8.7826 13.084-8.9208 4.8806-3.0887-0.3722-0.0306-5.644-0.54488-8.9516-0.90163-8.6905-1.0897-7.8695-1.1664-2.0297 0.39523-1.7227 1.1127-11.557 9.2392-9.7342 6.001-11.085 6.1122-7.3438 4.1592-8.9208 4.4623-9.9683 5.387-6.7452 3.7065-7.3746 5.1376-3.2076 2.2561-3.6988 3.2384-6.7338 7.6661-9.4732 11.373-0.54104 1.7036z" style="fill-rule:evenodd;fill:#ccebb0"/>
  <path d="m697.99 742.35 9.293 0.45657 3.0043-9.1932 22.208 1.4849 19.841 0.29161 20.432 3.8561 16.054 5.1376 15.332 7.2978 26.356 12.435 0.19194-4.5506-1.9722-3.741-11.737-6.4306-18.866-9.0436-17.903-6.5458-22.653-4.6272-29.218-1.4849-19.246-2.0719 1.1818-7.9961 4.7385-1.481 27.833 2.0757 22.507 1.1818 20.132 5.3333 26.947 10.068 14.212 9.1778-1.1856-5.3333-4.4393-9.7687-8.587-8.587-29.609-7.1059-32.571-3.553-40.272 0.29544 2.6666-17.469 48.56-0.59476 16.284-0.29156 17.174 1.1818 13.916 2.3673 1.1742-6.4959-20.708-4.7962-25.224-1.3813-63.696 1.435z" style="fill-rule:evenodd;fill:#ccebb0"/>
  <path d="m704.59 520.45 2.7549 4.9419 1.8418 0.80191 5.8858 10.379-1.0167-5.6019-1.8341-3.9558-1.8378-3.668-0.42204-1.3429 13.28-9.0819 19.418-12.604 13.74-8.6483 9.9222-5.0916 13.74-5.5443 17.868-7.0215 21.26-8.161 1.3045 1.3775-0.10345 2.045-1.481 3.0043-1.9453 1.7649 5.0033 3.7717 7.244-4.1784-0.94764-3.4801 14.304-9.8877 7.4512-3.0695 13.775-4.5544 7.0637-2.966 7.8004-3.8868 22.005-14.691 31.854-26.981 31.996-25.427 17.799-15.041 27.407-21.122 22.668-15.47 18.716-10.874 1.4158 1.128 0.4872 1.7918 4.6542-3.7372 11.142-6.7222 10.233-4.8882 11.568-3.6796 12.785-3.269 2.1333-1.8571 0.8442-2.5361-1.0514-4.9036-1.6959-3.9098-0.9553-0.56018-6.2695 2.7357-14.104 6.0776-13.21 5.9664-11.864 5.8627-8.7596 4.8345-13.138 7.5587-11.196 6.9563-12.57 8.303-9.9606 7.2364-9.2891 7.0638-8.7559 7.0254-36.834 30.902-46.476 38.07-8.0152 6.3577-7.2364 4.7002-9.573 5.7169-8.1573 4.2782-10.03 4.374-14.304 5.5136-10.628 3.6719-13.211 4.7654-9.6383 3.7065-38.637 15.19-9.2508 4.2705-6.6378 3.5299-7.5241 4.305-9.7803 6.4345z" style="fill-rule:evenodd;fill:#ccebb0"/>
  <path d="m558.21 577 12.205 22.212 122.09-81.273 0.64073-3.7103-0.2264-2.6014-7.1941-13.824z" style="fill-rule:evenodd;fill:#ccebb0"/>
  <path d="m-113.63 734.73 44.811 29.567 4.5966-6.5726 48.387-69.325 3.9597-5.6326-10.045-9.7188z" style="fill-rule:evenodd;fill:#ccebb0"/>
  <path d="m636.02 390.46 1.3122 2.4326 98.167-72.617-17.508-29.897-4.2053-7.3285-6.2464-10.379-3.8868-9.27-1.976-3.8753-1.9376 1.2739-2.7127 1.7688 22.296 38.066-7.2402 4.5237-5.6556-7.7236-40.99 29.571-17.987 12.873-0.61009 5.9318 2.3444 4.3625 9.4963-6.3769 10.479 16.295-10.674 8.1074-7.3515 4.8729-2.9506 4.351-2.2638-2.3367z" style="fill-rule:evenodd;fill:#ccebb0"/>
  <path d="m251.52 509.68 3.6297 7.9347 12.627-5.74 13.253-2.4518 47.873-7.0292 7.9769-3.0196 12.643-7.0906 31.152-16.725 11.016-6.9487 7.0446-6.5188 4.5313-4.8844 6.3654-10.064 4.3548-8.4105-7.4742-2.2484-5.5059 6.1966z" style="fill-rule:evenodd;fill:#ccebb0"/>
  <path d="m277.89 516.41 1.7611 3.4033 1.1895 2.6053 0.82105 3.1079 1.1319 5.0148 0.98988 4.5199 3.8139 5.6479 3.53 3.3956 5.2258 1.2662 7.7697 0.70982 9.8877-1.976 11.3-1.4196 9.6076-0.564 19.069-12.009 9.4656-7.6239 5.3678-6.4958 4.6043-9.1357 8.4258-6.4652 0.046-2.517-4.8306-13.943-26.563 14.361-10.03 5.153-8.2302 3.4302-8.9745 2.2292-42.267 5.3333-2.8546 0.46046z" style="fill-rule:evenodd;fill:#ccebb0"/>
  <path d="m63.554 716.72 1.059 7.5587 1.481 5.1567 2.3328 5.2258 2.9659 4.5199 20.692 16.176 3.3228 0.92083 3.6719-0.14198 3.3918-1.059 1.765-2.0489 0.49497-2.4748 0.28392-3.2498-4.4508-22.526-1.412-8.9016 0.34916-8.0537 3.6757-20.696 1.976-8.6138 2.1909-8.4066 2.6129-7.3477 2.471-5.506 3.3918-5.2987 3.6028-3.599 3.7448-2.1218 7.2748-2.54 2.2599-1.765 0.91702-2.6168-0.35298-1.4772-0.70599-0.35683-2.7549-0.0729-3.1079 0.70599-4.6618 1.623-3.6028 2.2638-6.4997 4.3817-3.6719-1.4196-1.834-0.21102-13.068 22.108-5.6479 3.7448-20.98 34.045-2.329 5.7937z" style="fill-rule:evenodd;fill:#ccebb0"/>
  <path d="m-121.7 858.63 31.658 22.968 32.583-43.054 4.5352-8.2723-9.3352-5.5865-13.207-30.891-2.329-4.7846z" style="fill-rule:evenodd;fill:#ccebb0"/>
  <path d="m729.07 177.43 0.26857 3.4801 1.0513 5.2719 1.5885 4.5621 3.1769 4.9688 3.8024 3.8906 4.7002 3.2767 7.1212 3.411 8.2416 3.0465 6.726 1.2738 6.6341-0.92085 3.5798-0.37984 6.043-3.0004 6.588-5.9011 3.6104-7.01 1.9262-7.551-1.1702-12.278-0.35689-3.1962-3.8829-2.4479-4.5199-3.6719-3.7448-4.0288-4.9419-6.3539-1.0973-0.88249-1.6575-0.24939-35.3 5.1299-2.54 4.071-3.5261 5.9165-1.6461 5.7246z" style="fill-rule:evenodd;fill:#ccebb0"/>
  <path d="m751.69 330.12 0.98606 1.6652 3.1309 5.3026 3.5414 5.9856 3.3113 5.6019 3.4072 5.7592 3.0388 5.1414 3.434 5.8052 3.2499 5.5021 2.8124 4.7539 3.672 6.2081 3.6104 6.1045 3.6182 6.116 0.52567 0.88632 0.45272 0.61774 0.61775 0.37221 0.74441 0.16876 1.3582-0.26092 1.2432-0.66764 1.412-1.1166 20.861-19.077 0.4949-0.8211 0.30698-0.80575-0.29931-1.8762-0.57169-1.1012-2.9122-6.3846-2.9353-6.0662-2.9351-6.2004-3.0734-5.3717-3.5107-4.9342-4.2321-5.1913-4.3318-4.6618-4.259-4.5697-4.3203-4.5775-4.7462-5.0301-4.4355-4.4508-0.97067-1.0244-2.2177-0.51034-2.1526 0.31082-17.093 13.402-0.81338 2.3213z" style="fill-rule:evenodd;fill:#ccebb0"/>
  <path d="m415.99 668.12 9.3429 1.0168 1.8954-13.398-1.4849-0.3223-1.9606 11.254-2.2369-0.29162-2.3405-0.38369 1.9261-11.599 0.51802-2.5784-0.35684-4.094 11.584-49.373 1.1319-2.471 65.684-103.27 5.2297 3.6757-65.968 102.97-12.715 51-0.84409 2.329v1.059l3.599 0.77503-1.953 14.891 3.2844 0.36065 10.981-45.832 3.3918-10.766 5.6555-9.7573 63.109-98.409 1.788-7.2326-0.0999-2.0258-1.5962-2.7933-1.9913-2.3559-2.3789-1.5769-8.3299-3.3688-74.037 116.69-5.7361 34.168z" style="fill-rule:evenodd;fill:#ccebb0"/>
  <path d="m502.39 481.56 4.8652 2.3712 4.2551 2.517 2.6283 1.8187 1.9683 3.2153 1.2201 2.6705 1.5079 1.0321 1.389 0.26857 1.4043-1.0935 64.675-100.54 18.544-24.284-0.23022-2.095-6.3156-12.47z" style="fill-rule:evenodd;fill:#ccebb0"/>
  <path d="m824.16 373.02 0.40295 1.8187 5.2104 10.713 3.4494 5.1568 4.7116 4.773 4.6274 2.9353 3.3688 1.2969 2.9045 0.59089 4.5429-0.0807 4.1285-0.64453 5.7131-2.1142 4.965-3.576 4.7693-4.5276 19.399-22.83-2.5286-1.8954-1.1664-0.0344-6.7914-8.2839-6.4767-8.5217-6.1658-8.752-5.8398-8.9668-5.506-9.1817-5.0915-9.2315-4.7616-9.4081-4.4124-9.573-4.071-9.7266-3.718-9.8723-1.2739-2.5899-1.1204 0.72519-0.0197 1.9223 2.5247 7.1366 2.5476 6.0854 2.5861 6.1774 2.3827 5.5482 2.7702 5.5098 3.4187 6.4306 2.8738 5.882 3.1424 5.644 3.4302 5.9971 3.4456 5.3525 0.64071 1.0513 0.77887 1.6959 0.42977 1.8264-0.0268 1.9876-0.79808 1.9299-1.3505 1.3544-37.172 28.876z" style="fill-rule:evenodd;fill:#ccebb0"/>
  <path d="m-8.6294 685.82 0.63309 5.4752 0.92085-0.0729 3.4609-5.364 42.306-64.348 5.2987-7.0599 4.5928-5.0148 3.388-3.0388 11.937-10.31 3.741-2.4748 0.4259-2.6859-1.6921-3.3879v-3.8139l3.3151-4.163 14.906-12.861 12.006-9.7074 8.7903-6.1851 8.7251-5.5059 19.99-8.2647 19.353-7.6278 107-46.265 46.192-20.765 65.193-30.085 3.5836-1.9261 2.9851-2.1716 2.7894-2.5592 1.27-1.4657 0.8825-1.412 4.2589-11.089 2.2408-6.0048 1.9913-10.517-9.0436-0.70217-1.1779 25.876-0.56403 2.0489-1.3084 1.5846-12.22 5.5827-60.738 28.113-66.605 29.943-80.556 34.981-2.966 1.3582-2.7549 0.79808-2.893 0.47577-3.3573 0.19571-6.3194-0.0192-3.3918-0.21104-0.33765-0.26857-0.15736-0.89396 0.28009-0.71367-3.388 0.42586-2.5784 0.56786-5.4023 2.54-5.2988 4.7002-20.972 17.408-10.843 9.4273-10.951 9.5347-6.8488 6.3577-3.9558 3.9213-4.7692 5.0532-3.7448 4.4508-5.011 6.9908-12.715 16.948-48.874 70.173-0.70984 1.6268z" style="fill-rule:evenodd;fill:#ccebb0"/>
  <path d="m153.17 590.74 1.4043-0.39135 6.6954-4.1938 9.7418-5.3294 34.724-15.915 1.2546 1.9069 39.416-20.186 2.2638-0.90169 36.174 0.45655 0.2763-0.25702-0.14959-0.49498-2.0604-2.164-1.4542-2.659-1.6077-3.1156-1.2585-3.764-0.90164-4.5199-1.0552-3.2114-2.1716-2.9353-0.84031-0.88249-2.7625-1.4043-2.7088-0.85945-2.1103-0.24561-2.4134 0.29545-104.5 48.663z" style="fill-rule:evenodd;fill:#ccebb0"/>
  <path d="m699.94 502.33 5.997 8.0114 3.599-1.3352 31.079-20.696 11.726-6.8489 11.722-5.8666 13.138-5.1529 37.717-14.657-0.69061-1.6154-0.80572-1.8878-13.744-23.739-43.752 27.994z" style="fill-rule:evenodd;fill:#ccebb0"/>
  <path d="m254.55 550.6 0.94774 14.308 1.4081-3.0081 22.595-5.0225 5.6249-0.80578 8.5371 0.70216 4.8191 1.2048 9.2392 1.0053 8.4335 0.40672 7.3323-0.60244 4.4201-1.6114 4.6196-1.8072 3.5147-0.19956h4.4162l6.8297 1.2048 4.117 2.0067 2.5784 3.1232 2.0413 6.9217-0.70215 7.2287-1.5079 7.0292v7.1328l1.5079 4.5198 3.3151 3.0081 4.3165 2.1141 4.117 1.6998 5.8244 1.5117 1.3045 1.2048-0.70217 7.5318-0.7021 9.6422-2.5093 5.9203-3.9175 4.021-4.2206 3.8178-4.7156 1.7995-10.041 1.7113-16.372 1.4043-9.7419 0.30314-9.5385 0.19947-14.262 0.307-28.719-1.7113-6.5304-1.907-3.3151-2.0067-0.70984-1.6614 0.41056 3.7678 0.50262 1.7573 0.60241 0.95154 1.0551 2.0144 1.554 0.44514 16.219 1.2584 18.179 0.35299 17.677 0.75208 9.0857-0.45281 27.568-2.2062 7.8311-1.4043 3.1118-1.1089 2.4594-1.857 2.8125-2.6091 2.563-2.3635 2.7626-3.8138 1.2546-2.9161 1.4542-6.2196 1.0053-5.575 0.30308-5.6248 0.353-6.68-0.353-4.869-0.35299-5.9779-0.80572-6.9793-0.54871-12.201-0.60237-9.4887-0.0498-2.9161 0.24937-2.2062-6.3769-2.5094-9.4886-2.8662-9.1395-2.0067-5.8743-0.85181-8.0844-0.40282-8.2838-0.1496-9.7918 1.0053-7.4858 0.95154-5.9203 1.0552-5.1223 0.34916-2.9621-0.0998-4.1668-1.4542-2.9122-1.2048-1.2585-0.85179-1.6575-0.2033-30.024-0.12662-0.65226 0.37987-0.45276 0.70215z" style="fill-rule:evenodd;fill:#ccebb0"/>
  <path d="m668.64 266.89 0.35299 1.1971 1.834 1.3429 2.966 0.42204 2.7549-0.21103 3.3228-0.85179 1.9759-2.187 5.4408-6.8489 11.722-17.235 1.5539-0.91317 2.049 0.21102 5.7208 8.2608 2.6858 3.8829 3.7448 2.6858 5.9318 3.388 6.8488 3.2499 4.8038 1.4849 3.7448 0.28012 4.7309-1.554 12.432-6.3578 3.8139-1.1242 4.589-0.0767 5.7937 1.1319 5.1952 1.0935 0.13801-0.42205-14.285-5.4561 0.45287-3.9558 0.41054-2.3367 16.687 2.9352 8.069 0.26859v-1.412l-8.0843-0.49876-16.671-3.2422-10.701-3.0772-7.6239-2.7549-10.03-4.0287-8.1265-4.2321-6.1429-4.8729-5.9318-5.4407-2.613-2.2599-1.8379-1.2739-2.966 0.0729-2.4748 0.6331-2.329 1.9108-29.663 45.628z" style="fill-rule:evenodd;fill:#ccebb0"/>
  <path d="m99.433 839.98 9.1855-5.8589 5.6479-1.2048 10.525-4.0288 10.663-6.0699 9.3927-9.6767 7.4206-8.4066 7.0599-11.158 5.9357-12.148 6.2848-14.269 13.56-52.688 3.6028-3.4609 5.2258-3.1808 16.245-0.14199 8.8287 8.2647 2.7203-2.7549 2.4748-1.7266 2.9314-1.6652 2.893-1.0552 6.7107-1.1702 38.918-2.0067 54.173-3.6028 55.585-5.5827 3.035-0.28012 0.28396-1.1319-0.38751-1.128-3.883-1.623-4.4124-1.0628-3.6758-0.56407-1.765-0.28006-23.662 3.2422-24.51 2.6858-27.687 2.118-29.84 1.8417-80.625 1.907-3.6758 0.70209-3.104 1.696-1.27 2.187-2.1218 4.0287-16.951 65.757-4.0249 10.452-4.0287 8.6867-7.6277 12.082-4.094 4.9419-3.9597 4.094-4.7271 3.9597-5.3678 3.4609-3.8177 2.118-5.011 2.118-8.8287 1.4848-2.8278 1.059z" style="fill-rule:evenodd;fill:#ccebb0"/>
  <path d="m411.97 632.18 6.8527 0.28388 4.9458-29.663 2.4019-4.4507 72.183-114.49-5.5097-2.0489-29.525 45.064-1.976 1.6921-7.3438 1.8379-8.9016 0.84409-2.8278 2.1218-20.761 33.055-6.6378 10.103z" style="fill-rule:evenodd;fill:#ccebb0"/>
  <path d="m137.52 654.75 0.0423 4.4432 22.423 0.9669 11.449-1.8072 20.351 0.52183 46.86 0.9631 12.8-15.647-14.365-1.1319-22.331-3.2959-14.588-2.5362-7.4666-2.6091-11.983-4.0594-5.7362-0.32229-2.7664 0.22639-3.2575 0.73279-2.6897 0.83266-2.4058 1.2969-2.5515 1.7534-0.0575 0.0691-3.5683 4.1247-1.7496 2.7127-2.8086 2.7396-4.7923 3.8292-5.0455 1.7957-3.4187 1.9261z" style="fill-rule:evenodd;fill:#ccebb0"/>
  <path d="m241.69 659.9 4.7731 0.0997 11.522-0.27241 9.2661-0.22256 6.8795-0.79035 34.498-4.0595 7.7083-0.71365 4.7693-0.0997 13.114 0.55248 8.6982 0.52184 7.9845 0.3683 7.9846 0.44125 12.704 1.0014 4.1669 0.17275 3.1539-0.0574 4.1707-0.73667 2.5516-0.97074 3.9788-2.3136 5.1108-3.2345 2.4288-2.3712 2.5631-2.8585 3.668-7.3208 1.7151-5.9164-3.3726-0.23024-20.55-0.8326 0.48342-6.2695 0.51794-4.7539 0.16497-4.1093-0.43743-6.1352-0.47192-2.4287-0.76357-0.59089-0.37214-0.14958-0.40672 6.8795-1.0321 5.4216-4.5659 20.608-1.7458-0.28779-5.6594 2.5631-5.8819 1.8877-9.0128 1.834-9.999 0.97455-10.551 0.88251-8.3836 0.61774-12.501 0.0192-20.067-0.49113-20.746-0.82877-12.52-1.0552-2.8124-0.22249z" style="fill-rule:evenodd;fill:#ccebb0"/>
  <path d="m604.36 334.34 4.3894 6.0086 2.4057-2.0259 8.9362-8.6369 8.1573-9.8838 10.87-16.031 49.377-77.179 7.8656-12.6 6.68-5.7362-1.7919-4.3817-3.081-8.752-1.5348-9.3006-0.0729-6.9371-1.6614 0.85945-3.2269 12.163-3.15 7.4167-2.4825 5.364-4.5659 8.7826-37.176 61.018-27.476 43.399z" style="fill-rule:evenodd;fill:#ccebb0"/>
  <path d="m428.94 345.88 0.0842 11.361 3.3458 9.3006 5.0532 5.5635 11.411 7.4513 32.947 21.126 1.4926-2.0374-30.707-25.262-1.4964-8.775 9.1395-61.099 8.1725-24.802-10.993 10.862-3.5798 3.8753-4.3549 5.1414-4.3702 6.0124-3.6182 5.9779-4.1438 7.3707-3.2537 6.515-2.3559 6.139-1.6 5.8052z" style="fill-rule:evenodd;fill:#ccebb0"/>
  <path d="m382.81 394.45 9.0436 0.70217 8.4758-126.87 1.1204-4.3817 1.6575-4.9649 1.9031-2.9275 3.2153-3.2882 94.234-79.178-0.57167-5.3947-6.8603 6.2464-99.226 84.604-2.4863 0.48346-1.7803-0.55251-0.92474-0.89016-0.17256-0.66379-0.31464 0.95155-0.0997 1.2125-7.1175 132.86z" style="fill-rule:evenodd;fill:#ccebb0"/>
  <path d="m520.95 503.32 5.0416 10.133 1.0552 1.9799 1.2048 0.4182 1.3544-0.40289 4.8536-6.8565 25.274-35.925 0.56792-0.9017 2.1448-3.4148 5.4254-7.033 5.1185-5.2681 14.469-11.269 38.227-27.56 1.834-0.9362 2.4211 0.0921 1.4158 0.43743 1.128 0.94768 7.4321 12.953 1.5616 0.42976 2.5822-0.41437 1.5846-1.4926 1.0053-2.5132 0.20337-2.6896 0.14578-1.976-7.5434-13.533-1.3659-1.6345-1.5578-0.70215-6.68-1.4542-3.2384-1.7074-2.8124-1.3544-1.2508-1.6614-5.1722-8.5601-6.3769-11.123-2.6129-0.8019-2.5093 1.0053-0.90553 2.7127 6.0278 10.54 0.90169 4.021-0.4988 3.411-4.3204 5.0225 0.60243 2.5132-34.724 25.55 1.1971 0.80956 1.7381 2.7587 45.529-33.5 1.7266-0.67149 1.2009 0.0144 1.1319 0.54099 1.7343 0.9516 3.1807 1.3429 5.9318 1.3813 1.9798 0.70215 0.70599 0.74435 0.7751 1.765 5.8436 10.647 0.47958 1.4657-0.0536 0.6868-0.24943 0.0807-0.52567-0.13041-0.58699-0.8326-5.9856-11.511-0.98995-1.1127-1.3583-0.6062-1.5002-0.24175-6.1083-1.2738-2.1371-0.70601-0.68677-0.10749-0.6293 0.0921-61.329 46.1-2.5631 2.5093-3.3496 3.7487-31.585 48.552-3.2806-2.6705z" style="fill-rule:evenodd;fill:#ccebb0"/>
  <path d="m877.92 749.64 0.35684 3.1808 62.468-5.4139 4.9995 2.0835 4.0095-6.7069 5.6633-6.1429 0.37598-0.61774 3.1118-5.1185 5.786-8.4987 3.7103-7.3438 2.3635-5.3333 2.0297-4.8038 1.0092-2.187 0.63687-0.74052 0.9171-0.3722 0.95145 0.0498 3.9942 1.7343 4.3434 2.0834 0.96692 0.21104 0.69062-1.1319-0.52944-3.883-1.5885-3.6758-4.1707-4.2666-2.613-4.7693-0.38747-3.1807 0.74052-3.0005 4.0288-5.7553 5.1184-6.6072 3.4954-4.6234 2.0489-2.8278 0.85179-0.77892 0.91319 0.37987 1.2431-1.7688-39.846-22.2-4.585-2.1525-4.3434-0.0805-9.6268 0.54098-21.702 2.8278-27.319 3.246-3.9942 0.60243 0.31471 2.751-0.72901 8.8517 38.123-3.4801 19.672-1.7343 19.495-2.6782 27.2 15.593-5.0187 5.9472-7.7084 12.708-1.5539 5.3716-0.2955 4.8575-2.1025 9.5462-6.4998 14.269-4.0978 7.6315-4.4431 6.2772-15.152 17.17-60.005 2.0565z" style="fill-rule:evenodd;fill:#ccebb0"/>
  <path d="m247.05 495.23 0.85178 2.893 1.5501 6.5688 2.1908 0.70599 5.2949-1.765 30.373-12.639 26.06-11.729 52.619-23.163-4.727-7.4168-4.8038-5.3678-84.335 38.918-15.114 6.565-7.3477 2.8277-0.91702 0.7751z" style="fill-rule:evenodd;fill:#ccebb0"/>
  <path d="m125.01 772.53 3.2 2.6168 4.447 3.1309 20.251-93.298 2.6743-5.4062 3.3918-4.1975 6.4959-2.5822 6.3578-1.3315 142.96-0.0574-8.9054-10.54-1.481 0.11508-36.163 4.3242-14.408 0.49109-44.354-0.2072-42.06 0.60243-7.2517 1.7189-3.5184 1.8455-4.094 2.8623-2.6858 3.4263-2.9659 4.282-13.863 69.636-1.0283 6.0891-1.8609 7.716-2.3328 5.7247z" style="fill-rule:evenodd;fill:#ccebb0"/>
  <path d="m587.7 327.91 3.246 8.2608 1.765 1.3429 5.3524-6.749 3.2-4.0709 2.8124-3.2384 4.3088-5.905 22.235-35.261 43.476-67.595 4.7117-8.7289 3.292-7.317 3.1425-10.248 2.0681-8.5333 2.329-8.0498 4.8767-12.792-4.5276-6.3424-1.7343-0.56402-3.4609-0.20719-2.3942 0.0575-2.5285 0.85563-3.6911 34.567-2.0566 1.4925-2.5516 16.944-25.158 40.399-43.545 69.532-5.08 4.6273-4.4661 3.5837-3.787 2.8776z" style="fill-rule:evenodd;fill:#ccebb0"/>
  <path d="m665.35 96.78 16.928 19.979 4.9649-8.3683 3.3918-5.9433 4.8843-6.0853 3.388-3.5184 3.0235-3.0618 4.1745-3.9904 5.6288-3.7295 6.8872-3.8139 6.7299-1.6844 7.5356-0.59471 6.1966 0.29929 5.3065 0.70213 6.2809 2.21 5.2987 3.2153 8.0844 5.7707 0.76355-3.6335-21.498-14.385-10.003-7.1827-5.0993-2.0835-3.9673-1.0628-4.1937-0.0073-4.3933 0.42972-4.6426 1.5309-2.893 1.3583z" style="fill-rule:evenodd;fill:#ccebb0"/>
  <path d="m511.52 418.85 2.5209 1.2355 2.3098 1.0091 2.8124 0.60237 2.8585 0.0998 2.7626-0.40674 2.6091-0.60237 2.4134-1.2048 2.5132-1.504 8.5332-10.947 4.8191-5.5251 43.986-57.945-0.19946-1.554-0.15357-1.0091-0.39901-1.0475-0.60243-1.1587-1.7074-2.962-1.4043-3.058-0.70598-2.2139-0.0997-1.7074-1.0628 0.40291-58.774 77.655-3.9251 4.8843-2.8163 3.6297-0.95921 1.3314-1.7765 1.2547-1.2585 0.81338z" style="fill-rule:evenodd;fill:#ccebb0"/>
  <path d="m638.93-134.11 74.689 134.29 7.4973-4.5928-29.893-53.705-44.742-80.187-4.9188-2.6858-0.32612 0.16116-2.2638 3.5683z" style="fill-rule:evenodd;fill:#ccebb0"/>
  <path d="m903.39-73.839 8.5793 2.4556 2.966 1.5194 1.3966 1.3237 0.42593 0.6139 0.45663 0.65227 0.73668-0.14199 0.5908 1.5961 0.26483 3.6451 0.67148 4.305 0.93232 4.2551 1.1971 4.2014 1.9453 5.364 2.3827 5.199 1.3544 2.4172 1.4426 2.5746-0.26851 0.31462-1.481-2.4057-1.1626 1.8302 1.1588 0.68296 13.594 16.664 16.955 20.416 10.168 13.065 13.138 17.868 10.947 17.093 9.3237 14.553 9.7458 16.875 8.7634 17.028 7.2747 15.252 2.3636 5.6326v0.60238l-0.9209 0.51031-0.9669-0.19183-2.8431-5.7745-7.6662-15.785-8.3682-15.854-9.4618-16.779-9.6076-14.868-11.092-16.418-13.065-18.122-10.137-13.03-20.009-24.771-4.1669 2.352 6.5343 7.7697 23.877 29.222 17.293 23.436 10.697 18.348 9.9835 17.178 21.878 39.048 0.9361 2.6666-0.088 2.306-0.5756 2.5554-1.8186 0.87482 2.4172 3.6949 5.387-1.8455 4.1515-2.8048-0.2264-4.3779-9.1741-20.911-11.895-22.377-11.338-19.035-17.577-26.789-22.135-29.832-16.533-19.956-6.4652-8.2186-3.269-4.0594-2.9775-4.5007-1.2239-2.21-1.3737-2.682-2.3252-5.0724-1.9069-5.2412-1.1665-4.0901-0.90936-4.1592-0.65603-4.2014-0.39141-4.2321-0.32613-0.36067-0.54098-2.4479-1.2009-1.6997-2.0144-1.3928-0.79424-0.26474v-0.46043l-11.687-2.4172z" style="fill-rule:evenodd;fill:#ccebb0"/>
  <path d="m428.72 329.41 3.8407-9.0206 7.4935-13.456 9.7687-14.929 13.03-14.427 13.755-12.834 10.187-8.9208 2.4019-5.6863 4.7539-15.639-7.0023-3.2-6.8527 7.3822-4.6887 5.8973-3.5722 4.9381-9.1203 15.773-5.0379 7.3247-2.3098 2.2292-2.1908 1.5732-6.2158 1.4043-3.7256 0.49879-5.176 0.89399-1.9837 1.1242-2.939 2.5362-1.3276 2.3175-0.51801 1.4235-0.79036 8.3299z" style="fill-rule:evenodd;fill:#ccebb0"/>
  <path d="m406.82 712.34 2.4786-0.27624 12.105-4.1707 16.598-6.8527 12.535-6.4268 4.8038-2.9698 11.1-6.8603 8.5026-5.8244 4.3395 0.82105 1.696 4.4508-0.0536 2.4326 8.1189-5.1798 13.057-5.5865 12.57-1.201 67.172-5.5059 5.7899-0.77894 5.7208-1.5578 4.0249-1.5539 1.4849-0.77892 0.21101-1.976-0.72515-1.5846-10.513 3.0886-70.633 6.9448-34.252 2.4786 89.488-60.408-1.2662-2.9966-106.01 70.986-10.736 6.8872-5.5443 3.3534-7.6968 4.0288-6.5342 3.2805-6.2158 2.5784-10.244 3.8178-9.7074 2.8201-0.56782 0.4221-0.63306 1.8417z" style="fill-rule:evenodd;fill:#ccebb0"/>
  <path d="m452.95 459.85 1.5961 14.626 46.921-27.89 16.729-10.018 3.3803-4.3357-1.3851-0.73668 0.99379-2.329-5.6057-0.71371-4.3971-1.6997-13.69-8.4028-16.096 22.711-14.864 9.0551z" style="fill-rule:evenodd;fill:#ccebb0"/>
  <path d="m137.29 638.39 0.14199 1.4848 1.412 0.77895 2.9659 0.35299 3.8139-0.56403 5.6517-1.834 2.6129-1.907 5.1568-3.8177 6.7069-3.8139 7.3476-1.5539 5.9357 0.14199 6.6378 1.834 5.5788 2.0489 8.6867 2.5439 6.0047 1.6268 33.408 4.6618 9.7496 0.21108 4.5199-1.1319 1.9031-1.976-0.63307-8.6982-1.3007 2.7088-2.3098 1.6077-2.4134 0.60238-63.769-17.772-3.4148-3.0158-1.0245 3.3764-3.3918 2.6168-8.6138 1.554-6.9946 2.045-7.4168 4.8767-2.6858 2.6782-3.952 3.1846-3.7448 1.4772-5.0148 1.6959z" style="fill-rule:evenodd;fill:#ccebb0"/>
  <path d="m724.52 283.83 0.16115 1.7765 21.218 34.697 1.7841 0.64461 1.8686-0.25319 17.243-13.141 0.56019-1.2623 0.34905-1.0935-0.52178-1.6921-0.72131-1.036-3.2422-5.9932-3.081-5.694-2.9122-6.2963-2.7396-6.0163-2.8431-6.4152-0.68295-0.58324-1.0476-0.18414-0.91307 0.17273-24.253 11.718-0.22639 0.40283z" style="fill-rule:evenodd;fill:#ccebb0"/>
  <path d="m190.48 521.61 0.35299 2.9007 3.0311 8.399 4.7731 10.559 53.218-24.545 0.31845-1.6575-2.3674-5.9011-1.5885 0.42585-16.878-4.5889-2.9314-0.46046-3.1424 0.46046z" style="fill-rule:evenodd;fill:#ccebb0"/>
  <path d="m51.924 640.73 0.25325 0.0959 0.87864-0.69827 12.589 8.1304 6.1084 3.1501 9.9107-15.424 28.566-46.227 5.9088-7.0829 4.6503-3.8253-1.0321-9.8992 2.2024-2.5669-0.72135-1.0858-21.763 31.198-40.514 33.784z" style="fill-rule:evenodd;fill:#ccebb0"/>
  <path d="m639.77 397.33 0.62157 1.4196 2.0374 0.14199 99.36-71.995 2.4825-1.7957 0.26851-1.5233-1.9338-3.1885-8.1074-13.245-5.2373-8.28-7.0407-11.841-0.49497-2.7281-7e-3 -1.4464 1.0244-1.8034 34.501-16.671 1.976-0.38368 1.7304 0.13422 6.0776 1.1319 7.0945 1.2739 7.3131 0.84796 7.2019 0.45658 6.9755 0.0883 3.8484-0.14199 5.6862-0.5103 2.3674-0.35299 4.9994-1.412 4.0595-1.4849 3.7601-1.5655 2.2638-0.47961 1.5845-0.0575 2.1909 0.47962 1.3276 0.75972 1.8686 1.6076 1.2202 1.3928 1.27 0.74055h1.7841l1.1473-0.52951 0.8287-1.0552 0.63689-1.1511-0.35677-1.5156-0.5448-1.2547-2.7703-3.906-2.118-1.2662-3.8868-1.4196-3.6758-0.21104-6.423 1.8417-9.1854 3.388-9.3198 1.1319-12.646 0.28393-12.144-1.2048-10.175-1.976-3.8791-0.21103-3.2499 0.42204-5.9357 2.2599-8.6867 4.3088-24.698 11.468-0.75205-1.3544-6.0508-10.924-1.5539-4.6273 0.21101-3.9904-1.765-3.3573-3.2844-4.7693-1.5923-0.95155-1.5885-0.21104-1.5847 1.27-1.9798 2.54-0.77504 1.6998 0.0691 1.765 1.4158 2.0566 0.011 2.1256 2.1948 3.2268 1.9376-1.2738-1.412-4.2283-0.22633-1.5156 0.59854-0.81727 0.42203-0.42204 1.1319-0.21104 0.66376 0.11129 3.5031 7.3745 3.8139 7.95 3.9904 7.3937 2.2638 3.764 37.536-18.467 3.3879-0.95922 2.2638-0.14199 2.824 0.3223 12.854 2.0451 8.5486 0.56403 8.2647 0.56785 8.1188-0.21101 6.4997-1.201 5.8589-1.6959 6.8528-2.5439 3.8867-0.85179 3.4609 0.49879 3.741 1.907 2.8278 1.765 1.3429 2.0451 0.1037 1.0283-0.70593 0.77506-1.0245 0.21103-0.59863-0.52567-1.8724-2.0834-1.2354-1.201-1.481-0.85179-2.5439-0.88247-2.0873 0.0383-2.1525 0.35299-3.7793 1.27-6.8873 2.6858-3.457 0.81342-4.8767 0.80574-6.2465 0.53718h-4.4163l-5.7898-0.31848-7.9117-0.53332-7.0984-0.95155-5.6171-0.88249-4.7348-0.74051-1.3045-0.0729-1.5885 0.35299-1.5923 0.4988-1.2354 0.59471-36.228 17.216-0.42203 0.68686 0.17274 0.80188 3.2729 5.5175 20.508 34.659z" style="fill-rule:evenodd;fill:#ccebb0"/>
  <path d="m439.33 245.62 0.29545 0.26089 2.2868-0.50646 3.4071-0.11128 3.906-1.6691 3.0695-1.5693 2.7318-1.7266 2.5132-1.0628 2.2522 2.8662 25.277-21.947 20.988-18.275 81.745-65.58 0.50263-1.8072-0.0536-1.0014-2.1564-2.5093-11.944 9.6037-103.72 84.485-2.1256-2.6052z" style="fill-rule:evenodd;fill:#ccebb0"/>
  <path d="m430.87 690.34 1.8379-0.93241-0.24938-0.752 0.42204-0.46044 9.9606-5.1184 1.4465-2.1563 0.70981-1.9262 7.6661-55.505 1.6691-8.9821 1.8379-5.034 3.8868-7.0215 57.304-88.398-2.1103-0.44124-61.997 93.593-4.8575 9.7265-2.7242 8.6138z" style="fill-rule:evenodd;fill:#ccebb0"/>
  <path d="m494.6 478.93 5.6364 2.7817 85.536-114.19 10.425-14.024-0.97457-0.49116-2.7434-1.0935-0.85563-0.6714-58.221 76.941z" style="fill-rule:evenodd;fill:#ccebb0"/>
  <path d="m588.81 128.57 2.3098 2.4633 1.0513 0.24556 2.8125-0.60239 69.843-56.337 39.67-32.433 18.026-18.532-0.65227-1.7036-12.903 10.145-27.768 22.392-67.437 54.403z" style="fill-rule:evenodd;fill:#ccebb0"/>
  <path d="m391.12 249.93 0.33378 1.6307 0.62541 0.44507 0.50646-0.0805 3.7065-3.1194 1.1549-0.66377 0.61009 0.011 0.83259 0.94003 3.3112-2.9352-0.71749-0.77888v-1.0245l31.125-25.949-4.5698 2.728-3.6834 2.3175-2.4709 1.2316-2.3367 0.36066-2.9161-0.62157-1.9031-1.5117-18.471-23.332-0.49498-1.5232-0.0729-1.3736 0.98989-2.8662-1.4542-0.52182-0.4528 0.70214-1.1626 2.3674-0.39134 2.0067-1.3045 30.373z" style="fill-rule:evenodd;fill:#ccebb0"/>
  <path d="m338.66 542.9 5.4369 0.49879 8.2647 0.92085 9.7458 2.6858 10.103 2.9621 7.4129 2.8239 4.6618 2.7588 0.92084-34.049-8.3337-1.0551-20.059 10.878-17.941 10.801z" style="fill-rule:evenodd;fill:#ccebb0"/>
  <path d="m79.65 938.45 7.7352 5.6479 1.8647-2.6704 30.123-46.496-14.764-9.7725-7.1251 11.016-1.646 2.6973-5.4752 8.9552 6.0469 3.9022z" style="fill-rule:evenodd;fill:#ccebb0"/>
  <path d="m810.59 297.52 0.83649 1.9644 0.94381 1.6192 2.6091 4.2858 3.3112 5.5635 3.2882 5.5443 0.82103 1.412 0.9784 0.67145 0.70605 0.37222 1.2777 0.138 1.3851-0.69828 3.1386-2.7281 11.706-10.609 0.3837-1.623-0.011-2.095-1.0436-2.0681-2.4172-5.6326-2.5938-6.1928-2.5822-6.1582-0.93232-2.6398-1.1204-0.88251-1.6422 0.0653-15.969 13.41-2.0719 1.7189-0.35689 0.39135-0.64455 1.7228z" style="fill-rule:evenodd;fill:#ccebb0"/>
  <path d="m723.93 552.19 1.4311 1.976 2.3674 0.8825 1.3045 0.31849 3.0734-1.4504 89.864-76.109-5.0033-3.7717z" style="fill-rule:evenodd;fill:#ccebb0"/>
  <path d="m462.47 395.4 2.6513 46.745 12.27-8.7366 14.457-17.903z" style="fill-rule:evenodd;fill:#ccebb0"/>
  <path d="m102.47 721.1 5.2297 25.711 2.6782 16.314 1.0168 6.4536-3.6719 7.3784 4.5621-1.5655 3.6182-2.6398 3.6757-3.4993 2.5516-3.7601 1.5693-4.9342 2.9889-13.479-5.4254-5.6824-16.656-26.574-1.4312 3.5261z" style="fill-rule:evenodd;fill:#ccebb0"/>
  <path d="m-31.731 776.53 151.4 98.543 1.293 0.24178 1.1588-0.34157 0.82877-0.71359 20.32-32.955 1.7228-0.94004 2.7511-0.0729 2.6283 0.31466 3.4456 1.2393 1.3506-0.34917-4.7424-3.2882-5.9587-4.2974-1.201 1.6882-16.291 29.325-2.7626 3.0964-1.6192 1.2546-1.9568 0.79042-2.8163 0.24172-3.1232-0.72132-45.402-29.955-88.939-58.413-4.3625-3.058-1.9185-2.2522-0.31845-1.8187 0.03835-2.072 0.27244-2.0681 0.62541-1.623 12.113-17.715 1.6575-3.1769 0.94772-5.0762 0.19184-3.4954-2.5822 6.4268-0.49112 1.9453-18.218 27.656z" style="fill-rule:evenodd;fill:#ccebb0"/>
  <path d="m610.6 71.779 2.4095 3.7179 1.1856-0.59087-0.92085-1.481 0.24943-1.1319 0.43353-0.894 27.284-19.691 64.161-48.276h1.4581l1.3583 0.69065 1.8992 2.2369 0.8019 1.976 0.95536-1.1818 0.75589-2.7587-5.8781-11.396-2.1333-1.788-1.7228 1.4542 1.8187 3.5913-16.61 12.201-2.2906-3.1117-5.4637 4.3817 3.0081 2.6359-27.065 21.464-2.5362-2.87-4.4432 12.251z" style="fill-rule:evenodd;fill:#ccebb0"/>
  <path d="m764.05 88.166 6.1813 5.2182 3.7217 4.4086 3.1118 4.8191 2.045 7.6815 1.999 12.6-0.28396 13.844-2.962 13.303 0.21866 1.7496 3.2844 4.5506 5.2259 6.0815 4.0288 3.6719 1.5117 0.14199-1.5616-13.916-6.2465-44.182-1.3315-6.9985-2.9582-4.7117-15.221-11.894z" style="fill-rule:evenodd;fill:#ccebb0"/>
  <path d="m583.45 858.08 11.169 1.3506 16.679 0.5103 29.598-1.0321 20.125-0.52178-0.73671-9.4349-76.569 6.7222z" style="fill-rule:evenodd;fill:#ccebb0"/>
  <path d="m543.1 528.28 0.63314 1.3045 3.0004 4.6618 1.907 1.3774 1.9107 0.1458 1.5846-0.49879 1.7305-1.0935 37.721-32.878 2.1525-2.6475 0.77886-1.8033 0.63697-2.4364 0.10358-1.343-0.21485-1.0244-2.2945-2.5784-1.059-0.49109-1.128-0.0767-1.1664 0.49881-0.6714 1.1703-1.1319 3.3496-1.3774 2.3674-1.5846 2.0796-3.2498 2.8662-24.545 21.398-1.3583 0.79808-1.4503 0.5448-2.2944 0.15737-2.2408-0.29926-2.3328-1.27-0.88632 0.13801-1.3736 1.343-0.77886 0.92084-0.84414 1.4849z" style="fill-rule:evenodd;fill:#ccebb0"/>
  <path d="m-39.39 728.03 1.224 0.32996 1.7074-2.0949 4.0978-2.4058 3.5299-1.4119 6.4997-2.1948 6.7069-0.63305 6.7491 0.24936 0.17654-5.5443-0.8326-12.75-0.74052-11.05-0.54868-2.4748-0.6024-0.0883-6.2848 9.0244-12.501 18.26-3.9213 5.4676z" style="fill-rule:evenodd;fill:#ccebb0"/>
  <path d="m529.39 557.38 14.906 23.275 16.226 25.331 4.6388-3.15-0.096-0.0691-26.812-49.074 0.0998-0.49113 0.3683-0.18034-1.5348-2.8086-7.2825 4.7194-0.4489 1.1626z" style="fill-rule:evenodd;fill:#ccebb0"/>
  <path d="m536.53 516.06 0.24562 1.435 0.47576 1.3813 0.69061 1.2815 1.7343 2.893 0.42204 0.33761 1.8532-1.5348 1.9261-2.0834 0.14199-0.39132 0.0729-0.5602-0.3069-1.1933-0.188-1.4772 0.0268-1.8647 0.49881-1.6729 0.8479-1.5271 7.3438-11.407 8.7482-11.61 1.4081-1.3736 1.5885-1.1433 1.907-0.96692 2.0336-0.65998 2.1141-0.31841 1.5846-0.76355 1.3122-1.1741 0.93621-1.4926 0.48349-1.6882v-1.7611l-0.48349-1.6883-0.93232-1.4925-1.2892-1.1626-1.5502-0.76348-1.6997-0.31082-1.7266 0.15338-1.6115 0.62157-1.389 1.0398-1.0513 1.3736-2.6129 3.9213-14.757 19.948-7.4896 12.259-0.82494 1.7036-0.44125 1.8378z" style="fill-rule:evenodd;fill:#ccebb0"/>
  <path d="m906.02 259.17 1.9147 1.9645 10.916 4.9074 10.375 4.282 10.505 3.9597 10.621 3.6297 10.897 3.3535 10.997 3.0081 11.081 2.659 11.419 2.306 1.412-0.35301 1.2738-1.1703 0.66759-1.5156 0.10749-1.4503-0.46032-1.1626-1.4158-0.80578-11.541-2.3866-10.878-2.6129-10.793-2.9506-10.694-3.2882-10.429-3.5683-10.31-3.883-10.183-4.2091-10.882-4.8844-2.0835 0.23403-1.4925 0.68297-0.83634 1.4388zm3.0312-0.38754 0.44118-1.1319 1.1319-0.51416 10.103 4.5429 10.241 4.2282 10.367 3.9098 10.482 3.5836 10.751 3.3074 10.854 2.966 10.939 2.6244 11.016 2.2791 0.95542 0.92083-0.38757 1.2355-1.082 0.59088-11.112-2.2983-11.023-2.6474-10.939-2.9928-10.835-3.3304-10.563-3.6105-10.448-3.9405-10.321-4.259-10.191-4.5812z" style="fill-rule:evenodd;fill:#ccebb0"/>
  <path d="m809.12-42.775 1.5002 1.5539 32.525-24.192 15.098-11.096 4.5276-2.7319 4.3088-2.1563 4.1323-1.3045 3.2345-0.48729 4.9573 0.19953 5.0148 0.70982-0.22257-1.5961-0.62541-0.16876-7.0637-9.5539-0.63695-0.86713-0.64838-0.37218-0.70989 0.26859-20.712 17.059-33.788 26.666h-0.3683l-0.22634-0.27242z" style="fill-rule:evenodd;fill:#ccebb0"/>
  <path d="m430.87 690.34 1.554 0.57166 2.0489 0.21103h1.7612l1.0628-0.34528 7.3822-3.7793 7.3784-4.2781 10.421-6.8834 55.232-37.049 40.928-27.407 0.46044-1.0552 0.24554-1.4465-0.66757-1.6345-2.7242 1.8494 0.28397 0.5986-0.1037 0.52565-37.26 25.251-0.80956 0.14579-0.33768-0.54099-3.9635 2.6973 0.1344 0.21485v0.65999l-47.432 32-10.521 7.0599-9.573 5.3716-12.75 6.6724-0.91317-0.34152z" style="fill-rule:evenodd;fill:#ccebb0"/>
  <path d="m549.56 510.31 0.81339 0.88251 20.765-17.696 3.2115-0.0344 9.2507-7.6968 1.7343-1.976 0.56018-16.564-0.38368-0.564-0.85181 0.31846-1.692 1.4081-4.3472 2.5132-0.91702 0.91319-0.20721 0.98611 0.74052 1.5233 0.35301 1.481 0.17273 2.1563-0.564 2.5055-0.81338 2.0489-1.623 2.1563-1.976 1.4504-1.1549 0.52183-1.884 0.8518-3.952 1.4849-2.6513 1.4772-1.9453 1.8801-7.5894 9.9184z" style="fill-rule:evenodd;fill:#ccebb0"/>
  <path d="m834.55 270.5 1.2739 2.5899 0.55247-0.80189 1.1626-0.31465 0.65607 0.28006 3.6834 9.7803 4.0325 9.6421 4.378 9.4925 4.7155 9.3275 5.0494 9.151 5.4599 9.0973 5.7898 8.8978 6.1121 8.6829 6.423 8.445 6.7299 8.211-0.14579 1.2316-0.59855 0.4297 2.5285 1.8955 0.59853-0.9976 0.35295-1.1664 0.0505-1.3237-0.53332-1.4925-6.7912-8.5141-6.3616-8.372-6.0508-8.5908-5.7362-8.8134-5.4062-9.0128-5.0032-9.0627-4.6657-9.2354-4.3357-9.4043-3.998-9.5462-4.0825-10.843-1.3122-0.7712-1.3276-0.37221z" style="fill-rule:evenodd;fill:#ccebb0"/>
  <path d="m541.29 54.225 0.63689 0.1496 0.84797 0.48344 2.4096 2.8355 32.28 40.168 0.70599 0.29928 0.81345-0.10749 3.3035-2.3635 1.2355-0.23021 0.21874 0.18801 1.3774-0.87482-3.1961-4.5812-3.223-0.64076-3.0503-2.0758-29.157-35.936-1.93 0.70216z" style="fill-rule:evenodd;fill:#ccebb0"/>
  <path d="m520.95 503.32 2.2484 2.5132 32.686-51.986 3.8523-4.0249 3.5875-2.6973 12.574-9.2546-1.7381-2.7587-1.1971-0.80962-2.5746-1.7419-6.964 5.8014z" style="fill-rule:evenodd;fill:#ccebb0"/>
  <path d="m604.1 357.87 16.291 29.736 6.3539-3.9712-19.046-35.622-1.0168-1.834-1.6077 4.1132-0.91702 3.2537z" style="fill-rule:evenodd;fill:#ccebb0"/>
  <path d="m869.28 753.5 8.9976-0.67146-0.35684-3.1808-6.354-58.267z" style="fill-rule:evenodd;fill:#ccebb0"/>
  <path d="m852.43 438.69 1.0936 2.0144 10.417-4.6925 9.4771-4.9342 7.1903-4.3894 2.7166-1.7343 6.1121-4.4124 4.8039-3.599 5.6862-4.9841 5.9664-5.6134 12.432-10.456 0.59853-1.339 0.39134-1.6614-0.16495-1.8647-0.26094-1.0129-0.24552-0.77121-0.43361-0.77126-20.443-19.2-0.84415-0.37603-0.84797 0.54488-1.7074 1.8072 1.9607 1.9722 0.13422-0.8825 0.58699-0.65226 1.0858-0.21874 1.3698 1.5425 14.296 14.903 3.1118 3.3189 0.43736 0.74052-0.0728 0.63307-0.0845 0.70988-0.38746 1.0436-21.241 17.604-4.7155 4.0096-5.0839 4.1131-4.0249 3.0197-2.0566 1.3122-3.3496 2.1333-7.5203 4.4853z" style="fill-rule:evenodd;fill:#ccebb0"/>
  <path d="m552.77 542.02 0.39135 0.46046 2.9966 0.46045 2.4402-0.4221 1.7995-0.39134 4.3472-3.741-1.2738-1.412 34.045-29.809 1.6921 1.6997 2.0873-2.5822 0.28005-1.765 0.10749-2.118-0.24554-1.2355-0.42594-0.77887-0.77503-0.38368-0.98995 0.21101-3.1462 2.6091-1.0206 1.8417-42.026 36.443z" style="fill-rule:evenodd;fill:#ccebb0"/>
  <path d="m530.53 524.51 0.10371 1.976 0.98987 2.7894 11.3 20.343 2.7549 1.6959 2.6858 0.28012 1.8724-0.38752 1.9031-1.2355 3.2844-2.6168 0.24944-0.98606-0.353-0.70217-0.56402-0.35682-2.7588-0.21101-2.9966-1.1319-3.0388-1.9069-1.907-2.3981-9.8877-17.657-0.8863-1.8878-0.47579-1.4695-0.9362 1.343-0.98607 2.3635z" style="fill-rule:evenodd;fill:#ccebb0"/>
  <path d="m589.2 462.56 0.0574 1.834 0.31459 1.2201 0.60244 1.1972 1.3199 1.4695 1.1702 0.86336 1.5655 0.74433 1.4503 0.47195 1.976 0.23022 1.9108-0.17273 0.57939-0.2686 0.16116-0.33385-0.56402-0.61768-2.0489-2.329-1.6575-1.9453-0.8825-2.966-0.42591-3.3189 0.56401-3.2805 0.88249-2.7204 1.2355-1.8724 1.3045-1.5539 5.5482-4.3434 0.52949-1.4848-0.38753-1.059-1.3774-0.77503-1.8034-0.35684-1.623-0.17273-1.5885 0.49113-5.3678 3.6374-1.4503 1.7343-1.0206 1.9069-0.67149 2.0834z" style="fill-rule:evenodd;fill:#ccebb0"/>
  <path d="m608.18 438.02 0.70982 1.3736 0.84407 0.39135 3.8868-3.7486 2.329-1.765 2.6513-1.3045 3.3534-0.70983 3.5683 0.14199 2.8969 0.63307 3.2805 1.9108 1.4849 0.88251 0.84797-0.24173 0.67141-0.53715 0.31847-1.1971 0.24554-1.7305-4.9457-9.3965-0.81345-0.95155-1.0896-0.46044-1.4504-0.14199-1.6959 0.49873-15.467 11.365-0.63696 0.60626-0.81339 2.3674z" style="fill-rule:evenodd;fill:#ccebb0"/>
  <path d="m740.07 153.68 2.5937 0.75969 29.809-4.1707 1.4848-0.63692 0.63702-0.96306-25.811-4.3395-3.1194 0.37601z" style="fill-rule:evenodd;fill:#ccebb0"/>
  <path d="m602.57 476.16 0.13802 2.0834 0.63694 2.3674 1.2508 1.4849 0.81345 0.24943 1.4312 0.70209 1.6575 1.0935 1.2738 0.5334 1.27 0.0691 1.2738-0.24943 1.2355-0.7367 9.0397-8.0191 0.67148-1.6614-0.1037-1.5539-0.18034-1.0935-0.81336-1.3046-0.52951-0.32223-0.5986 0.18034-1.2738 1.0935-2.8239 1.8724-2.5055 0.98613-2.8623 0.42203-2.966-0.28013-2.5438-0.52566-1.481-0.56784-0.52951-0.10358-0.7405 0.88249-0.56785 1.2355z" style="fill-rule:evenodd;fill:#ccebb0"/>
  <path d="m537.18 550.21 1.5348 2.8086 0.18416-0.0843 0.20718 0.14199 26.854 49.235-0.0268 0.45279-0.48726 0.28005-0.29161-0.21101-4.6388 3.1501 1.6154 0.91318 1.9376 0.17653 0.92091-0.14199 1.9414-1.2316 1.0245-1.6307 0.211-1.3045-0.0691-1.765-27.261-49.937-1.2738-0.95154-1.3429-0.0729z" style="fill-rule:evenodd;fill:#ccebb0"/>
  <path d="m568.67 466.87 0.31847 0.6714 2.2945 0.35301 1.2009 0.17654h1.8724l1.412-0.1458 2.6512-0.7021 1.2662-0.74441 2.3674-1.5539 1.9452-2.329 1.1626-2.5439 0.63689-1.7266 0.24561-7.739-1.0935-0.0306-2.824 2.1179-4.5928 3.53-6.7452 7.2402z" style="fill-rule:evenodd;fill:#ccebb0"/>
  <path d="m579.72 409.21 0.19947 1.0513 0.90552 0.80188 1.2546 0.3031 1.4043-0.90162 16.522-22.849v-1.458l-0.8518-0.75201-1.4082-0.39907-1.7573 0.24944-16.169 22.699z" style="fill-rule:evenodd;fill:#ccebb0"/>
  <path d="m515.25 513.61 2.1103 0.44124 1.5195-0.25325 2.0028 1.0437-7e-3 1.8532-0.4489 0.85173 0.3798 0.706 13.817 25.78 0.34909 0.95919-0.38368 0.59088 1.554 2.6283 0.80955-1.3122 0.31848-0.99379 0.1037-1.3352-3.6681-6.964-7.7045-14.55-3.5644-8.5448-0.77891-1.6575-2.893-1.623-1.2853 0.18033z" style="fill-rule:evenodd;fill:#ccebb0"/>
  <path d="m742.65 332.58 1.6806 2.2407 0.55629-0.95154 0.71366-0.5947 0.97838-0.42976 1.1895 0.0807 21.74 36.224 4.8268 8.5601 0.1306-3.4148-6.2887-9.8493-9.4695-16.913-9.8646-16.215-1.2393-0.62925-1.0935-0.0306-2.1296 0.57168z" style="fill-rule:evenodd;fill:#ccebb0"/>
  <path d="m662.09 288.51 13.851 22.269 2.8546-1.7765-13.851-22.269z" style="fill-rule:evenodd;fill:#ccebb0"/>
  <path d="m650.79 299.68 11.215 18.54 3.2307-1.953-12.32-20.366z" style="fill-rule:evenodd;fill:#ccebb0"/>
  <path d="m308.22 660.69 8.9668 10.502 0.84414-0.62541 4.0863 0.83648-1.7803-10.352-7.9731 0.011-0.82882-0.66375z" style="fill-rule:evenodd;fill:#ccebb0"/>
  <path d="m610.32 343.24 1.3161 2.4326 6.4076 11.795 4.47-3.7601-4.0211-6.6954-1.8916-2.1563-2.5669-3.058z" style="fill-rule:evenodd;fill:#ccebb0"/>
  <path d="m675.19 282.08 12.293 19.369 2.8508-1.8072-12.286-19.369z" style="fill-rule:evenodd;fill:#ccebb0"/>
  <path d="m688.2 274.83 11.442 18.087 3.0426-1.9223-11.445-18.087z" style="fill-rule:evenodd;fill:#ccebb0"/>
  <path d="m844.51 93.592 4.9456 9.5654 1.1664 0.60239 1.1626 0.28008 1.1703-1.0935 0.45661-2.3635 0.31849-2.8623-0.35307-1.8724-0.95542-1.6614-2.2598-2.4364-2.7204-0.77506h-1.5885l-1.0244 0.70598z" style="fill-rule:evenodd;fill:#ccebb0"/>
  <path d="m635.09 458.92 0.81345 1.2048 1.0245 0.59853 1.8686-0.14199 1.3813-1.2317 0.74052-2.1563 1.0245-7.5203 0.0306-0.67911 0.14578-2.9621-0.24559-1.834-0.95537-2.4019-0.85947-1.2777-0.22638-0.21102-0.22251-0.0306-0.91701 0.353-0.38751 0.39135-0.10749 0.56402-0.10749 1.412 0.88248 3.2153v2.9621l-0.88248 2.9659-0.95154 2.7895-1.059 1.5923-0.8825 1.1664z" style="fill-rule:evenodd;fill:#ccebb0"/>
  <path d="m390.24 698.18 1.2546 3.3611 2.54-0.45658 13.418-3.9213 15.42-4.7577 0.79043 0.41056 0.3031 0.63689 1.0935-0.72131-0.29927-0.8633-1.0628-0.98993-1.128-0.14199-28.324 8.1228z" style="fill-rule:evenodd;fill:#ccebb0"/>
  <path d="m618.42 343.67 1.5424 2.4249 13.114-8.7481-3.104-5.1453-2.187 2.1372z" style="fill-rule:evenodd;fill:#ccebb0"/>
  <path d="m641.52 309.06 6.2158 12.136-2.0528 1.1702 3.9981 5.7745 3.0311-2.6858-9.7726-19.261z" style="fill-rule:evenodd;fill:#ccebb0"/>
  <path d="m623.84 350.99 1.8532 1.0168 23.24-16.974-1.0551-1.5962z" style="fill-rule:evenodd;fill:#ccebb0"/>
  <path d="m662.54 275.66 2.7895 1.6959 1.9299-1.3659 1.3659 2.306 8.1419-4.562 0.91702 1.623 1.9952-1.0782-0.36836-1.8878-15.117 0.56401z" style="fill-rule:evenodd;fill:#ccebb0"/>
  <path d="m599.11 491.21 2.3329 2.682 6.9908-5.8666-1.4465-0.78659-0.10749-0.0575-1.2355-0.92084-1.4849-0.70209-1.3774 0.0691-1.4465 0.56785-1.27 1.0935-0.74052 0.98606-0.21492 1.412z" style="fill-rule:evenodd;fill:#ccebb0"/>
  <path d="m592.05 483.04 0.42203 1.4466 1.4466 1.5232 1.3429 0.5295 0.88249-0.10749 0.84797-1.4158 1.1472-1.2661 0.97074-0.84797 0.49497-0.85179v-1.1626l-0.49497-1.1664-1.6575-0.52951-1.2355-0.0384-0.95536 0.10749-1.7688 1.765-0.87865 1.2047z" style="fill-rule:evenodd;fill:#ccebb0"/>
  <path d="m576.44 497 0.17654 1.059 0.31848 1.3775 0.59851 0.59854 4.6618-4.4815 1.6268-1.9453 0.56409-2.0144 1.0589-2.751-0.17635-0.46044-8.4412 7.2786z" style="fill-rule:evenodd;fill:#ccebb0"/>
  <path d="m588.69 480.68 0.63307-0.11128 3.7832-3.2805 0.7405-1.0552 0.3837-1.0283-0.17274-1.3775-0.63305-0.80956-2.3328-0.89014-1.5885-1.0552-0.56402 0.17274z" style="fill-rule:evenodd;fill:#ccebb0"/>
  <path d="m606.68 346.18 1.0168 1.834 3.9367-2.3482-1.3161-2.4326-0.53716 0.43742z" style="fill-rule:evenodd;fill:#ccebb0"/>
 </g>
 <g id="path">
  <path d="m425.5 341.68 8.6177-21.326 10.747-18.03 8.9093-11.338 6.2925-7.409 6.5611-6.2656 18.636-16.671 4.2628-6.1774 6.3808-16.529 9.5001-17.078 11.369-10.947 13.341-10.513 13.352-11.169 33.692-27.741 77.778-60.888 46.568-34.359 4.8154-3.3381 4.3472-2.7434 2.7664-1.1856 2.4211-0.53718 2.9774-0.29544 2.7356 0.04231 2.6283 0.32997 2.5362 0.44124 2.9966 0.96305 2.4057 0.94388 2.7549 1.5808 2.9353 1.765 7.033 4.6196 25.964 15.313" style="fill:none;stroke-linecap:round;stroke-linejoin:round;stroke-width:7.9375;stroke:#0000ff"/>
  <path d="m426.92 316.33 0.72138-21.383 0.83259-10.106 1.6307-4.5237 2.6743-2.8278 3.9251-1.6307 14.112-2.1103 4.9611-2.9045 4.5774-7.2019 10.924-21.149 7.5395-10.248 16.357-15.371 160.24-129.26 31.67-25.473 16.89-13.514 4.0325-2.7242 3.4225-1.7036 2.9851-0.72517 2.9506-0.0461 3.1309 0.80958 4.7808 2.6359 16.318 12.382 29.241 23.881 4.1247 3.2268 6.7338 5.2796 2.9544 3.1117 2.4288 3.9597 1.1473 3.3688 0.48719 3.7947 0.64844 6.4498 0.68679 4.328 4.4662 36.489 1.5923 15.9 2.1486 16.974-0.64466 4.5007-1.0551 3.3189-1.0398 2.6283-2.068 3.7371-2.0757 3.081-2.5478 2.5822-2.8584 2.3904-2.7089 1.9415-3.1655 1.7228-2.6397 1.0628-2.8125 0.77506-3.8561 0.67144-4.5352 0.0306-3.5644-0.42973-3.7256-0.99377-8.1343-3.1117-6.3577-2.7357-4.2053-1.9261-2.7281-1.7113-2.4671-1.8724-2.8815-2.9928-1.8493-2.9122-1.623-2.751-1.1741-2.4556-1.4734-3.7563-0.85179-2.9391-0.36067-3.5913-0.21872-3.7256 0.89021-4.681 1.1856-3.645 3.6911-7.0944 5.2911-8.2225 9.3467-15.697 1.0436-3.7294 0.49882-3.2498-0.13042-2.9468-0.80962-3.599-0.77505-2.6858-1.1856-2.5861-1.0092-1.8264-1.7419-2.2369-1.8379-1.5309-2.3558-1.082-2.6129-0.62923-3.1501 0.19565-2.87 0.86332-2.164 1.3928-2.3137 2.0451-2.9199 3.4072-2.6781 3.6604-9.9568 16.963-10.555 21.533-11.829 37.966-9.88 18.517-31.892 49.776-39.493 60.665-12.136 16.503-37.176 48.441-21.966 29.287-10.352 13.636-27.66 37.39-5.4676 3.5798-6.6032 1.293-18.697 1.3506-12.382 3.2537-13.69 8.6522-9.8877 8.775-7.8579 11.549-5.3755 14.96-1.8302 28.65-2.1832 41.561-1.1971 27.234-1.7765 10.843-1.4963 4.6733-2.5401 4.3894-3.8868 4.7232-3.672 3.1079-5.0839 3.672-5.3524 2.6858-4.7501 1.4158-4.7501 0.65227-9.6229-0.0575-16.265-1.3775-26.816-2.0758-14.684 0.37215-43.399 5.4829-21.199 0.77121-55.842-0.49108-14.078-0.11899-9.7265 0.62157-10.275 3.2613-7.152 6.5957-3.9175 8.1649-2.3712 12.197-13.034 67.115-2.3367 5.3256-2.9314 4.7463-4.2781 4.2206-4.4278 2.8508-3.833 1.742-4.1822 0.76355-5.3524 0.29929-5.1453-0.49882-9.7726-4.1516-16.656-10.751-9.7649-7.574-6.5956-7.9386-5.2259-9.1701-3.2268-11.204-1.2739-11.43 1.6038-14.358 4.1937-10.475 11.046-17.888 46.365-72.602 4.4546-6.7376 4.1208-5.786 4.5467-4.635 5.6364-4.0096 7.1596-3.2498 135.07-62.541 5.5635-2.2676 9.6843-1.7036 42.141-5.2604 9.3544-2.6782 10.521-5.0532 48.08-26.824 8.3452-7.1596 5.6019-6.7299 10.513-18.62 4.1247-14.626 1.8302-15.018 0.49495-16.245 0.71749-34.006 1.0743-17.918 1.412-25.346" style="fill:none;stroke-linecap:round;stroke-linejoin:round;stroke-width:14.552;stroke:#00ff00"/>
 </g>
 <g id="track">
  <path d="m425.5 341.68 8.6177-21.326 10.747-18.03 8.9093-11.338 6.2925-7.409 6.5611-6.2656 18.636-16.671 4.2628-6.1774 6.3808-16.529 9.5001-17.078 11.369-10.947 13.341-10.513 13.352-11.169 33.692-27.741 77.778-60.888 46.568-34.359 4.8154-3.3381 4.3472-2.7434 2.7664-1.1856 2.4211-0.53718 2.9774-0.29544 2.7356 0.04231 2.6283 0.32997 2.5362 0.44124 2.9966 0.96305 2.4057 0.94388 2.7549 1.5808 2.9353 1.765 7.033 4.6196 25.964 15.313" style="fill:none;stroke-linecap:round;stroke-linejoin:round;stroke-width:5.2917;stroke:#1a1a1a"/>
  <path d="m426.92 316.33 0.72138-21.383 0.83259-10.106c1.0322-5.4566 3.0154-7.6661 8.2301-8.9821l14.112-2.1103s3.4505-0.28819 4.9611-2.9045l4.5774-7.2019 10.924-21.149c6.234-10.121 15.326-17.565 23.896-25.619l160.24-129.26 31.67-25.473 16.89-13.514c8.5378-6.0894 12.157-6.7962 21.302-1.7535l16.318 12.382 29.241 23.881 4.1247 3.2268 6.7338 5.2796c6.4503 5.5896 6.8691 12.757 7.6661 20.685l0.68679 4.328 4.4662 36.489 1.5923 15.9c0.89736 7.2354 2.539 14.249 1.504 21.475l-1.0551 3.3189-1.0398 2.6283-2.068 3.7371-2.0757 3.081-2.5478 2.5822-2.8584 2.3904-2.7089 1.9415-3.1655 1.7228-2.6397 1.0628-2.8125 0.77507-3.8561 0.67145-4.5352 0.0306-3.5644-0.42972-3.7256-0.99377-8.1343-3.1117-6.3577-2.7357-4.2053-1.9261-2.7281-1.7113-2.4671-1.8724-2.8815-2.9928-1.8493-2.9122-1.623-2.7511-1.1741-2.4556-1.4734-3.7563-0.85179-2.9391-0.36067-3.5913-0.21872-3.7256 0.89021-4.681 1.1856-3.645 3.6911-7.0944 5.2911-8.2225 9.3467-15.697 1.0436-3.7294 0.49882-3.2498-0.13042-2.9468-0.80962-3.599-0.77505-2.6858-1.1856-2.5861-1.0092-1.8264-1.7419-2.2369-1.8379-1.5309-2.3558-1.082-2.6129-0.62924-3.1501 0.19566-2.87 0.86332-2.164 1.3928-2.3137 2.0451-2.9199 3.4072-2.6781 3.6604-9.9568 16.963-10.555 21.533-11.829 37.966-9.88 18.517-31.892 49.776-39.493 60.665-12.136 16.503-37.176 48.441-21.966 29.287-10.352 13.636-27.66 37.39-5.4676 3.5798-6.6032 1.293-18.697 1.3506-12.382 3.2537-13.69 8.6522-9.8877 8.775-7.8579 11.549-5.3755 14.96-1.8302 28.65-2.1832 41.561-1.1971 27.234-1.7765 10.843-1.4963 4.6733-2.5401 4.3894-3.8868 4.7232-3.672 3.1079-5.0839 3.672-5.3524 2.6858-4.7501 1.4158-4.7501 0.65228-9.6229-0.0575-16.265-1.3775-26.816-2.0758-14.684 0.37214-43.399 5.4829-21.199 0.77121-55.842-0.49108-14.078-0.11899-9.7265 0.62157-10.275 3.2613-7.152 6.5956-3.9175 8.1649-2.3712 12.197-13.034 67.115-2.3367 5.3256-2.9314 4.7463-4.2781 4.2206-4.4278 2.8508-3.833 1.742-4.1822 0.76355-5.3524 0.29927-5.1453-0.4988-9.7726-4.1516-16.656-10.751-9.7649-7.5741-6.5956-7.9385-5.2259-9.1701-3.2268-11.204-1.2739-11.43 1.6038-14.358 4.1937-10.475 11.046-17.888 46.365-72.602 4.4546-6.7376 4.1208-5.786 4.5467-4.635 5.6364-4.0096 7.1596-3.2498 135.07-62.541 5.5635-2.2676 9.6843-1.7036 42.141-5.2604 9.3544-2.6782 10.521-5.0532 48.08-26.824 8.3452-7.1596 5.6019-6.7299 10.513-18.62 4.1247-14.626 1.8302-15.018 0.49495-16.245 0.71749-34.006 1.0743-17.918 1.412-25.346" style="fill:none;stroke-linecap:round;stroke-linejoin:round;stroke-width:14.552;stroke:#1a1a1a"/>
 </g>
</svg>
