<?xml version="1.0" encoding="UTF-8"?>
<svg width="504.47" height="306.98" version="1.2" viewBox="0 0 378.35 230.24" xmlns="http://www.w3.org/2000/svg">
 <defs>
  <clipPath>
   <rect width="596" height="842"/>
  </clipPath>
 </defs>
 <g>
  <path d="m374.54 27.225h-52.381l-9.4965 27.029h15.031v56.839h30.733v-56.839h16.113z" fill="#005ca9"/>
  <path d="m287.29 27.225-13.104 36.949-9.9361-36.949h-23.153l-9.9361 36.949-13.098-36.949h-31.234l29.482 83.869h25.441l10.922-40.815 10.922 40.815h25.441l29.482-83.869z" fill="#005ca9"/>
  <path d="m178.24 68.041c6.2841-3.9057 10.472-10.832 10.472-18.728 0-12.196-9.9643-22.088-22.257-22.088h-46.034v83.869h50.554c12.315 0 22.301-9.908 22.301-22.133 0-9.6939-6.2898-17.928-15.037-20.921m-32.052-20.013h8.2284c2.4516 0 4.4411 2.5249 4.4411 5.6359 0 3.111-1.9895 5.6359-4.4411 5.6359h-8.2284zm12.568 44.659h-12.489v-12.258h12.489c2.739 0 4.9652 2.7446 4.9652 6.1319 0 3.3871-2.2262 6.1263-4.9652 6.1263" fill="#005ca9"/>
  <path d="m81.214 38.767-0.033762-0.039388-59.735-33.28v10.55l-16.767-8.8203v66.797c0 21.636 17.674 39.181 39.485 39.181 4.4298 0 8.6849-0.73831 12.658-2.0684 1.6569 0.20853 3.3421 0.33251 5.0554 0.33251 21.63 0 39.165-17.403 39.165-38.866 0-14.478-7.9862-27.103-19.827-33.787m-37.051 68.432c-18.491 0-33.477-14.874-33.477-33.223v-57.053l18.671 10.302v46.75c0 8.1158 6.6279 14.693 14.806 14.693 8.1781 0 14.806-6.5771 14.806-14.693 0-6.6842-4.4975-12.309-10.646-14.095v-18.863c16.524 2.0346 29.318 16.012 29.318 32.959 0 18.351-14.992 33.223-33.477 33.223" fill="#005ca9"/>
  <path d="m107.16 147.64 5.7204-15.595h-107.96v15.595z" fill="#8797ab"/>
  <path d="m161.32 147.64 5.7204-15.595h-54.167l-5.7204 15.595z" fill="#eb0a73"/>
  <path d="m374.78 147.64v-15.595h-207.73l-5.7204 15.595z" fill="#f363b8"/>
  <path d="m354.94 197.35c-7.4733 0-13.538-6.0136-13.538-13.436 0-7.4169 6.0642-13.43 13.538-13.43 7.4789 0 13.543 6.0136 13.543 13.43 0 7.4225-6.0642 13.436-13.543 13.436m0-33.117c-10.956 0-19.833 8.8146-19.833 19.681 0 10.872 8.8767 19.687 19.833 19.687s19.838-8.8146 19.838-19.687c0-10.866-8.8822-19.681-19.838-19.681" fill="#05233d"/>
  <path d="m354.94 191.91c4.4523 0 8.0593-3.5789 8.0593-7.9974 0-4.413-3.607-7.9918-8.0593-7.9918-4.4467 0-8.0537 3.5789-8.0537 7.9918 0 4.4186 3.607 7.9974 8.0537 7.9974" fill="#05233d"/>
  <path d="m81.964 174.32h24.072c5.3091 0 9.6318 4.2834 9.6318 9.5529h-43.329c0-5.2695 4.3171-9.5529 9.6262-9.5529m24.072-6.3687h-24.072c-8.8597 0-16.045 7.1295-16.045 15.921v15.927h6.4193v-9.5586h43.329v9.5586h6.4193v-15.927c0-8.7921-7.1859-15.921-16.051-15.921" fill="#05233d"/>
  <path d="m194.24 199.8h-6.4193v-31.848h6.4193z" fill="#05233d"/>
  <path d="m248.81 167.96v24.516l-43.334-24.516h-6.4193v31.848h6.4193v-24.516l43.334 24.516h6.4193v-31.848z" fill="#05233d"/>
  <path d="m142.94 199.8h40.123v-6.3743h-40.123c-5.3091 0-9.6262-4.2834-9.6262-9.5529 0-5.2639 4.3172-9.5529 9.6262-9.5529h40.123v-6.3687h-40.123c-8.8597 0-16.045 7.1294-16.045 15.921 0 8.7978 7.1859 15.927 16.045 15.927" fill="#05233d"/>
  <path d="m276.08 193.44c-5.3091 0-9.6262-4.2889-9.6262-9.5586 0-5.2639 4.3172-9.5529 9.6262-9.5529h40.123v-6.3687h-40.123c-8.8597 0-16.045 7.1294-16.045 15.921 0 8.7978 7.1859 15.927 16.045 15.927h40.123v-15.927h-6.4193v9.5586z" fill="#05233d"/>
  <path d="m11.325 174.32h38.521c2.6545 0 4.8187 2.1417 4.8187 4.7793 0 2.6151-2.1361 4.7511-4.768 4.7736h-38.572zm-6.4193 25.48h6.4193v-9.5586h28.292l11.469 9.5586h9.9869l-11.475-9.5586h0.2367c0.0058 0 0.01154 6e-3 0.01154 6e-3 6.2052 0 11.232-4.9934 11.232-11.148 0-6.16-5.0273-11.148-11.232-11.148h-44.94z" fill="#05233d"/>
  <path d="m55.186 215.71h15.454c1.0652 0 1.9331 0.8623 1.9331 1.9162 0 1.0483-0.85666 1.9049-1.9162 1.9162h-15.471zm-2.5757 10.218h2.5757v-3.8267h11.345l4.6046 3.8267h4.0072l-4.6046-3.8267h0.10143c2.4911 0 4.5031-2.0064 4.5031-4.475 0-2.4685-2.012-4.4694-4.5031-4.4694h-18.029z" fill="#05233d"/>
  <path d="m44.235 223.37h-9.66c-2.1304 0-3.8606-1.719-3.8606-3.8324 0-2.1134 1.7302-3.8324 3.8606-3.8324h9.66c2.1304 0 3.8606 1.719 3.8606 3.8324 0 2.1134-1.7302 3.8324-3.8606 3.8324m0-10.224h-9.66c-3.5562 0-6.4362 2.8631-6.4362 6.3912s2.88 6.3912 6.4362 6.3912h9.66c3.5506 0 6.4362-2.8631 6.4362-6.3912s-2.8856-6.3912-6.4362-6.3912" fill="#05233d"/>
  <path d="m156.92 215.71h9.66c2.1248 0 3.8606 1.719 3.8606 3.8324h-17.381c0-2.1134 1.7302-3.8324 3.8606-3.8324m9.66-2.553h-9.66c-3.5562 0-6.4418 2.8575-6.4418 6.3855v6.3855h2.5813v-3.8267h17.381v3.8267h2.5757v-6.3855c0-3.5281-2.8856-6.3855-6.4362-6.3855" fill="#05233d"/>
  <path d="m107.98 223.37c-2.1304 0-3.8663-1.719-3.8663-3.8324v-6.3855h-2.5757v6.3855c0 3.5281 2.8856 6.3912 6.4418 6.3912h9.6544c3.5562 0 6.4418-2.8631 6.4418-6.3912v-6.3855h-2.5757v6.3855c0 2.1134-1.7302 3.8324-3.8663 3.8324z" fill="#05233d"/>
  <path d="m97.042 213.16-8.6906 4.9202-8.6962-4.9202h-2.5757v12.782h2.5757v-9.8403l8.6962 4.9202 8.6906-4.9202v9.8403h2.5757v-12.782z" fill="#05233d"/>
  <path d="m148.55 225.94v-2.5587h-19.963v-10.224h-2.5757v12.782z" fill="#05233d"/>
  <path d="m4.6737 213.16v12.782h2.5757v-5.1118h17.381v-2.5587h-17.381v-2.553h19.957v-2.5587z" fill="#05233d"/>
  <path d="m333.98 215.71h9.66c2.1304 0 3.8606 1.719 3.8606 3.8324h-17.381c0-2.1134 1.7302-3.8324 3.8606-3.8324m9.66-2.553h-9.66c-3.5562 0-6.4362 2.8575-6.4362 6.3855v6.3855h2.5757v-3.8267h17.381v3.8267h2.5757v-6.3855c0-3.5281-2.88-6.3855-6.4362-6.3855" fill="#05233d"/>
  <path d="m301.14 213.16h-22.538v2.5587h9.9813v10.224h2.5757v-10.224h9.9813z" fill="#05233d"/>
  <path d="m303.07 213.16v12.782h22.532v-2.5587h-19.957v-2.553h17.381v-2.5587h-17.381v-2.553h19.957v-2.5587z" fill="#05233d"/>
  <path d="m371.97 213.16-8.6906 4.9202-8.6906-4.9202h-2.5757v12.782h2.5757v-9.8403l8.6906 4.9202 8.6906-4.9202v9.8403h2.5757v-12.782z" fill="#05233d"/>
  <path d="m201.99 223.37h-9.66c-2.1304 0-3.8606-1.719-3.8606-3.8324 0-2.1134 1.7302-3.8324 3.8606-3.8324h9.66c2.1304 0 3.8606 1.719 3.8606 3.8324 0 2.1134-1.7302 3.8324-3.8606 3.8324m0-10.224h-9.66c-3.5562 0-6.4362 2.8631-6.4362 6.3912s2.88 6.3912 6.4362 6.3912h9.66c3.5506 0 6.4362-2.8631 6.4362-6.3912s-2.8856-6.3912-6.4362-6.3912" fill="#05233d"/>
  <path d="m234.81 213.16v12.782h22.532v-2.5587h-19.957v-2.553h17.381v-2.5587h-17.381v-2.553h19.957v-2.5587z" fill="#05233d"/>
  <path d="m230.31 213.16v9.8403l-17.381-9.8403h-2.5757v12.782h2.5757v-9.8403l17.381 9.8403h2.5757v-12.782z" fill="#05233d"/>
  <path d="m265.58 216.27c0.0958 0 0.16908-0.0789 0.16908-0.16908 0-0.0958-0.0733-0.16908-0.16908-0.16908h-2.2319v0.33816zm0.0677 0.99757-0.65378-0.52416h-1.6457v0.52416h-0.49596v-1.8316h2.7278c0.36634 0 0.67067 0.29872 0.67067 0.66505 0 0.30434-0.20853 0.55796-0.49032 0.63686l0.63122 0.52979z" fill="#05233d"/>
  <path d="m264.45 218.9c-1.4202 0-2.5699-1.1441-2.5699-2.553 0-1.4034 1.1497-2.553 2.5699-2.553 1.4203 0 2.5757 1.1497 2.5757 2.553 0 1.409-1.1554 2.553-2.5757 2.553m0-5.7431c-1.7754 0-3.2182 1.4315-3.2182 3.1899 0 1.764 1.4428 3.1955 3.2182 3.1955 1.7754 0 3.2182-1.4315 3.2182-3.1955 0-1.7585-1.4428-3.1899-3.2182-3.1899" fill="#05233d"/>
 </g>
</svg>