<?xml version="1.0" encoding="UTF-8" standalone="no"?>
<!-- Created with Inkscape (http://www.inkscape.org/) -->
<svg xmlns:dc="http://purl.org/dc/elements/1.1/" xmlns:cc="http://creativecommons.org/ns#" xmlns:rdf="http://www.w3.org/1999/02/22-rdf-syntax-ns#" xmlns:svg="http://www.w3.org/2000/svg" xmlns="http://www.w3.org/2000/svg" xmlns:sodipodi="http://sodipodi.sourceforge.net/DTD/sodipodi-0.dtd" xmlns:inkscape="http://www.inkscape.org/namespaces/inkscape" id="svg2" version="1.1" inkscape:version="0.48.5 r10040" width="400" height="220" xml:space="preserve" sodipodi:docname="RAE_pressrelease_DE_201014.pdf"><metadata id="metadata8"><rdf:RDF><cc:Work rdf:about=""><dc:format>image/svg+xml</dc:format><dc:type rdf:resource="http://purl.org/dc/dcmitype/StillImage"/><dc:title/></cc:Work></rdf:RDF></metadata><defs id="defs6"><clipPath clipPathUnits="userSpaceOnUse" id="clipPath162"><path d="m 0,841.89 595.276,0 L 595.276,0 0,0 0,841.89 z" id="path164" inkscape:connector-curvature="0"/></clipPath><clipPath clipPathUnits="userSpaceOnUse" id="clipPath184"><path d="m 0,841.89 595.276,0 L 595.276,0 0,0 0,841.89 z" id="path186" inkscape:connector-curvature="0"/></clipPath><clipPath clipPathUnits="userSpaceOnUse" id="clipPath192"><path d="m 219.402,600.945 156.472,0 0,198.425 -156.472,0 0,-198.425 z" id="path194" inkscape:connector-curvature="0"/></clipPath><clipPath clipPathUnits="userSpaceOnUse" id="clipPath246"><path d="m 222.778,717.758 149.701,0 0,80.195 -149.701,0 0,-80.195 z" id="path248" inkscape:connector-curvature="0"/></clipPath><clipPath clipPathUnits="userSpaceOnUse" id="clipPath262"><path d="m 219.402,600.945 156.472,0 0,198.425 -156.472,0 0,-198.425 z" id="path264" inkscape:connector-curvature="0"/></clipPath></defs><sodipodi:namedview pagecolor="#ffffff" bordercolor="#666666" borderopacity="1" objecttolerance="10" gridtolerance="10" guidetolerance="10" inkscape:pageopacity="0" inkscape:pageshadow="2" inkscape:window-width="1010" inkscape:window-height="955" id="namedview4" showgrid="false" fit-margin-top="0" fit-margin-left="0" fit-margin-right="0" fit-margin-bottom="0" inkscape:zoom="2.195" inkscape:cx="200" inkscape:cy="110" inkscape:window-x="0" inkscape:window-y="0" inkscape:window-maximized="0" inkscape:current-layer="g10"/><g id="g10" inkscape:groupmode="layer" inkscape:label="RAE_pressrelease_DE_201014" transform="matrix(1.25,0,0,-1.25,-278.47262,1117.1975)"><g id="g178" transform="matrix(2.0590621,0,0,2.0590621,-230.05715,-754.71271)"><g id="g180"><g id="g182" clip-path="url(#clipPath184)"><g id="g188"><g id="g190" clip-path="url(#clipPath192)"><g id="g196" transform="translate(288.8185,790.6132)"><path d="m 0,0 c 0.114,0 0.224,0.018 0.328,0.045 l 3.775,-12.829 0.003,0 c 0.42,-1.433 2.505,-2.519 5.012,-2.519 2.51,0 4.593,1.086 5.015,2.519 l 0.001,0 3.773,12.819 C 17.998,0.015 18.094,0 18.193,0 c 0.734,0 1.329,0.594 1.329,1.327 0,0.733 -0.595,1.328 -1.329,1.328 -0.73,0 -1.326,-0.595 -1.326,-1.328 0,-0.527 0.309,-0.981 0.753,-1.193 l -4.371,-9.372 0.703,12.628 0.03,0 c 0.731,0 1.325,0.593 1.325,1.325 0,0.733 -0.594,1.326 -1.325,1.326 -0.733,0 -1.328,-0.593 -1.328,-1.326 0,-0.606 0.408,-1.114 0.958,-1.273 L 10.702,-8.902 9.3,4.7 c 0.644,0.094 1.137,0.645 1.137,1.315 0,0.73 -0.593,1.324 -1.326,1.324 C 8.376,7.339 7.784,6.745 7.784,6.015 7.784,5.345 8.283,4.79 8.928,4.7 L 7.528,-8.878 4.625,3.439 c 0.558,0.159 0.97,0.667 0.97,1.276 0,0.733 -0.594,1.326 -1.329,1.326 -0.731,0 -1.327,-0.593 -1.327,-1.326 0,-0.732 0.596,-1.325 1.327,-1.325 l 0.02,0 0.703,-12.623 -4.38,9.384 C 1.036,0.371 1.328,0.815 1.328,1.327 1.328,2.06 0.733,2.655 0,2.655 -0.733,2.655 -1.325,2.06 -1.325,1.327 -1.325,0.594 -0.733,0 0,0 m 9.097,-11.706 c 2.295,0 4.158,-0.586 4.158,-1.307 0,-0.723 -1.863,-1.306 -4.158,-1.306 -2.297,0 -4.157,0.583 -4.157,1.306 0,0.721 1.86,1.307 4.157,1.307" style="fill:#a17a27;fill-opacity:1;fill-rule:nonzero;stroke:none" id="path198" inkscape:connector-curvature="0"/></g><g id="g200" transform="translate(283.259,769.9313)"><path d="m 0,0 c -3.807,0 -6.89,-3.09 -6.89,-6.798 0,-3.711 3.083,-6.797 6.89,-6.797 3.803,0 6.887,3.086 6.887,6.797 C 6.887,-3.09 3.803,0 0,0 M 2.863,-10.724 C 2.649,-11.045 2.382,-11.329 2.069,-11.562 1.562,-11.964 0.98,-12.201 0.363,-12.226 0.244,-12.238 0.121,-12.245 0,-12.245 c -0.125,0 -0.249,0.007 -0.368,0.019 -0.615,0.025 -1.196,0.262 -1.706,0.664 -0.312,0.233 -0.58,0.517 -0.793,0.838 -0.715,0.986 -1.162,2.375 -1.162,3.914 0,1.444 0.395,2.757 1.036,3.727 0.355,0.639 0.919,1.149 1.607,1.445 0.004,0.002 0.011,0.004 0.016,0.007 0.032,0.014 0.064,0.028 0.098,0.039 0.091,0.037 0.185,0.072 0.28,0.098 0.312,0.091 0.647,0.14 0.992,0.14 0.343,0 0.677,-0.049 0.989,-0.14 0.095,-0.026 0.189,-0.061 0.278,-0.097 0.034,-0.012 0.066,-0.026 0.1,-0.04 0.007,-0.003 0.01,-0.005 0.017,-0.007 0.684,-0.296 1.251,-0.806 1.606,-1.445 0.641,-0.971 1.036,-2.284 1.036,-3.727 0,-1.539 -0.448,-2.928 -1.163,-3.914" style="fill:#005b31;fill-opacity:1;fill-rule:nonzero;stroke:none" id="path202" inkscape:connector-curvature="0"/></g><g id="g204" transform="translate(303.7964,761.7167)"><path d="m 0,0 -0.958,0 0,-1.916 c -0.026,-1.147 -0.965,-2.071 -2.119,-2.071 -0.003,0 -0.009,0.002 -0.012,0.002 l 0,-0.004 -2.92,0 -1.108,0 0,10.764 1.846,0 0,0.961 -1.846,0 -0.205,0 -4.605,0 0,-0.961 1.847,0 0,-10.764 -1.847,0 0,-0.959 10.969,0 0.812,0 0.078,0 0.068,0 0,0.003 0.004,0 0,3.133 L 0,-1.812 0,0 z" style="fill:#005b31;fill-opacity:1;fill-rule:nonzero;stroke:none" id="path206" inkscape:connector-curvature="0"/></g><g id="g208" transform="translate(318.3487,769.447)"><path d="m 0,0 -0.012,0 -0.063,0 -2.955,0 -9.512,0 0,-0.958 1.812,0 0,-10.768 -1.812,0 0,-0.96 0,-0.002 9.512,0 2.136,0 0.819,0 0.063,0 0.012,0 0.068,0 0,3.132 0,1.436 -0.962,0 0,-1.511 c -0.017,-1.161 -0.962,-2.097 -2.124,-2.097 l -0.012,0 0,-0.003 -3.419,0 0,0.003 -1.284,0 -0.036,0 0,5.174 0,0.171 0.96,0 c 0.008,0 0.017,-0.002 0.026,-0.002 l 0.534,0 c 0.86,-0.008 1.552,-0.704 1.552,-1.566 l 0,-0.033 0,-0.497 0,-0.204 0.876,0 0,0.129 0,2.173 0,0.007 0,0.777 0,0.006 0,2.172 0,0.045 -0.873,0 0,-0.615 -0.003,0 c 0,-0.012 0.003,-0.024 0.003,-0.035 0,-0.86 -0.692,-1.474 -1.555,-1.482 l -0.56,0 -0.595,0 -0.365,0 0,4.55 0.036,0 2.734,0 0.046,0 1.947,0 c 1.157,-0.005 2.095,-0.943 2.112,-2.098 l 0,-1.303 0.962,0 0,1.228 0,3.125 L 0.068,0 0,0 z" style="fill:#005b31;fill-opacity:1;fill-rule:nonzero;stroke:none" id="path210" inkscape:connector-curvature="0"/></g><g id="g212" transform="translate(334.8017,757.6818)"><path d="m 0,0 c -0.923,0.024 -1.137,0.31 -1.848,1.124 l -4.2,5.227 2.776,3.318 0,-0.003 c 0.748,0.853 0.952,1.144 1.91,1.163 l 0.592,0 0.13,0 0,0.926 -0.13,0 -2.728,0 -0.128,0 -2.004,0 -0.126,0 0,-0.926 0.126,0 1.002,0 0,-0.003 0.002,0 c 0.243,0 0.437,-0.195 0.437,-0.434 0,-0.094 -0.03,-0.181 -0.083,-0.253 L -6.731,7.202 -8.666,9.609 -9.071,10.12 c -0.059,0.075 -0.102,0.169 -0.102,0.271 0,0.24 0.196,0.435 0.437,0.438 l 1.1,0 0,0.926 -1.956,0 -2.86,0 -1.586,0 0,-0.926 0.302,0 c 0.818,-0.039 1.052,-0.319 1.695,-1.054 L -8.323,5.151 -11.67,1.155 -11.671,1.162 C -12.418,0.31 -12.622,0.017 -13.585,0 l -0.581,0 -0.2,0 0,-0.926 0.2,0 3.165,0 0.199,0 1.713,0 0.198,0 0,0.926 -0.198,0 -1.147,0 0,0.002 c -10e-4,0 -10e-4,-0.001 -0.003,-0.001 -0.242,0 -0.438,0.195 -0.438,0.438 0,0.103 0.039,0.196 0.099,0.27 l 2.972,3.548 2.469,-3.076 0.378,-0.471 c 0.056,-0.075 0.095,-0.166 0.095,-0.27 0,-0.242 -0.194,-0.438 -0.435,-0.438 0,0 0,0.001 -0.003,0.001 l 0,-0.002 -1.184,0 0,-0.926 0.006,0 0,-0.001 6.896,0 L 0.616,0 0,0 z" style="fill:#005b31;fill-opacity:1;fill-rule:nonzero;stroke:none" id="path214" inkscape:connector-curvature="0"/></g><g id="g216" transform="translate(274.1941,757.7426)"><path d="M 0,0 -0.839,2.437 C -1.23,3.521 -1.511,4.008 -2.124,4.57 -2.527,4.931 -3.09,5.106 -3.507,5.226 c 1.558,0.247 2.749,1.602 2.749,3.23 0,1.803 -1.463,3.27 -3.272,3.27 -0.018,0 -0.037,-0.002 -0.06,-0.002 l 0,0.002 -4.921,0 -2.962,0 -1.783,0 0,-0.953 1.783,0 0,-10.779 -1.817,0 0,-0.958 4.754,0 1.85,0 0,0.958 -1.825,0 0,5.177 1.417,0 c 0.046,0 0.086,-0.002 0.131,-0.004 l 0.288,0 c 0.451,-0.016 0.842,-0.083 1.196,-0.184 0.327,-0.082 0.673,-0.198 0.904,-0.346 0.314,-0.201 0.646,-0.483 0.939,-0.986 0.078,-0.132 0.144,-0.266 0.207,-0.401 0.541,-1.015 0.865,-2.42 1.225,-4.208 l 2.179,0 0,-0.003 1.967,0 L 1.442,0 0,0 z m -5.916,6.136 -3.087,0 0,4.639 3.087,0 c 1.328,-0.051 2.391,-0.974 2.391,-2.317 0,-1.345 -1.062,-2.265 -2.391,-2.322" style="fill:#005b31;fill-opacity:1;fill-rule:nonzero;stroke:none" id="path218" inkscape:connector-curvature="0"/></g><g id="g220" transform="translate(274.3384,723.3446)"><path d="M 0,0 1.32,-0.642 3.063,2.627 1.745,3.273 0,0 z" style="fill:#a17a27;fill-opacity:1;fill-rule:nonzero;stroke:none" id="path222" inkscape:connector-curvature="0"/></g><g id="g224" transform="translate(281.6218,720.3433)"><path d="M 0,0 1.41,-0.436 2.597,3.052 1.19,3.491 0,0 z" style="fill:#a17a27;fill-opacity:1;fill-rule:nonzero;stroke:none" id="path226" inkscape:connector-curvature="0"/></g><g id="g228" transform="translate(289.3092,718.4633)"><path d="M 0,0 1.462,-0.22 2.065,3.408 0.6,3.624 0,0 z" style="fill:#a17a27;fill-opacity:1;fill-rule:nonzero;stroke:none" id="path230" inkscape:connector-curvature="0"/></g><path d="m 297.208,717.758 1.483,0 0,3.67 -1.483,0 0,-3.67 z" style="fill:#a17a27;fill-opacity:1;fill-rule:nonzero;stroke:none" id="path232" inkscape:connector-curvature="0"/><g id="g234" transform="translate(304.5265,721.8713)"><path d="M 0,0 0.598,-3.625 2.062,-3.406 1.46,0.219 0,0 z" style="fill:#a17a27;fill-opacity:1;fill-rule:nonzero;stroke:none" id="path236" inkscape:connector-curvature="0"/></g><g id="g238" transform="translate(311.6772,723.3969)"><path d="M 0,0 1.189,-3.49 2.599,-3.054 1.411,0.437 0,0 z" style="fill:#a17a27;fill-opacity:1;fill-rule:nonzero;stroke:none" id="path240" inkscape:connector-curvature="0"/></g></g></g><g id="g242"><g id="g244" clip-path="url(#clipPath246)"><g id="g250" transform="translate(318.4948,725.9736)"><path d="M 0,0 1.74,-3.268 3.064,-2.624 1.32,0.644 0,0 z" style="fill:#a17a27;fill-opacity:1;fill-rule:nonzero;stroke:none" id="path252" inkscape:connector-curvature="0"/></g><g id="g254" transform="translate(231.795,742.8437)"><path d="m 0,0 c 0.322,0 0.36,0.038 0.379,0.379 l 0.302,4.146 c 0.02,0.265 0,0.492 -0.037,0.492 -0.057,0 -0.171,-0.114 -0.72,-0.927 L -2.708,0.284 C -2.86,0.056 -2.802,0 -2.386,0 L 0,0 z m 3.01,-5.321 c 0.114,-0.114 0.057,-0.397 -0.075,-0.473 -0.587,0.038 -1.307,0.057 -2.14,0.057 -0.871,0 -1.61,-0.019 -2.178,-0.057 -0.189,0.076 -0.189,0.397 -0.018,0.473 l 0.586,0.057 c 0.417,0.038 0.663,0.189 0.739,0.303 0.057,0.095 0.151,0.36 0.209,1.174 l 0.17,2.537 c 0.037,0.435 0,0.493 -0.398,0.493 l -2.726,0 c -0.568,0 -0.607,-0.019 -0.966,-0.588 l -1.382,-2.159 c -0.663,-1.04 -0.852,-1.324 -0.852,-1.42 0,-0.113 0.076,-0.227 0.435,-0.284 l 0.701,-0.113 c 0.151,-0.114 0.095,-0.397 -0.038,-0.473 -0.587,0.038 -1.174,0.057 -1.931,0.057 -0.739,0 -1.421,-0.019 -2.102,-0.057 -0.095,0.113 -0.076,0.359 0.037,0.473 l 0.512,0.057 c 0.568,0.056 0.985,0.34 1.363,0.795 0.549,0.682 1.647,2.196 3.124,4.261 l 3.333,4.695 c 0.814,1.137 1.06,1.629 1.136,1.95 0.644,0.095 1.344,0.625 1.382,0.625 0.095,0 0.227,-0.076 0.227,-0.151 0,-0.322 -0.095,-1.136 -0.189,-2.783 L 1.59,-3.03 C 1.476,-5.132 1.495,-5.151 2.518,-5.264 L 3.01,-5.321 z" style="fill:#005b31;fill-opacity:1;fill-rule:nonzero;stroke:none" id="path256" inkscape:connector-curvature="0"/></g></g></g><g id="g258"><g id="g260" clip-path="url(#clipPath262)"><g id="g266" transform="translate(237.7389,743.0325)"><path d="m 0,0 c 0.17,0.436 0.208,0.701 -0.057,0.701 -0.378,0 -1.174,-0.644 -1.742,-1.326 -0.17,0 -0.303,0.171 -0.284,0.323 0.587,0.851 1.818,2.101 2.992,2.101 0.435,0 0.833,-0.549 0.568,-1.25 l -1.496,-3.957 c -0.265,-0.682 -0.36,-1.079 -0.36,-1.345 0,-0.227 0.095,-0.454 0.417,-0.454 0.852,0 2.31,1.875 2.973,2.878 0.738,1.118 1.136,2.575 1.23,3.03 0.133,0.625 0.549,1.023 0.89,1.023 0.454,0 0.568,-0.361 0.568,-0.531 0,-0.397 -0.208,-0.757 -0.663,-1.704 -0.681,-1.401 -1.022,-2.84 -1.022,-3.862 0,-0.569 0.246,-0.834 0.701,-0.834 0.568,0 1.571,0.701 2.347,1.819 0.739,1.059 1.174,2.214 1.174,3.161 0,0.455 -0.038,0.909 -0.17,1.344 0.038,0.398 0.341,0.682 0.7,0.682 0.606,0 0.739,-0.7 0.739,-1.174 0,-1.06 -0.606,-2.745 -2.064,-4.506 -1.363,-1.647 -2.859,-2.31 -3.616,-2.31 -0.398,0 -1.06,0.492 -1.06,1.078 0,0.512 0.17,1.118 0.321,1.611 0.095,0.302 -0.038,0.283 -0.265,-0.019 -0.89,-1.212 -2.461,-2.67 -3.597,-2.67 -0.531,0 -0.966,0.568 -0.966,1.023 0,0.359 0.132,0.851 0.322,1.381 L 0,0 z" style="fill:#005b31;fill-opacity:1;fill-rule:nonzero;stroke:none" id="path268" inkscape:connector-curvature="0"/></g><g id="g270" transform="translate(251.2377,743.1089)"><path d="m 0,0 c -1.212,-1.08 -2.367,-3.56 -2.367,-4.904 0,-0.228 0.114,-0.36 0.284,-0.36 0.19,0 0.758,0.246 1.837,1.23 1.439,1.345 2.234,2.973 2.537,4.09 C 2.158,0.416 1.837,0.738 1.344,0.738 0.89,0.738 0.587,0.53 0,0 M 3.295,2.158 C 3.617,2.31 4.109,2.12 4.222,1.874 3.939,1.174 2.291,-3.011 1.685,-4.734 1.572,-5.056 1.666,-5.169 1.818,-5.169 c 0.322,0 0.871,0.322 1.95,1.268 0.133,0 0.265,-0.094 0.265,-0.246 -0.795,-1.06 -2.139,-2.121 -3.181,-2.121 -0.435,0 -0.549,0.36 -0.549,0.512 0,0.133 0.038,0.303 0.19,0.738 l 0.624,1.704 -0.056,0.019 c -1.345,-1.666 -3.276,-2.973 -4.166,-2.973 -0.53,0 -0.833,0.531 -0.833,1.061 0,0.435 0.417,1.95 1.666,3.673 0.909,1.25 1.723,2.007 2.5,2.442 0.738,0.417 1.211,0.549 1.703,0.549 0.209,0 0.341,-0.056 0.455,-0.113 C 2.462,1.306 2.67,1.136 2.765,0.946 l 0.53,1.212 z" style="fill:#005b31;fill-opacity:1;fill-rule:nonzero;stroke:none" id="path272" inkscape:connector-curvature="0"/></g><g id="g274" transform="translate(259.3405,743.0325)"><path d="m 0,0 -0.814,-2.385 0.094,0 c 0.568,1.06 1.496,2.575 1.988,3.2 0.436,0.568 0.909,0.984 1.383,0.984 0.662,0 0.757,-0.644 0.757,-0.928 0,-0.283 -0.17,-0.833 -0.397,-1.136 C 2.783,-0.549 2.48,-0.567 2.404,-0.17 2.31,0.322 2.197,0.569 2.007,0.569 1.836,0.569 1.629,0.379 1.344,0 0.189,-1.476 -0.871,-3.787 -1.875,-5.964 c -0.075,-0.152 -0.17,-0.227 -0.321,-0.227 -0.209,0 -0.758,0.075 -0.625,0.492 0.246,0.757 1.439,4.109 1.95,5.964 0.057,0.209 0.019,0.398 -0.152,0.398 -0.492,0 -1.003,-0.53 -1.344,-0.984 -0.189,-0.039 -0.322,0.075 -0.303,0.303 0.606,1.022 1.326,1.817 2.235,1.817 C 0.511,1.799 0.17,0.511 0,0" style="fill:#005b31;fill-opacity:1;fill-rule:nonzero;stroke:none" id="path276" inkscape:connector-curvature="0"/></g><g id="g278" transform="translate(266.3831,743.4493)"><path d="m 0,0 c -0.757,-0.701 -2.121,-2.499 -2.707,-3.692 -0.587,-1.212 -0.587,-1.553 -0.587,-1.799 0,-0.227 0.189,-0.398 0.359,-0.398 0.284,0 1.25,0.341 2.556,1.686 1.477,1.514 2.026,2.65 2.31,3.654 C 2.158,0.246 1.912,0.815 1.439,0.815 1.003,0.815 0.493,0.455 0,0 m 3.806,4.695 c 0.379,1.061 0.436,1.383 0.17,1.572 L 3.541,6.57 C 3.503,6.646 3.522,6.76 3.598,6.835 3.957,6.968 5.018,7.214 5.832,7.195 L 5.908,7.081 C 5.567,6.021 5.283,5.302 4.715,3.73 2.84,-1.439 1.951,-4.469 1.78,-5.036 1.704,-5.283 1.723,-5.472 1.894,-5.472 c 0.303,0 1.495,0.965 2.082,1.704 0.171,0 0.266,-0.076 0.284,-0.246 -0.511,-1.041 -2.234,-2.594 -3.218,-2.594 -0.398,0 -0.607,0.303 -0.607,0.606 0,0.227 0.058,0.53 0.247,1.079 l 0.662,1.875 -0.076,0.019 c -1.306,-1.742 -2.726,-3.579 -4.562,-3.579 -0.739,0 -1.136,0.606 -1.136,1.363 0,1.345 1.022,3.598 2.518,4.942 1.287,1.155 2.48,1.685 3.389,1.685 0.303,0 0.757,-0.189 0.966,-0.586 l 1.363,3.899 z" style="fill:#005b31;fill-opacity:1;fill-rule:nonzero;stroke:none" id="path280" inkscape:connector-curvature="0"/></g><g id="g282" transform="translate(275.7926,743.7527)"><path d="m 0,0 c 0,-0.303 -0.189,-0.511 -0.34,-0.588 -0.133,-0.037 -0.246,0 -0.361,0.152 -0.321,0.322 -0.568,0.606 -1.155,0.606 -0.548,0 -0.775,-0.473 -0.775,-0.758 0,-0.397 0.094,-0.795 0.643,-1.722 0.473,-0.796 0.758,-1.269 0.719,-2.102 -0.018,-0.511 -0.283,-1.211 -0.984,-1.818 -0.493,-0.435 -1.193,-0.681 -1.912,-0.681 -0.72,0 -1.155,0.567 -1.155,1.003 0,0.19 0.076,0.398 0.284,0.625 0.151,0.132 0.36,0.132 0.511,0 0.246,-0.285 0.814,-0.758 1.306,-0.758 0.455,0 0.909,0.473 0.909,1.08 0,0.322 -0.227,0.909 -0.7,1.666 -0.493,0.795 -0.663,1.439 -0.663,1.761 0,0.738 0.322,1.287 1.136,1.988 0.549,0.473 1.155,0.625 1.401,0.625 C -0.435,1.079 0,0.473 0,0" style="fill:#005b31;fill-opacity:1;fill-rule:nonzero;stroke:none" id="path284" inkscape:connector-curvature="0"/></g><g id="g286" transform="translate(283.8769,743.8661)"><path d="m 0,0 c -0.113,-0.322 -0.265,-0.928 -0.492,-1.761 -0.569,-2.121 -1.08,-3.939 -1.685,-6.021 -0.493,-1.705 -1.118,-2.67 -1.497,-3.048 -0.283,-0.266 -1.155,-1.023 -2.271,-1.023 -1.023,0 -1.382,0.644 -1.382,0.928 0,0.378 0.227,0.7 0.435,0.852 0.151,0.114 0.322,0.056 0.435,-0.076 0.455,-0.473 1.023,-0.776 1.439,-0.776 0.379,0 0.776,0.132 1.212,1.59 0.871,2.992 1.534,6.249 2.443,9.335 l -1.572,0 c -0.189,0.17 -0.113,0.53 0.133,0.7 l 1.628,0 c 0.492,1.704 1.003,3.181 2.121,4.507 0.946,1.117 1.931,1.571 3.029,1.571 0.7,0 1.458,-0.492 1.458,-1.249 0,-0.493 -0.511,-1.08 -0.815,-1.08 -0.17,0 -0.245,0.171 -0.265,0.303 C 4.298,5.793 3.768,6.135 3.295,6.135 2.878,6.135 2.367,5.756 1.931,5.112 1.06,3.844 0.682,2.499 0.17,0.7 l 2.367,0 C 2.67,0.492 2.631,0.208 2.348,0 L 0,0 z" style="fill:#005b31;fill-opacity:1;fill-rule:nonzero;stroke:none" id="path288" inkscape:connector-curvature="0"/></g><g id="g290" transform="translate(288.5153,743.3549)"><path d="m 0,0 c -1.098,-1.477 -1.837,-3.731 -1.893,-4.734 -0.038,-0.663 0.227,-1.212 0.776,-1.212 0.416,0 0.89,0.171 1.496,0.986 0.833,1.116 1.723,3.615 1.76,4.619 C 2.158,0.246 2.045,0.909 1.382,0.909 1.004,0.909 0.549,0.738 0,0 M 3.446,-0.909 C 3.389,-1.951 2.84,-3.768 1.439,-5.207 0.265,-6.419 -0.758,-6.514 -1.269,-6.514 c -1.212,0 -2.007,0.89 -1.893,2.518 0.076,1.175 0.776,3.011 2.064,4.242 0.984,0.947 1.837,1.23 2.613,1.23 1.344,0 2.007,-1.003 1.931,-2.385" style="fill:#005b31;fill-opacity:1;fill-rule:nonzero;stroke:none" id="path292" inkscape:connector-curvature="0"/></g><g id="g294" transform="translate(296.1631,743.0325)"><path d="m 0,0 -0.814,-2.385 0.094,0 c 0.569,1.06 1.497,2.575 1.989,3.2 0.435,0.568 0.909,0.984 1.382,0.984 0.663,0 0.758,-0.644 0.758,-0.928 C 3.409,0.588 3.238,0.038 3.01,-0.265 2.783,-0.549 2.481,-0.567 2.405,-0.17 2.31,0.322 2.197,0.569 2.008,0.569 1.837,0.569 1.629,0.379 1.344,0 0.19,-1.476 -0.87,-3.787 -1.874,-5.964 -1.95,-6.116 -2.045,-6.191 -2.196,-6.191 c -0.208,0 -0.757,0.075 -0.625,0.492 0.246,0.757 1.439,4.109 1.951,5.964 0.056,0.209 0.018,0.398 -0.152,0.398 -0.492,0 -1.004,-0.53 -1.345,-0.984 -0.189,-0.039 -0.321,0.075 -0.302,0.303 0.605,1.022 1.325,1.817 2.234,1.817 C 0.511,1.799 0.17,0.511 0,0" style="fill:#005b31;fill-opacity:1;fill-rule:nonzero;stroke:none" id="path296" inkscape:connector-curvature="0"/></g><g id="g298" transform="translate(306.6504,746.8762)"><path d="M 0,0 C 0.55,1.78 0.588,2.026 -0.415,2.235 L -0.794,2.31 C -0.908,2.462 -0.889,2.708 -0.681,2.783 -0.34,2.765 -0.018,2.746 0.323,2.746 0.663,2.727 1.023,2.727 1.42,2.727 l 3.579,0 c 1.212,0 2.102,0 2.67,0.056 C 7.536,2.462 7.082,0.947 6.892,0.265 6.817,0.114 6.476,0.133 6.42,0.284 6.533,1.269 6.59,1.742 5.756,1.97 5.321,2.083 4.734,2.14 3.75,2.14 l -1.117,0 C 2.141,2.14 2.064,2.064 1.894,1.496 L 0.682,-2.385 c -0.171,-0.531 -0.188,-0.55 0.341,-0.55 l 0.947,0 c 1.799,0 2.177,0.114 2.613,0.928 l 0.303,0.568 C 4.962,-1.306 5.321,-1.325 5.359,-1.476 5.226,-1.799 4.924,-2.612 4.715,-3.313 4.488,-4.032 4.318,-4.734 4.223,-5.15 4.109,-5.301 3.825,-5.283 3.75,-5.131 l 0,0.53 c 0,0.985 -0.492,1.003 -1.951,1.003 l -0.946,0 c -0.53,0 -0.568,-0.018 -0.738,-0.548 l -0.777,-2.556 c -0.322,-1.061 -0.511,-1.704 -0.322,-2.084 0.133,-0.265 0.492,-0.397 2.102,-0.397 2.082,0 2.839,0.113 4.033,1.97 0.151,0.094 0.36,0.056 0.436,-0.114 -0.171,-0.55 -0.815,-1.989 -1.307,-2.5 -0.625,0.019 -1.345,0.019 -2.102,0.038 -0.739,0 -1.515,0.019 -2.234,0.019 l -2.235,0 c -0.776,0 -1.419,-0.019 -2.253,-0.057 -0.151,0.095 -0.151,0.36 -0.019,0.474 l 0.663,0.057 c 0.909,0.076 1.098,0.321 1.705,2.252 L 0,0 z" style="fill:#005b31;fill-opacity:1;fill-rule:nonzero;stroke:none" id="path300" inkscape:connector-curvature="0"/></g><g id="g302" transform="translate(315.6812,740.7415)"><path d="M 0,0 0.057,-0.038 C 1.401,2.007 3.276,4.09 4.697,4.09 5.435,4.09 5.756,3.692 5.756,3.067 5.756,2.765 5.605,2.177 5.454,1.742 5.112,0.796 3.749,-2.291 3.693,-2.442 3.617,-2.631 3.598,-2.802 3.73,-2.802 c 0.323,0 1.232,0.625 1.78,1.287 C 5.775,-1.477 5.813,-1.628 5.813,-1.78 5.094,-2.991 3.598,-3.9 2.556,-3.9 c -0.17,0 -0.454,0.246 -0.454,0.473 0,0.171 0.058,0.303 0.454,1.25 0.397,0.928 1.099,2.783 1.534,3.73 C 4.242,1.894 4.487,2.556 4.487,2.935 4.487,3.162 4.468,3.39 4.185,3.39 3.73,3.39 2.613,2.443 1.572,1.136 0.568,-0.113 -0.208,-1.59 -1.325,-3.673 -1.419,-3.843 -1.496,-3.9 -1.665,-3.9 c -0.209,0 -0.721,0.057 -0.55,0.492 0.095,0.246 2.101,5.699 2.197,5.964 0.095,0.246 0.095,0.436 -0.057,0.436 -0.436,0 -1.098,-0.398 -1.723,-0.947 -0.152,0 -0.246,0.132 -0.228,0.284 0.72,0.984 1.875,1.761 2.822,1.761 0.455,0 0.662,-0.341 0.491,-0.777 L 0,0 z" style="fill:#005b31;fill-opacity:1;fill-rule:nonzero;stroke:none" id="path304" inkscape:connector-curvature="0"/></g><g id="g306" transform="translate(326.1328,743.6578)"><path d="m 0,0 -1.705,-4.98 c -0.113,-0.36 -0.019,-0.473 0.133,-0.473 0.284,0 1.533,0.985 2.158,1.704 0.19,0 0.304,-0.113 0.265,-0.341 -1.059,-1.571 -2.84,-2.727 -3.634,-2.727 -0.265,0 -0.512,0.285 -0.512,0.512 0,0.246 0.076,0.511 0.266,1.078 L -1.25,0 -2.727,0 c -0.037,0.189 0.019,0.454 0.209,0.53 l 1.515,0.265 1.059,1.875 c 0.19,0.113 0.569,0.075 0.72,-0.114 l -0.549,-1.855 2.064,0 C 2.424,0.511 2.31,0.132 2.064,0 L 0,0 z" style="fill:#005b31;fill-opacity:1;fill-rule:nonzero;stroke:none" id="path308" inkscape:connector-curvature="0"/></g><g id="g310" transform="translate(331.3011,743.3358)"><path d="m 0,0 c -0.739,-0.795 -1.174,-1.666 -1.401,-2.216 1.249,0.379 1.836,0.739 2.537,1.401 0.586,0.55 0.738,1.118 0.738,1.288 0,0.19 -0.094,0.436 -0.436,0.436 C 1.173,0.909 0.681,0.738 0,0 m 3.01,0.36 c 0,-1.44 -1.874,-2.386 -4.601,-3.143 -0.133,-0.323 -0.265,-0.928 -0.265,-1.686 0,-0.643 0.398,-1.079 0.909,-1.079 0.682,0 1.155,0.379 1.988,1.098 0.171,0 0.284,-0.151 0.245,-0.322 -1.153,-1.419 -2.233,-1.723 -3.029,-1.723 -1.136,0 -1.533,1.061 -1.533,1.989 0,1.193 0.757,3.503 2.821,5.093 0.984,0.757 1.723,0.909 2.272,0.909 0.757,0 1.193,-0.644 1.193,-1.136" style="fill:#005b31;fill-opacity:1;fill-rule:nonzero;stroke:none" id="path312" inkscape:connector-curvature="0"/></g><g id="g314" transform="translate(337.7563,743.0325)"><path d="m 0,0 -0.813,-2.385 0.094,0 c 0.567,1.06 1.495,2.575 1.987,3.2 0.437,0.568 0.909,0.984 1.383,0.984 0.663,0 0.758,-0.644 0.758,-0.928 C 3.409,0.588 3.238,0.038 3.011,-0.265 2.783,-0.549 2.481,-0.567 2.404,-0.17 2.31,0.322 2.196,0.569 2.008,0.569 1.837,0.569 1.629,0.379 1.345,0 0.19,-1.476 -0.871,-3.787 -1.874,-5.964 -1.95,-6.116 -2.045,-6.191 -2.196,-6.191 c -0.209,0 -0.758,0.075 -0.626,0.492 0.246,0.757 1.44,4.109 1.951,5.964 0.058,0.209 0.019,0.398 -0.152,0.398 -0.492,0 -1.003,-0.53 -1.344,-0.984 -0.19,-0.039 -0.322,0.075 -0.303,0.303 0.606,1.022 1.326,1.817 2.235,1.817 C 0.511,1.799 0.171,0.511 0,0" style="fill:#005b31;fill-opacity:1;fill-rule:nonzero;stroke:none" id="path316" inkscape:connector-curvature="0"/></g><g id="g318" transform="translate(343.019,738.4313)"><path d="m 0,0 c -0.075,-0.208 -0.056,-0.397 0.019,-0.511 0.114,-0.189 0.398,-0.435 0.7,-0.435 0.247,0 1.307,0.265 2.122,1.534 0.909,1.401 1.116,2.726 1.116,3.559 0,0.947 -0.681,1.421 -1.495,1.421 -0.209,0 -0.36,-0.02 -0.492,-0.039 L 0,0 z m 2.122,6.097 c 0.15,0 0.359,0.038 0.719,0.038 0.87,0 2.575,-0.36 2.575,-2.158 0,-1.742 -1.061,-3.276 -2.5,-4.488 C 1.724,-1.515 0.284,-1.59 0.209,-1.59 c -0.17,0 -0.322,0.038 -0.588,0.114 -0.151,-0.039 -0.246,-0.152 -0.303,-0.341 l -0.775,-2.235 c -0.512,-1.457 -0.474,-1.628 0.151,-1.722 l 0.776,-0.114 c 0.095,-0.133 0.095,-0.341 -0.076,-0.416 -1.439,0 -2.859,-0.076 -4.127,-0.114 -0.133,0.114 -0.133,0.302 0,0.417 l 0.416,0.075 c 1.061,0.189 1.136,0.625 1.42,1.401 L 0.625,5.358 C -0.056,5.17 -0.492,4.98 -1.287,4.583 c -0.152,0.018 -0.247,0.189 -0.189,0.359 0.663,0.474 1.42,0.796 2.347,1.042 L 1.439,7.517 C 1.686,7.726 2.443,7.536 2.518,7.252 L 2.122,6.097 z" style="fill:#005b31;fill-opacity:1;fill-rule:nonzero;stroke:none" id="path320" inkscape:connector-curvature="0"/></g><g id="g322" transform="translate(352.6946,743.0325)"><path d="m 0,0 -0.815,-2.385 0.095,0 c 0.568,1.06 1.496,2.575 1.988,3.2 0.435,0.568 0.909,0.984 1.382,0.984 0.663,0 0.757,-0.644 0.757,-0.928 C 3.407,0.588 3.237,0.038 3.01,-0.265 2.783,-0.549 2.479,-0.567 2.404,-0.17 2.31,0.322 2.196,0.569 2.007,0.569 1.836,0.569 1.628,0.379 1.343,0 0.189,-1.476 -0.871,-3.787 -1.875,-5.964 c -0.076,-0.152 -0.17,-0.227 -0.322,-0.227 -0.208,0 -0.757,0.075 -0.625,0.492 0.246,0.757 1.44,4.109 1.951,5.964 0.056,0.209 0.018,0.398 -0.152,0.398 -0.492,0 -1.003,-0.53 -1.345,-0.984 -0.189,-0.039 -0.321,0.075 -0.302,0.303 0.606,1.022 1.325,1.817 2.234,1.817 C 0.511,1.799 0.169,0.511 0,0" style="fill:#005b31;fill-opacity:1;fill-rule:nonzero;stroke:none" id="path324" inkscape:connector-curvature="0"/></g><g id="g326" transform="translate(360.7784,748.0123)"><path d="m 0,0 c 0,-0.587 -0.417,-1.174 -0.985,-1.174 -0.492,0 -0.663,0.379 -0.663,0.701 0,0.417 0.265,1.193 1.004,1.193 C -0.209,0.72 0,0.417 0,0 m -2.254,-4.752 c 0.094,0.208 0.094,0.36 -0.038,0.36 -0.132,0 -0.625,-0.228 -1.571,-1.004 -0.17,0.019 -0.284,0.17 -0.246,0.322 1.042,1.193 2.499,1.893 3.124,1.893 0.132,0 0.227,-0.113 0.303,-0.189 0.114,-0.114 0.114,-0.284 -0.114,-0.833 L -3.05,-9.581 c -0.074,-0.189 -0.094,-0.416 0.058,-0.416 0.322,0 1.326,0.663 1.97,1.401 0.188,-0.019 0.283,-0.151 0.283,-0.322 -0.283,-0.549 -2.234,-2.253 -3.541,-2.253 -0.094,0 -0.208,0.057 -0.303,0.17 -0.114,0.133 -0.169,0.303 -0.075,0.512 l 2.404,5.737 z" style="fill:#005b31;fill-opacity:1;fill-rule:nonzero;stroke:none" id="path328" inkscape:connector-curvature="0"/></g><g id="g330" transform="translate(365.7943,743.7527)"><path d="m 0,0 c 0,-0.303 -0.189,-0.511 -0.341,-0.588 -0.132,-0.037 -0.246,0 -0.359,0.152 -0.322,0.322 -0.568,0.606 -1.155,0.606 -0.55,0 -0.776,-0.473 -0.776,-0.758 0,-0.397 0.094,-0.795 0.643,-1.722 0.473,-0.796 0.758,-1.269 0.72,-2.102 -0.018,-0.511 -0.284,-1.211 -0.985,-1.818 -0.492,-0.435 -1.193,-0.681 -1.912,-0.681 -0.719,0 -1.155,0.567 -1.155,1.003 0,0.19 0.076,0.398 0.284,0.625 0.152,0.132 0.36,0.132 0.511,0 0.247,-0.285 0.815,-0.758 1.307,-0.758 0.454,0 0.909,0.473 0.909,1.08 0,0.322 -0.228,0.909 -0.701,1.666 -0.492,0.795 -0.663,1.439 -0.663,1.761 0,0.738 0.323,1.287 1.136,1.988 0.549,0.473 1.155,0.625 1.401,0.625 C -0.435,1.079 0,0.473 0,0" style="fill:#005b31;fill-opacity:1;fill-rule:nonzero;stroke:none" id="path332" inkscape:connector-curvature="0"/></g><g id="g334" transform="translate(369.4686,743.3358)"><path d="m 0,0 c -0.739,-0.795 -1.174,-1.666 -1.401,-2.216 1.249,0.379 1.836,0.739 2.537,1.401 0.586,0.55 0.738,1.118 0.738,1.288 0,0.19 -0.095,0.436 -0.436,0.436 C 1.173,0.909 0.681,0.738 0,0 m 3.01,0.36 c 0,-1.44 -1.874,-2.386 -4.601,-3.143 -0.133,-0.323 -0.265,-0.928 -0.265,-1.686 0,-0.643 0.398,-1.079 0.909,-1.079 0.682,0 1.155,0.379 1.987,1.098 0.171,0 0.284,-0.151 0.246,-0.322 -1.154,-1.419 -2.233,-1.723 -3.029,-1.723 -1.136,0 -1.534,1.061 -1.534,1.989 0,1.193 0.758,3.503 2.822,5.093 0.984,0.757 1.723,0.909 2.272,0.909 0.757,0 1.193,-0.644 1.193,-1.136" style="fill:#005b31;fill-opacity:1;fill-rule:nonzero;stroke:none" id="path336" inkscape:connector-curvature="0"/></g></g></g></g></g></g></g></svg>