<?xml version="1.0" encoding="UTF-8" standalone="no"?>
<!-- Created with Inkscape (http://www.inkscape.org/) -->
<svg xmlns:svg="http://www.w3.org/2000/svg" xmlns="http://www.w3.org/2000/svg" version="1.0" width="800.00031" height="208.59799" id="svg6297">
  <defs id="defs6299"/>
  <g transform="translate(23.828628,-499.49176)" id="layer1">
    <g transform="matrix(0.9975776,0,0,1,552.88528,780)" id="g6318">
      <path d="M -578.05168,-71.972751 L 223.76596,-71.972751 L 223.76596,-280.44574 L -578.05168,-280.44574 L -578.05168,-71.972751 z" id="path3502" style="fill:#fee102;fill-opacity:1;fill-rule:nonzero;stroke:none"/>
      <path d="M -578.05168,-71.972751 L 223.76596,-71.972751 L 223.76596,-280.44574 L -578.05168,-280.44574 L -578.05168,-71.972751 z" id="path3504" style="fill:none;stroke:#fee102;stroke-width:0.11263648;stroke-linecap:butt;stroke-linejoin:miter;stroke-miterlimit:4;stroke-dasharray:none;stroke-opacity:1"/>
      <path d="M -333.63338,-104.90423 L -292.10688,-104.90423 L -292.10688,-127.92286 L -281.91581,-127.92286 L -269.19072,-104.90423 L -219.58817,-104.90423 L -237.94359,-129.82629 C -217.14328,-139.83826 -218.85678,-181.21149 -250.57956,-180.01778 C -252.77621,-180.01778 -333.63338,-180.01778 -333.63338,-180.01778 L -333.63338,-104.90423" id="path3506" style="fill:#ed1c24;fill-opacity:1;fill-rule:nonzero;stroke:none"/>
      <path d="M -496.05161,-104.90423 L -424.01688,-104.90423 L -424.01688,-191.60831 L 128.5185,-191.60831 C 164.65624,-195.42267 156.82259,-244.42462 128.5185,-243.45833 C 127.05407,-243.45833 -496.05161,-243.45833 -496.05161,-243.45833 L -496.05161,-104.90423" id="path3508" style="fill:#ed1c24;fill-opacity:1;fill-rule:nonzero;stroke:none"/>
      <path d="M -424.01688,-224.01999 L -424.01688,-211.14828 L 50.516063,-211.14828 C 57.354263,-213.53569 56.871123,-222.35063 50.516063,-224.01999 C 49.549773,-224.25406 -424.01688,-224.01999 -424.01688,-224.01999" id="path3510" style="fill:#fee102;fill-opacity:1;fill-rule:nonzero;stroke:none"/>
      <path d="M -399.38054,-104.90423 L -358.10978,-104.90423 L -358.10978,-180.01861 L -399.38054,-180.01861 L -399.38054,-104.90423 z" id="path3512" style="fill:#ed1c24;fill-opacity:1;fill-rule:nonzero;stroke:none"/>
      <path d="M -292.10688,-146.99134 L -292.10688,-160.95346 L -276.04391,-160.95346 C -261.1005,-160.95346 -260.85893,-146.99134 -275.79484,-146.99134 C -277.26677,-146.99134 -292.10688,-146.99134 -292.10688,-146.99134" id="path3514" style="fill:#fee102;fill-opacity:1;fill-rule:nonzero;stroke:none"/>
      <path d="M -201.57094,-180.01778 L -201.57094,-104.90423 L -111.41819,-104.90423 L -111.41819,-123.88108 L -159.31556,-123.88108 L -159.31556,-133.88223 L -116.30881,-133.88223 L -116.30881,-152.3801 L -159.0515,-152.3801 L -159.0515,-160.95346 L -114.5953,-160.95346 L -114.5953,-180.01778 L -201.57094,-180.01778" id="path3516" style="fill:#ed1c24;fill-opacity:1;fill-rule:nonzero;stroke:none"/>
      <path d="M -89.380847,-180.01778 L -89.380847,-104.90423 L -8.0555271,-104.90423 L -8.0555271,-124.101 L -46.888057,-124.101 L -46.888057,-180.01778 L -89.380847,-180.01778" id="path3518" style="fill:#ed1c24;fill-opacity:1;fill-rule:nonzero;stroke:none"/>
      <path d="M 2.5753729,-180.01778 L 2.5753729,-104.90423 L 83.887373,-104.90423 L 83.887373,-124.101 L 45.069003,-124.101 L 45.069003,-180.01778 L 2.5753729,-180.01778" id="path3520" style="fill:#ed1c24;fill-opacity:1;fill-rule:nonzero;stroke:none"/>
      <path d="M 96.128483,-104.90423 L 137.40674,-104.90423 L 137.40674,-180.01861 L 96.128483,-180.01861 L 96.128483,-104.90423 z" id="path3522" style="fill:#ed1c24;fill-opacity:1;fill-rule:nonzero;stroke:none"/>
    </g>
  </g>
</svg>