<?xml version="1.0" encoding="UTF-8" standalone="no"?>
<svg xmlns="http://www.w3.org/2000/svg" xmlns:xlink="http://www.w3.org/1999/xlink" clip-rule="evenodd" stroke-miterlimit="10" viewBox="0 0 453.54 340.16">
    <desc>SVG generated by Lineform</desc>
    <defs/>
    <g>
        <path d="M 240.70 196.33 C 207.81 218.62 174.50 240.90 141.60 263.20 C 138.41 265.37 135.06 267.20 131.20 267.16 C 126.84 267.11 123.54 265.44 121.19 262.63 C 114.00 254.05 107.41 245.59 99.87 237.21 C 98.29 235.46 94.62 235.93 92.89 237.53 C 90.74 239.52 90.21 243.00 91.12 245.50 C 92.54 249.42 93.41 254.48 95.47 256.73 C 97.92 259.39 101.91 259.83 104.88 261.89 C 108.39 264.33 110.98 268.33 113.03 272.31 C 115.02 276.16 111.88 282.60 109.09 284.43 C 106.27 286.30 107.02 286.03 104.08 287.70 C 101.33 289.26 98.30 289.41 96.23 288.84 C 93.01 287.93 91.65 285.82 89.55 281.41 C 79.45 260.20 69.33 240.01 59.15 218.71 C 56.53 213.21 56.36 209.91 58.45 207.66 C 94.14 169.11 120.89 140.69 147.38 112.93 C 162.09 97.51 173.60 89.57 189.92 79.32 C 202.75 71.26 216.04 66.03 231.02 60.67 C 232.51 60.14 234.27 59.37 235.63 59.09 C 236.57 58.90 239.25 63.84 243.07 63.97 C 245.58 64.05 253.31 54.67 256.29 53.94 C 262.54 52.39 269.02 51.49 275.45 51.15 C 297.07 50.00 317.83 51.60 338.59 56.44 C 361.01 61.67 381.18 70.13 402.83 83.20 C 412.78 89.21 412.02 90.90 411.58 94.20 C 411.38 95.68 408.86 100.84 409.57 102.15 C 411.68 106.03 415.30 105.07 414.57 109.79 C 412.76 121.55 399.21 128.62 390.64 131.96 C 346.79 149.03 268.68 178.50 261.63 183.35 C 259.73 184.65 262.19 190.31 260.90 191.96 C 259.51 193.73 248.38 191.57 244.59 194.03 Z M 240.95 196.83 " stroke="#B3B3B3" stroke-width="3.00" fill="none"/>
        <g>
            <text xml:space="preserve" font-family="Liberation Sans" font-size="8.00"/>
            <path d="M 93.93 230.69 L 111.57 205.29 " stroke="#000000" stroke-width="0.59" fill="none"/>
        </g>
        <path d="M 109.13 284.02 C 105.77 285.59 104.06 286.40 101.22 285.58 C 98.90 284.90 97.37 283.40 96.51 281.51 C 93.73 275.41 92.19 271.26 90.98 268.70 C 90.09 266.83 92.10 264.92 90.43 263.70 C 88.74 262.46 85.13 258.74 83.39 255.49 C 77.46 244.44 71.81 232.01 66.10 220.27 C 66.10 220.27 65.28 218.72 65.04 217.48 C 64.90 216.74 63.65 212.24 63.52 209.08 C 63.45 207.28 66.88 198.81 80.60 185.29 " stroke="#000000" stroke-width="3.00" fill="none"/>
        <path d="M 80.22 278.98 L 74.55 281.49 L 72.75 269.93 Z M 80.22 278.98 " fill-rule="non-zero" fill="#FF0000"/>
        <text xml:space="preserve" font-family="Liberation Sans" font-size="7.00" transform="matrix(1.8681, 0, 0, 1.8681, 0, 0)" opacity="0.49">
            <tspan x="9.39" y="109.27">Nord-</tspan>
            <tspan x="9.39" y="116.27">kurve</tspan>
        </text>
        <text xml:space="preserve" font-family="Liberation Sans" font-size="7.00" transform="matrix(1.8681, 0, 0, 1.8681, 0, 0)" opacity="0.49">
            <tspan x="46.89" y="165.94">Südkurve</tspan>
        </text>
        <text xml:space="preserve" font-family="Liberation Sans" font-size="7.00" transform="matrix(1.8681, 0, 0, 1.8681, 0, 0)" opacity="0.49">
            <tspan x="201.03" y="53.09">Ost-</tspan>
            <tspan x="196.03" y="60.09">kurve</tspan>
        </text>
        <text xml:space="preserve" font-family="Liberation Sans" font-size="7.00" transform="matrix(1.8681, 0, 0, 1.8681, 0, 0)" opacity="0.49">
            <tspan x="141.16" y="111.44">Ayrton-Senna-Kurve</tspan>
        </text>
        <text xml:space="preserve" font-family="Liberation Sans" font-size="7.00" transform="matrix(1.8681, 0, 0, 1.8681, 0, 0)" opacity="0.49">
            <tspan x="59.70" y="109.31">Sachs-</tspan>
            <tspan x="59.70" y="116.31">kurve</tspan>
        </text>
        <text xml:space="preserve" font-family="Liberation Sans" font-size="7.00" transform="matrix(1.8681, 0, 0, 1.8681, 0, 0)" opacity="0.49">
            <tspan x="101.20" y="19.35">Jim-Clark-Kurve</tspan>
        </text>
        <g>
            <path d="M 87.78 259.29 L 84.15 261.05 L 82.39 257.41 L 86.03 255.66 Z M 87.78 259.29 " fill-rule="non-zero" fill="#000000"/>
            <path d="M 86.02 255.66 L 82.39 257.41 L 80.64 253.78 L 84.27 252.03 Z M 86.02 255.66 " fill-rule="non-zero" fill="#FFFFFF"/>
            <path d="M 84.27 252.03 L 80.64 253.78 L 78.88 250.15 L 82.51 248.39 Z M 84.27 252.03 " fill-rule="non-zero" fill="#000000"/>
            <path d="M 84.18 261.03 L 80.55 262.79 L 78.79 259.16 L 82.42 257.40 Z M 84.18 261.03 " fill-rule="non-zero" fill="#FFFFFF"/>
            <path d="M 80.67 253.77 L 77.04 255.52 L 75.28 251.89 L 78.91 250.13 Z M 80.67 253.77 " fill-rule="non-zero" fill="#FFFFFF"/>
            <path d="M 82.46 257.38 L 78.82 259.14 L 77.07 255.51 L 80.70 253.75 Z M 82.46 257.38 " fill-rule="non-zero" fill="#000000"/>
            <path d="M 80.58 262.77 L 76.95 264.53 L 75.19 260.90 L 78.82 259.14 Z M 80.58 262.77 " fill-rule="non-zero" fill="#000000"/>
            <path d="M 78.82 259.14 L 75.19 260.90 L 73.44 257.26 L 77.07 255.51 Z M 78.82 259.14 " fill-rule="non-zero" fill="#FFFFFF"/>
            <path d="M 77.07 255.51 L 73.44 257.26 L 71.68 253.63 L 75.31 251.88 Z M 77.07 255.51 " fill-rule="non-zero" fill="#000000"/>
            <path d="M 76.98 264.51 L 73.35 266.27 L 71.59 262.64 L 75.22 260.88 Z M 76.98 264.51 " fill-rule="non-zero" fill="#FFFFFF"/>
            <path d="M 73.47 257.25 L 69.84 259.01 L 68.08 255.37 L 71.71 253.62 Z M 73.47 257.25 " fill-rule="non-zero" fill="#FFFFFF"/>
            <path d="M 75.26 260.87 L 71.62 262.62 L 69.87 258.99 L 73.50 257.23 Z M 75.26 260.87 " fill-rule="non-zero" fill="#000000"/>
            <path d="M 73.51 266.35 L 69.87 268.11 L 68.12 264.48 L 71.75 262.72 Z M 73.51 266.35 " fill-rule="non-zero" fill="#000000"/>
            <path d="M 71.75 262.72 L 68.12 264.48 L 66.36 260.84 L 69.99 259.09 Z M 71.75 262.72 " fill-rule="non-zero" fill="#FFFFFF"/>
            <path d="M 69.99 259.09 L 66.36 260.84 L 64.60 257.21 L 68.24 255.45 Z M 69.99 259.09 " fill-rule="non-zero" fill="#000000"/>
        </g>
        <path d="M 221.16 210.39 C 220.18 211.07 218.34 211.76 216.50 211.93 C 212.95 212.26 182.27 207.62 179.96 207.36 C 179.10 207.26 177.88 207.46 177.50 208.25 C 174.10 215.28 178.35 222.56 180.36 225.19 C 184.79 230.99 180.25 237.53 177.80 239.17 C 169.74 244.61 144.79 261.42 141.90 263.38 C 138.71 265.54 135.37 267.37 131.52 267.33 C 127.17 267.28 123.88 265.61 121.54 262.81 C 114.37 254.25 107.79 245.82 100.27 237.46 C 98.70 235.72 95.04 236.18 93.32 237.78 C 91.17 239.77 90.65 243.24 91.55 245.73 C 92.97 249.64 93.83 254.69 95.89 256.92 C 98.34 259.58 102.31 260.01 105.27 262.07 C 108.77 264.50 111.36 268.50 113.40 272.46 C 115.38 276.30 115.77 279.66 109.48 284.55 C 106.82 286.63 107.41 286.14 104.48 287.81 C 101.73 289.37 98.71 289.52 96.65 288.94 C 93.43 288.04 92.08 285.94 89.99 281.54 C 79.91 260.39 71.02 242.14 60.40 221.13 C 58.08 216.53 64.94 202.06 70.90 195.57 C 100.95 162.85 107.83 156.79 109.91 155.93 C 113.23 154.54 115.81 161.59 115.93 164.31 C 116.19 170.08 115.50 173.26 121.36 176.62 C 182.85 211.91 209.10 198.69 262.45 176.64 C 266.63 174.91 267.68 174.68 268.96 176.35 C 270.20 177.98 267.60 179.74 265.92 180.73 Z M 240.97 197.19 " stroke="#000000" stroke-width="4.99" fill="none"/>
    </g>
</svg>