<?xml version="1.0" encoding="UTF-8" standalone="no"?>
<!-- Created with Inkscape (http://www.inkscape.org/) -->

<svg
   width="256"
   height="256"
   viewBox="0 0 67.733332 67.733335"
   version="1.1"
   id="svg33246"
   inkscape:version="1.1.1 (3bf5ae0d25, 2021-09-20)"
   sodipodi:docname="loading.svg"
   xmlns:inkscape="http://www.inkscape.org/namespaces/inkscape"
   xmlns:sodipodi="http://sodipodi.sourceforge.net/DTD/sodipodi-0.dtd"
   xmlns:xlink="http://www.w3.org/1999/xlink"
   xmlns="http://www.w3.org/2000/svg"
   xmlns:svg="http://www.w3.org/2000/svg">
  <sodipodi:namedview
     id="namedview33248"
     pagecolor="#505050"
     bordercolor="#ffffff"
     borderopacity="1"
     inkscape:pageshadow="0"
     inkscape:pageopacity="0"
     inkscape:pagecheckerboard="1"
     inkscape:document-units="px"
     showgrid="false"
     units="px"
     showguides="false"
     inkscape:guide-bbox="true"
     inkscape:snap-bbox="true"
     inkscape:snap-bbox-midpoints="true"
     inkscape:snap-bbox-edge-midpoints="true"
     inkscape:zoom="1.8707912"
     inkscape:cx="44.366254"
     inkscape:cy="88.197975"
     inkscape:window-width="1920"
     inkscape:window-height="1029"
     inkscape:window-x="0"
     inkscape:window-y="25"
     inkscape:window-maximized="1"
     inkscape:current-layer="layer1">
    <sodipodi:guide
       position="34.447044,52.390592"
       orientation="1,0"
       id="guide91792" />
    <sodipodi:guide
       position="16.997504,34.941052"
       orientation="0,-1"
       id="guide91794" />
  </sodipodi:namedview>
  <defs
     id="defs33243">
    <linearGradient
       inkscape:collect="always"
       id="linearGradient103004">
      <stop
         style="stop-color:#00ffff;stop-opacity:1"
         offset="0"
         id="stop102998" />
      <stop
         style="stop-color:#00ffff;stop-opacity:1"
         offset="0.40000004"
         id="stop103000" />
      <stop
         style="stop-color:#363636;stop-opacity:1"
         offset="1"
         id="stop103002" />
    </linearGradient>
    <linearGradient
       inkscape:collect="always"
       id="linearGradient34747">
      <stop
         style="stop-color:#000000;stop-opacity:1"
         offset="0"
         id="stop34743" />
      <stop
         style="stop-color:#1c1c1c;stop-opacity:1;"
         offset="0.72525233"
         id="stop36161" />
      <stop
         style="stop-color:#1a1a1a;stop-opacity:1"
         offset="0.89999998"
         id="stop35165" />
      <stop
         style="stop-color:#1a1a1a;stop-opacity:1"
         offset="1"
         id="stop34745" />
    </linearGradient>
    <linearGradient
       inkscape:collect="always"
       id="linearGradient33591">
      <stop
         style="stop-color:#f2f2f2;stop-opacity:1"
         offset="0"
         id="stop33589" />
      <stop
         style="stop-color:#9f9f9f;stop-opacity:1"
         offset="0.29728314"
         id="stop36544" />
      <stop
         style="stop-color:#363636;stop-opacity:1"
         offset="1"
         id="stop33587" />
    </linearGradient>
    <radialGradient
       inkscape:collect="always"
       xlink:href="#linearGradient33591"
       id="radialGradient33593"
       cx="33.00629"
       cy="33.577896"
       fx="33.00629"
       fy="33.577896"
       r="16.314911"
       gradientUnits="userSpaceOnUse"
       gradientTransform="matrix(1.3822267,0.79802876,-0.84711117,1.4672399,17.4655,-42.638275)" />
    <radialGradient
       inkscape:collect="always"
       xlink:href="#linearGradient34747"
       id="radialGradient34749"
       cx="34.347038"
       cy="32.792282"
       fx="34.347038"
       fy="32.792282"
       r="27.339892"
       gradientUnits="userSpaceOnUse"
       gradientTransform="matrix(1.2209,0,0,1.2209,-7.5872588,-7.2438159)" />
    <radialGradient
       inkscape:collect="always"
       xlink:href="#linearGradient103004"
       id="radialGradient94001"
       gradientUnits="userSpaceOnUse"
       gradientTransform="matrix(0.83416415,0.48160476,-0.48964231,0.84808556,23.447649,-11.520197)"
       cx="33.00629"
       cy="33.577896"
       fx="33.00629"
       fy="33.577896"
       r="16.314911" />
  </defs>
  <g
     inkscape:label="Layer 1"
     inkscape:groupmode="layer"
     id="layer1">
    <g
       id="g131954"
       transform="rotate(32.3817,32.256722,32.502256)">
      <circle
         style="fill:url(#radialGradient34749);fill-opacity:1;stroke:#1a1a1a;stroke-width:0.102582;stroke-linecap:round;stroke-linejoin:round;-inkscape-stroke:none;stop-color:#000000"
         id="path33329"
         cx="34.347038"
         cy="32.792282"
         r="33.31665" />
      <circle
         style="fill:url(#radialGradient33593);fill-opacity:1;stroke:#00ffff;stroke-width:2.64583;stroke-linecap:round;stroke-linejoin:round;stroke-miterlimit:4;stroke-dasharray:none;stop-color:#000000"
         id="circle33519"
         cx="34.484718"
         cy="32.792282"
         r="22.531126" />
      <g
         aria-label="LOADING"
         id="text38060"
         style="font-size:3.52778px;line-height:1.25;stroke-width:0.192182"
         transform="matrix(1.3767336,0,0,1.3767336,-12.939684,-12.353955)">
        <path
           d="m 18.160368,23.168739 -1.92346,-1.808449 0.365392,-0.557714 1.527127,1.434916 0.65732,-1.003295 0.396333,0.373534 z"
           style="font-style:italic;font-weight:bold;font-family:Tomorrow;-inkscape-font-specification:'Tomorrow Bold Italic';fill:#ffd42a;stroke-width:0.192182"
           id="path131816" />
        <path
           d="m 19.561986,21.130961 -0.506256,-0.01005 -1.175726,-1.421007 0.0022,-0.605728 0.998582,-1.169881 0.506257,0.01005 1.175726,1.421007 -0.0022,0.605728 z m -0.06266,-0.698193 0.480968,-0.563475 -9e-6,-0.190173 -0.871929,-1.059653 -0.164913,0.003 -0.476387,0.558109 -0.0023,0.192856 0.871929,1.059653 z"
           style="font-style:italic;font-weight:bold;font-family:Tomorrow;-inkscape-font-specification:'Tomorrow Bold Italic';fill:#ffd42a;stroke-width:0.192182"
           id="path131818" />
        <path
           d="m 20.884488,19.57782 -0.798988,-2.765144 0.805613,-0.713237 1.945334,1.750244 -0.501857,0.444311 -0.372812,-0.362555 -0.694675,0.61502 0.179992,0.533265 z m 0.201713,-1.549686 0.50714,-0.448988 -0.776629,-0.749489 -0.09509,0.08419 z"
           style="font-style:italic;font-weight:bold;font-family:Tomorrow;-inkscape-font-specification:'Tomorrow Bold Italic';fill:#ffd42a;stroke-width:0.192182"
           id="path131820" />
        <path
           d="m 23.049934,17.704591 -1.053461,-2.420828 1.426417,-0.944861 0.668644,0.204514 0.616139,1.41566 -0.231322,0.800654 z m 0.352748,-0.834539 0.626447,-0.41496 0.08203,-0.278611 -0.496609,-1.139389 -0.23266,-0.07016 -0.626448,0.41496 z"
           style="font-style:italic;font-weight:bold;font-family:Tomorrow;-inkscape-font-specification:'Tomorrow Bold Italic';fill:#ffd42a;stroke-width:0.192182"
           id="path131822" />
        <path
           d="m 25.174862,16.352266 -0.14941,-0.482575 0.25402,-0.13087 -0.48739,-1.554541 -0.250884,0.129255 -0.14941,-0.482575 1.0788,-0.555796 0.14941,0.482575 -0.25402,0.13087 0.477982,1.559388 0.260292,-0.134102 0.149411,0.482575 z"
           style="font-style:italic;font-weight:bold;font-family:Tomorrow;-inkscape-font-specification:'Tomorrow Bold Italic';fill:#ffd42a;stroke-width:0.192182"
           id="path131824" />
        <path
           d="m 26.585181,15.617808 -0.499381,-2.592452 0.63933,-0.244224 1.168208,1.298448 -0.311373,-1.625758 0.580011,-0.221564 0.499382,2.592452 -0.580012,0.221564 -1.090894,-1.214689 -0.118639,0.04532 0.293379,1.519339 z"
           style="font-style:italic;font-weight:bold;font-family:Tomorrow;-inkscape-font-specification:'Tomorrow Bold Italic';fill:#ffd42a;stroke-width:0.192182"
           id="path131826" />
        <path
           d="m 29.436158,14.61032 -0.397877,-0.313195 -0.08151,-1.842538 0.366886,-0.48198 1.429624,-0.315523 0.401322,0.312434 0.02072,0.486751 -0.631173,0.135689 -0.01112,-0.24682 -0.129957,-0.09776 -0.664861,0.146737 -0.118075,0.152503 0.05618,1.367643 0.130717,0.101207 0.540845,-0.119366 0.317757,-0.377208 -0.0025,-0.09337 -0.465058,0.10264 -0.0226,-0.511625 1.050687,-0.23189 0.06338,1.416632 -0.551181,0.121647 -0.0088,-0.236485 -0.24608,0.292747 z"
           style="font-style:italic;font-weight:bold;font-family:Tomorrow;-inkscape-font-specification:'Tomorrow Bold Italic';fill:#ffd42a;stroke-width:0.192182"
           id="path131828" />
      </g>
      <circle
         style="fill:none;fill-opacity:1;stroke:none;stroke-width:0.47334;stroke-linecap:round;stroke-linejoin:round;stroke-miterlimit:4;stroke-dasharray:none;stop-color:#000000"
         id="circle60726"
         cx="-46.141548"
         cy="-11.22543"
         r="25.900419"
         transform="rotate(-150)" />
      <g
         aria-label="                                                                       GAME"
         id="text65973"
         style="font-size:3.52778px;line-height:1.25;stroke-width:0.192182"
         transform="matrix(1.3767336,0,0,1.3767336,-12.939684,-12.353955)">
        <path
           d="m 48.914459,44.734177 0.505824,0.02321 1.138386,1.451092 -0.01794,0.605466 -0.979113,1.088448 -0.508183,-0.02059 -0.300073,-0.383812 0.434376,-0.477607 0.152659,0.194265 0.162577,0.0039 0.455346,-0.506194 0.0073,-0.192732 -0.841463,-1.079603 -0.165199,-0.0063 -0.370411,0.411774 -0.03895,0.491668 0.0564,0.07446 0.318506,-0.354074 0.316073,0.402951 -0.719589,0.799943 -0.875823,-1.115257 0.37749,-0.419642 0.14479,0.187187 0.0298,-0.381272 z"
           style="font-style:italic;font-weight:bold;font-family:Tomorrow;-inkscape-font-specification:'Tomorrow Bold Italic';fill:#ffd42a;stroke-width:0.192182"
           id="path131789" />
        <path
           d="m 47.367895,46.442634 0.706903,2.790106 -0.828808,0.686145 -1.886257,-1.813757 0.516307,-0.427434 0.36059,0.374712 0.714678,-0.591659 -0.16222,-0.538937 z m -0.252964,1.542149 -0.521742,0.431934 0.751362,0.774817 0.09783,-0.08099 z"
           style="font-style:italic;font-weight:bold;font-family:Tomorrow;-inkscape-font-specification:'Tomorrow Bold Italic';fill:#ffd42a;stroke-width:0.192182"
           id="path131791" />
        <path
           d="m 45.149769,48.256575 0.940452,2.466929 -0.538978,0.322208 -1.133758,-1.147108 -0.0017,1.825917 -0.593481,0.354791 -0.940451,-2.466929 0.532922,-0.318588 0.518128,1.354846 -0.009,-1.527665 0.266461,-0.159293 0.944678,0.968326 -0.518129,-1.354847 z"
           style="font-style:italic;font-weight:bold;font-family:Tomorrow;-inkscape-font-specification:'Tomorrow Bold Italic';fill:#ffd42a;stroke-width:0.192182"
           id="path131793" />
        <path
           d="m 42.437803,49.805465 0.570095,2.577825 -1.838558,0.760578 -0.116963,-0.531908 1.222446,-0.505704 -0.105165,-0.475706 -1.101832,0.455808 -0.111908,-0.492005 1.105092,-0.457156 -0.122357,-0.544948 -1.222446,0.505704 -0.116963,-0.531909 z"
           style="font-style:italic;font-weight:bold;font-family:Tomorrow;-inkscape-font-specification:'Tomorrow Bold Italic';fill:#ffd42a;stroke-width:0.192182"
           id="path131795" />
      </g>
      <rect
         style="fill:#00ffff;fill-opacity:1;stroke:none;stroke-width:0.47334;stroke-linecap:round;stroke-linejoin:round;stroke-miterlimit:4;stroke-dasharray:none;stop-color:#000000"
         id="rect89348"
         width="16.986824"
         height="6.5254517"
         x="39.720764"
         y="29.529556"
         rx="3.2627273"
         ry="3.2627258"
         inkscape:transform-center-x="-13.817848"
         inkscape:transform-center-y="0.066592301" />
      <rect
         style="fill:#00ffff;fill-opacity:1;stroke:none;stroke-width:0.47334;stroke-linecap:round;stroke-linejoin:round;stroke-miterlimit:4;stroke-dasharray:none;stop-color:#000000"
         id="rect93985"
         width="16.986826"
         height="6.5254517"
         x="52.786873"
         y="-4.3774533"
         rx="3.2627273"
         ry="3.2627258"
         inkscape:transform-center-x="-9.7236087"
         inkscape:transform-center-y="9.8177847"
         transform="rotate(45)" />
      <rect
         style="fill:#00ffff;fill-opacity:1;stroke:none;stroke-width:0.47334;stroke-linecap:round;stroke-linejoin:round;stroke-miterlimit:4;stroke-dasharray:none;stop-color:#000000"
         id="rect93987"
         width="16.986824"
         height="6.5254517"
         x="38.050129"
         y="-37.592464"
         rx="3.2627273"
         ry="3.2627258"
         inkscape:transform-center-x="0.066589942"
         inkscape:transform-center-y="13.817852"
         transform="rotate(90)" />
      <rect
         style="fill:#00ffff;fill-opacity:1;stroke:none;stroke-width:0.47334;stroke-linecap:round;stroke-linejoin:round;stroke-miterlimit:4;stroke-dasharray:none;stop-color:#000000"
         id="rect93989"
         width="16.986826"
         height="6.5254517"
         x="4.1431184"
         y="-50.658573"
         rx="3.2627273"
         ry="3.2627258"
         inkscape:transform-center-x="9.8177808"
         inkscape:transform-center-y="9.7236128"
         transform="rotate(135)" />
      <rect
         style="fill:#00ffff;fill-opacity:1;stroke:none;stroke-width:0.47334;stroke-linecap:round;stroke-linejoin:round;stroke-miterlimit:4;stroke-dasharray:none;stop-color:#000000"
         id="rect93991"
         width="16.986824"
         height="6.5254517"
         x="-29.07189"
         y="-35.921825"
         rx="3.2627273"
         ry="3.2627258"
         inkscape:transform-center-x="13.817851"
         inkscape:transform-center-y="-0.066589935"
         transform="scale(-1)" />
      <rect
         style="fill:#00ffff;fill-opacity:1;stroke:none;stroke-width:0.47334;stroke-linecap:round;stroke-linejoin:round;stroke-miterlimit:4;stroke-dasharray:none;stop-color:#000000"
         id="rect93993"
         width="16.986826"
         height="6.5254517"
         x="-42.137997"
         y="-2.0148172"
         rx="3.2627273"
         ry="3.2627258"
         inkscape:transform-center-x="9.7236111"
         inkscape:transform-center-y="-9.8177811"
         transform="rotate(-135)" />
      <rect
         style="fill:#00ffff;fill-opacity:1;stroke:none;stroke-width:0.47334;stroke-linecap:round;stroke-linejoin:round;stroke-miterlimit:4;stroke-dasharray:none;stop-color:#000000"
         id="rect93995"
         width="16.986824"
         height="6.5254517"
         x="-27.401249"
         y="31.200188"
         rx="3.2627273"
         ry="3.2627258"
         inkscape:transform-center-x="-0.066584735"
         inkscape:transform-center-y="-13.817853"
         transform="rotate(-90)" />
      <rect
         style="fill:#00ffff;fill-opacity:1;stroke:none;stroke-width:0.47334;stroke-linecap:round;stroke-linejoin:round;stroke-miterlimit:4;stroke-dasharray:none;stop-color:#000000"
         id="rect93997"
         width="16.986826"
         height="6.5254517"
         x="6.5057597"
         y="44.266296"
         rx="3.2627273"
         ry="3.2627258"
         inkscape:transform-center-x="-9.8177821"
         inkscape:transform-center-y="-9.7236129"
         transform="rotate(-45)" />
      <circle
         style="fill:url(#radialGradient94001);fill-opacity:1;stroke:#00ffff;stroke-width:0.473339;stroke-linecap:round;stroke-linejoin:round;stroke-miterlimit:4;stroke-dasharray:none;stop-color:#000000"
         id="circle93999"
         cx="34.484718"
         cy="32.792282"
         r="7.7264094" />
    </g>
  </g>
</svg>
