<?xml version="1.0" encoding="UTF-8" standalone="no"?>
<svg xmlns="http://www.w3.org/2000/svg" xmlns:xlink="http://www.w3.org/1999/xlink" clip-rule="evenodd" stroke-miterlimit="10" viewBox="0 0 481.89 340.16">
    <desc>SVG generated by Lineform</desc>
    <defs/>
    <g>
        <path d="M 311.81 138.70 C 297.65 140.03 292.14 142.76 293.02 146.07 C 294.04 149.88 298.84 149.72 306.19 150.94 C 318.29 152.94 318.41 159.38 318.76 164.91 C 319.18 171.63 324.55 168.48 330.29 167.63 " stroke="#999999" stroke-width="2.58" fill="none"/>
        <path d="M 367.89 158.15 C 378.75 153.70 384.23 152.31 393.11 139.78 C 395.08 137.00 443.44 63.64 446.36 59.05 C 449.45 54.19 452.41 50.60 448.43 48.84 L 424.56 39.69 C 419.30 38.30 418.36 39.30 414.15 45.90 C 406.70 57.57 386.50 86.05 384.90 88.60 C 383.83 90.31 379.15 98.08 377.49 101.53 C 376.45 103.70 375.48 106.10 379.76 109.28 C 381.30 110.42 383.31 111.46 387.26 113.63 C 388.62 114.38 390.16 117.76 387.26 121.88 C 382.94 128.02 380.90 129.91 372.77 141.56 C 370.21 145.22 361.61 148.92 352.57 151.21 C 346.58 152.73 342.69 136.83 340.81 131.73 C 339.27 127.56 319.13 147.79 281.21 135.41 C 255.24 126.92 251.51 122.29 224.22 113.07 C 200.39 105.01 183.82 103.37 169.76 101.87 C 150.66 99.84 145.92 100.65 111.00 112.55 C 106.78 113.99 106.89 117.08 107.41 118.62 C 115.88 143.82 126.37 166.10 125.86 166.43 L 121.54 185.48 C 121.15 187.59 117.44 188.43 114.93 188.80 C 95.76 191.61 67.32 195.52 57.58 196.85 C 54.85 197.22 51.84 197.14 50.98 201.40 C 45.86 226.69 44.00 226.42 47.37 234.29 C 48.55 237.07 60.48 265.57 63.09 270.76 C 65.85 276.23 70.41 274.97 75.42 272.10 C 77.82 270.73 139.44 241.25 146.89 237.70 C 149.30 236.55 154.60 233.94 151.72 228.02 C 145.94 216.15 143.42 210.33 141.49 207.16 C 135.16 196.73 132.12 166.58 157.90 155.75 C 184.87 144.43 199.87 156.93 211.69 167.03 C 221.61 175.50 224.36 177.94 226.33 182.54 C 229.93 190.94 229.74 193.52 234.77 192.07 Z M 312.11 179.98 " stroke="#000000" stroke-width="5.27" fill="none"/>
        <path d="M 401.94 66.68 C 403.05 65.15 408.19 60.89 409.67 59.70 C 414.68 55.65 420.10 43.59 421.50 44.23 C 422.69 44.77 440.18 52.07 441.18 52.45 C 442.75 53.03 442.57 54.24 441.92 55.52 C 440.13 59.05 388.89 136.17 387.75 137.73 C 381.14 146.79 375.65 150.53 366.73 153.23 C 363.34 154.26 351.53 160.85 347.06 161.95 " stroke="#000000" stroke-width="2.42" fill="none"/>
        <g>
            <path d="M 441.67 86.77 L 448.05 90.97 L 437.27 100.54 Z M 441.67 86.77 " fill-rule="non-zero" fill="#FF0000"/>
            <g>
                <path d="M 416.25 92.05 L 420.48 94.64 L 417.89 98.88 L 413.66 96.29 Z M 416.25 92.05 " fill-rule="non-zero" fill="#000000"/>
                <path d="M 413.66 96.29 L 417.89 98.88 L 415.30 103.12 L 411.06 100.52 Z M 413.66 96.29 " fill-rule="non-zero" fill="#FFFFFF"/>
                <path d="M 411.06 100.52 L 415.30 103.12 L 412.71 107.35 L 408.47 104.76 Z M 411.06 100.52 " fill-rule="non-zero" fill="#000000"/>
                <path d="M 420.45 94.62 L 424.68 97.21 L 422.09 101.45 L 417.86 98.86 Z M 420.45 94.62 " fill-rule="non-zero" fill="#FFFFFF"/>
                <path d="M 415.26 103.09 L 419.50 105.68 L 416.91 109.92 L 412.67 107.33 Z M 415.26 103.09 " fill-rule="non-zero" fill="#FFFFFF"/>
                <path d="M 417.82 98.83 L 422.06 101.43 L 419.46 105.66 L 415.23 103.07 Z M 417.82 98.83 " fill-rule="non-zero" fill="#000000"/>
                <path d="M 424.65 97.19 L 428.88 99.78 L 426.29 104.02 L 422.06 101.43 Z M 424.65 97.19 " fill-rule="non-zero" fill="#000000"/>
                <path d="M 422.06 101.43 L 426.29 104.02 L 423.70 108.25 L 419.46 105.66 Z M 422.06 101.43 " fill-rule="non-zero" fill="#FFFFFF"/>
                <path d="M 419.46 105.66 L 423.70 108.25 L 421.11 112.49 L 416.87 109.90 Z M 419.46 105.66 " fill-rule="non-zero" fill="#000000"/>
                <path d="M 428.85 99.76 L 433.08 102.35 L 430.49 106.58 L 426.26 103.99 Z M 428.85 99.76 " fill-rule="non-zero" fill="#FFFFFF"/>
                <path d="M 423.66 108.23 L 427.90 110.82 L 425.31 115.06 L 421.07 112.47 Z M 423.66 108.23 " fill-rule="non-zero" fill="#FFFFFF"/>
                <path d="M 426.22 103.97 L 430.46 106.56 L 427.86 110.80 L 423.63 108.21 Z M 426.22 103.97 " fill-rule="non-zero" fill="#000000"/>
                <path d="M 433.06 102.13 L 437.30 104.72 L 434.71 108.96 L 430.47 106.37 Z M 433.06 102.13 " fill-rule="non-zero" fill="#000000"/>
                <path d="M 430.47 106.37 L 434.71 108.96 L 432.12 113.20 L 427.88 110.61 Z M 430.47 106.37 " fill-rule="non-zero" fill="#FFFFFF"/>
                <path d="M 427.88 110.60 L 432.12 113.20 L 429.53 117.43 L 425.29 114.84 Z M 427.88 110.60 " fill-rule="non-zero" fill="#000000"/>
            </g>
        </g>
        <ellipse cx="388.65" cy="167.94" rx="10.50" ry="10.50" fill="#FFFFFF" stroke="#000000" stroke-width="0.61"/>
        <text xml:space="preserve" font-family="Liberation Sans" font-size="10.00" transform="matrix(0.981308, 0, 0, 0.981308, 0, 0)">
            <tspan x="393.05" y="174.86">1</tspan>
        </text>
        <ellipse cx="240.47" cy="209.09" rx="10.50" ry="10.50" fill="#FFFFFF" stroke="#000000" stroke-width="0.61"/>
        <text xml:space="preserve" font-family="Liberation Sans" font-size="10.00" transform="matrix(0.981308, 0, 0, 0.981308, 0, 0)">
            <tspan x="242.05" y="216.79">2</tspan>
        </text>
        <ellipse cx="233.60" cy="166.32" rx="10.50" ry="10.50" fill="#FFFFFF" stroke="#000000" stroke-width="0.61"/>
        <text xml:space="preserve" font-family="Liberation Sans" font-size="10.00" transform="matrix(0.981308, 0, 0, 0.981308, 0, 0)">
            <tspan x="235.05" y="173.20">3</tspan>
        </text>
        <ellipse cx="165.30" cy="169.40" rx="10.50" ry="10.50" fill="#FFFFFF" stroke="#000000" stroke-width="0.61"/>
        <text xml:space="preserve" font-family="Liberation Sans" font-size="10.00" transform="matrix(0.981308, 0, 0, 0.981308, 0, 0)">
            <tspan x="165.45" y="176.34">4</tspan>
        </text>
        <ellipse cx="166.40" cy="240.54" rx="10.50" ry="10.50" fill="#FFFFFF" stroke="#000000" stroke-width="0.61"/>
        <text xml:space="preserve" font-family="Liberation Sans" font-size="10.00" transform="matrix(0.981308, 0, 0, 0.981308, 0, 0)">
            <tspan x="166.57" y="248.83">5</tspan>
        </text>
        <ellipse cx="62.21" cy="290.25" rx="10.50" ry="10.50" fill="#FFFFFF" stroke="#000000" stroke-width="0.61"/>
        <text xml:space="preserve" font-family="Liberation Sans" font-size="10.00" transform="matrix(0.981308, 0, 0, 0.981308, 0, 0)">
            <tspan x="60.39" y="299.49">6</tspan>
        </text>
        <ellipse cx="28.15" cy="230.88" rx="10.50" ry="10.50" fill="#FFFFFF" stroke="#000000" stroke-width="0.61"/>
        <text xml:space="preserve" font-family="Liberation Sans" font-size="10.00" transform="matrix(0.981308, 0, 0, 0.981308, 0, 0)">
            <tspan x="25.68" y="238.99">7</tspan>
        </text>
        <ellipse cx="42.60" cy="184.83" rx="10.50" ry="10.50" fill="#FFFFFF" stroke="#000000" stroke-width="0.61"/>
        <text xml:space="preserve" font-family="Liberation Sans" font-size="10.00" transform="matrix(0.981308, 0, 0, 0.981308, 0, 0)">
            <tspan x="40.41" y="192.07">8</tspan>
        </text>
        <ellipse cx="101.96" cy="175.35" rx="10.50" ry="10.50" fill="#FFFFFF" stroke="#000000" stroke-width="0.61"/>
        <text xml:space="preserve" font-family="Liberation Sans" font-size="10.00" transform="matrix(0.981308, 0, 0, 0.981308, 0, 0)">
            <tspan x="100.90" y="182.41">9</tspan>
        </text>
        <ellipse cx="106.72" cy="160.35" rx="10.50" ry="10.50" fill="#FFFFFF" stroke="#000000" stroke-width="0.61"/>
        <text xml:space="preserve" font-family="Liberation Sans" font-size="10.00" transform="matrix(0.981308, 0, 0, 0.981308, 0, 0)">
            <tspan x="102.75" y="167.12">10</tspan>
        </text>
        <ellipse cx="89.31" cy="110.30" rx="10.50" ry="10.50" fill="#FFFFFF" stroke="#000000" stroke-width="0.61"/>
        <text xml:space="preserve" font-family="Liberation Sans" font-size="10.00" transform="matrix(0.981308, 0, 0, 0.981308, 0, 0)">
            <tspan x="85.01" y="116.12">11</tspan>
        </text>
        <ellipse cx="185.28" cy="87.40" rx="10.50" ry="10.50" fill="#FFFFFF" stroke="#000000" stroke-width="0.61"/>
        <text xml:space="preserve" font-family="Liberation Sans" font-size="10.00" transform="matrix(0.981308, 0, 0, 0.981308, 0, 0)">
            <tspan x="182.81" y="92.78">12</tspan>
        </text>
        <ellipse cx="293.14" cy="122.79" rx="10.50" ry="10.50" fill="#FFFFFF" stroke="#000000" stroke-width="0.61"/>
        <text xml:space="preserve" font-family="Liberation Sans" font-size="10.00" transform="matrix(0.981308, 0, 0, 0.981308, 0, 0)">
            <tspan x="292.73" y="128.85">13</tspan>
        </text>
        <ellipse cx="336.35" cy="115.04" rx="10.50" ry="10.50" fill="#FFFFFF" stroke="#000000" stroke-width="0.61"/>
        <text xml:space="preserve" font-family="Liberation Sans" font-size="10.00" transform="matrix(0.981308, 0, 0, 0.981308, 0, 0)">
            <tspan x="336.76" y="120.95">14</tspan>
        </text>
        <ellipse cx="463.05" cy="37.22" rx="10.50" ry="10.50" fill="#FFFFFF" stroke="#000000" stroke-width="0.61"/>
        <text xml:space="preserve" font-family="Liberation Sans" font-size="10.00" transform="matrix(0.981308, 0, 0, 0.981308, 0, 0)">
            <tspan x="465.87" y="41.65">19</tspan>
        </text>
        <ellipse cx="331.51" cy="150.41" rx="10.50" ry="10.50" fill="#FFFFFF" stroke="#000000" stroke-width="0.61"/>
        <text xml:space="preserve" font-family="Liberation Sans" font-size="10.00" transform="matrix(0.981308, 0, 0, 0.981308, 0, 0)">
            <tspan x="331.82" y="156.99">15</tspan>
        </text>
        <ellipse cx="368.41" cy="119.74" rx="10.50" ry="10.50" fill="#FFFFFF" stroke="#000000" stroke-width="0.61"/>
        <text xml:space="preserve" font-family="Liberation Sans" font-size="10.00" transform="matrix(0.981308, 0, 0, 0.981308, 0, 0)">
            <tspan x="369.43" y="125.74">16</tspan>
        </text>
        <ellipse cx="361.39" cy="102.84" rx="10.50" ry="10.50" fill="#FFFFFF" stroke="#000000" stroke-width="0.61"/>
        <text xml:space="preserve" font-family="Liberation Sans" font-size="10.00" transform="matrix(0.981308, 0, 0, 0.981308, 0, 0)">
            <tspan x="362.27" y="108.52">17</tspan>
        </text>
        <ellipse cx="411.69" cy="22.79" rx="10.50" ry="10.50" fill="#FFFFFF" stroke="#000000" stroke-width="0.61"/>
        <text xml:space="preserve" font-family="Liberation Sans" font-size="10.00" transform="matrix(0.981308, 0, 0, 0.981308, 0, 0)">
            <tspan x="413.53" y="26.94">18</tspan>
        </text>
    </g>
</svg>